G04 #@! TF.FileFunction,Legend,Bot*
%FSLAX46Y46*%
G04 Gerber Fmt 4.6, Leading zero omitted, Abs format (unit mm)*
G04 Created by KiCad (PCBNEW 4.0.4-stable) date 07/15/18 19:45:34*
%MOMM*%
%LPD*%
G01*
G04 APERTURE LIST*
%ADD10C,0.100000*%
%ADD11C,0.200000*%
%ADD12C,0.381000*%
%ADD13C,0.120000*%
%ADD14C,0.150000*%
%ADD15C,0.010000*%
%ADD16C,0.125000*%
%ADD17C,0.160000*%
G04 APERTURE END LIST*
D10*
D11*
X199834500Y-95885000D02*
X122555000Y-95885000D01*
D12*
X176646840Y-116880640D02*
X175447960Y-113781840D01*
X175447960Y-113781840D02*
X176047400Y-114180620D01*
X177048160Y-114881660D02*
X175747680Y-112080040D01*
X176646840Y-116880640D02*
X176047400Y-116182140D01*
X176248060Y-111881920D02*
X177048160Y-114881660D01*
X177048160Y-114881660D02*
X175849280Y-114081560D01*
X175849280Y-114081560D02*
X176646840Y-116880640D01*
X176646840Y-116880640D02*
X176748440Y-115981480D01*
X176149000Y-110490000D02*
X171450000Y-117475000D01*
X171450000Y-117475000D02*
X180848000Y-117475000D01*
X180848000Y-117475000D02*
X176149000Y-110490000D01*
D13*
X162050000Y-73662000D02*
X162050000Y-75842000D01*
X162050000Y-80262000D02*
X162050000Y-78082000D01*
X155450000Y-74422000D02*
X155450000Y-75842000D01*
X155450000Y-79502000D02*
X155450000Y-78082000D01*
X162050000Y-73662000D02*
X156210000Y-73662000D01*
X156210000Y-73662000D02*
X155450000Y-74422000D01*
X155450000Y-79502000D02*
X156210000Y-80262000D01*
X156210000Y-80262000D02*
X162050000Y-80262000D01*
X159560000Y-82808000D02*
X157560000Y-82808000D01*
X157560000Y-80768000D02*
X159560000Y-80768000D01*
X151636000Y-73662000D02*
X151636000Y-75842000D01*
X151636000Y-80262000D02*
X151636000Y-78082000D01*
X145036000Y-74422000D02*
X145036000Y-75842000D01*
X145036000Y-79502000D02*
X145036000Y-78082000D01*
X151636000Y-73662000D02*
X145796000Y-73662000D01*
X145796000Y-73662000D02*
X145036000Y-74422000D01*
X145036000Y-79502000D02*
X145796000Y-80262000D01*
X145796000Y-80262000D02*
X151636000Y-80262000D01*
X148955000Y-82808000D02*
X146955000Y-82808000D01*
X146955000Y-80768000D02*
X148955000Y-80768000D01*
D14*
X123643000Y-56921500D02*
X123643000Y-62721500D01*
X132643000Y-56921500D02*
X123643000Y-56921500D01*
X132643000Y-56921500D02*
X132643000Y-62721500D01*
D13*
X139330000Y-93596500D02*
X139330000Y-91696500D01*
X139330000Y-91696500D02*
X144030000Y-91696500D01*
X139330000Y-93596500D02*
X144030000Y-93596500D01*
X146188000Y-93596500D02*
X146188000Y-91696500D01*
X146188000Y-91696500D02*
X150888000Y-91696500D01*
X146188000Y-93596500D02*
X150888000Y-93596500D01*
X123900000Y-85114500D02*
X132640000Y-85114500D01*
X123900000Y-85114500D02*
X123900000Y-80874500D01*
X132640000Y-80874500D02*
X132640000Y-85114500D01*
X132640000Y-80874500D02*
X123900000Y-80874500D01*
X129334000Y-81924500D02*
X127334000Y-81924500D01*
X127334000Y-84064500D02*
X129334000Y-84064500D01*
X172805000Y-101854000D02*
X179305000Y-101854000D01*
X172805000Y-98354000D02*
X172805000Y-105354000D01*
X164055000Y-105354000D02*
X172805000Y-105354000D01*
X164055000Y-98354000D02*
X172805000Y-98354000D01*
X186805000Y-104354000D02*
X188055000Y-104354000D01*
X186555000Y-99354000D02*
X188055000Y-99354000D01*
X174555000Y-104354000D02*
X186805000Y-104354000D01*
X174805000Y-99354000D02*
X186555000Y-99354000D01*
X164055000Y-104354000D02*
X174555000Y-104354000D01*
X164055000Y-99354000D02*
X174805000Y-99354000D01*
X164055000Y-99354000D02*
X164055000Y-104354000D01*
X163055000Y-98354000D02*
X164055000Y-98354000D01*
X163055000Y-98354000D02*
X163055000Y-105354000D01*
X163055000Y-105354000D02*
X164055000Y-105354000D01*
X188055000Y-99354000D02*
X188055000Y-104354000D01*
X179305000Y-98354000D02*
X189055000Y-98354000D01*
X189055000Y-98354000D02*
X189055000Y-105354000D01*
X179305000Y-105354000D02*
X189055000Y-105354000D01*
X179305000Y-98354000D02*
X179305000Y-105354000D01*
X128770000Y-75710500D02*
X127770000Y-75710500D01*
X127770000Y-77070500D02*
X128770000Y-77070500D01*
X123900000Y-78510500D02*
X132640000Y-78510500D01*
X123900000Y-78510500D02*
X123900000Y-74270500D01*
X132640000Y-74270500D02*
X132640000Y-78510500D01*
X132640000Y-74270500D02*
X123900000Y-74270500D01*
D14*
X198564000Y-100584000D02*
X198564000Y-103124000D01*
X198564000Y-103124000D02*
X190944000Y-103124000D01*
X190944000Y-103124000D02*
X190944000Y-100584000D01*
X190944000Y-100584000D02*
X198564000Y-100584000D01*
X198628000Y-110363000D02*
X198628000Y-112903000D01*
X198628000Y-112903000D02*
X191008000Y-112903000D01*
X191008000Y-112903000D02*
X191008000Y-110363000D01*
X191008000Y-110363000D02*
X198628000Y-110363000D01*
D13*
X157166000Y-62043000D02*
X159826000Y-62043000D01*
X157166000Y-64643000D02*
X157166000Y-62043000D01*
X159826000Y-64643000D02*
X159826000Y-62043000D01*
X157166000Y-64643000D02*
X159826000Y-64643000D01*
X157166000Y-65913000D02*
X157166000Y-67243000D01*
X157166000Y-67243000D02*
X158496000Y-67243000D01*
X149292000Y-62043000D02*
X151952000Y-62043000D01*
X149292000Y-64643000D02*
X149292000Y-62043000D01*
X151952000Y-64643000D02*
X151952000Y-62043000D01*
X149292000Y-64643000D02*
X151952000Y-64643000D01*
X149292000Y-65913000D02*
X149292000Y-67243000D01*
X149292000Y-67243000D02*
X150622000Y-67243000D01*
X156329000Y-90268000D02*
X155329000Y-90268000D01*
X156329000Y-93628000D02*
X155329000Y-93628000D01*
X172966000Y-74647000D02*
X171966000Y-74647000D01*
X172966000Y-78007000D02*
X171966000Y-78007000D01*
D14*
X166068000Y-109166000D02*
X173068000Y-109166000D01*
X166068000Y-114266000D02*
X173068000Y-114266000D01*
X173068000Y-114266000D02*
X173068000Y-109166000D01*
X166068000Y-114266000D02*
X166068000Y-109166000D01*
D13*
X140340000Y-75393500D02*
X140340000Y-76653500D01*
X140340000Y-82213500D02*
X140340000Y-80953500D01*
X136580000Y-75393500D02*
X140340000Y-75393500D01*
X134330000Y-82213500D02*
X140340000Y-82213500D01*
D14*
X200152000Y-92202000D02*
X200152000Y-84201000D01*
X189230000Y-84201000D02*
X189230000Y-92202000D01*
X200152000Y-84201000D02*
X189230000Y-84201000D01*
X189230000Y-92202000D02*
X200152000Y-92202000D01*
X200152000Y-87757000D02*
X199390000Y-87757000D01*
X199390000Y-87757000D02*
X199390000Y-88773000D01*
X199390000Y-88773000D02*
X200152000Y-88773000D01*
X182575200Y-111633000D02*
X180848000Y-111633000D01*
X184480200Y-111633000D02*
X186182000Y-111633000D01*
X188595000Y-112903000D02*
X188595000Y-110363000D01*
X188595000Y-110363000D02*
X178435000Y-110363000D01*
X178435000Y-110363000D02*
X178435000Y-112903000D01*
X178435000Y-112903000D02*
X188595000Y-112903000D01*
X184150000Y-112331500D02*
X184658000Y-112331500D01*
X182880000Y-110934500D02*
X182372000Y-110934500D01*
X184150000Y-112331500D02*
X182880000Y-110934500D01*
X184467500Y-111633000D02*
X184467500Y-112014000D01*
X184467500Y-112014000D02*
X182562500Y-112014000D01*
X182562500Y-112014000D02*
X182562500Y-111633000D01*
X182562500Y-111633000D02*
X182562500Y-111252000D01*
X182562500Y-111252000D02*
X183515000Y-111252000D01*
X184467500Y-111633000D02*
X184467500Y-111252000D01*
X184467500Y-111252000D02*
X183515000Y-111252000D01*
X196088000Y-63246000D02*
X196088000Y-81280000D01*
X163322000Y-81280000D02*
X163322000Y-63246000D01*
X196088000Y-63246000D02*
X163322000Y-63246000D01*
X163322000Y-81280000D02*
X196088000Y-81280000D01*
X160528000Y-116840000D02*
X124968000Y-116840000D01*
X124968000Y-116840000D02*
X124968000Y-96520000D01*
X124968000Y-96520000D02*
X160528000Y-96520000D01*
X160528000Y-96520000D02*
X160528000Y-116840000D01*
D13*
X139767000Y-64703000D02*
X139767000Y-62043000D01*
X144907000Y-64703000D02*
X139767000Y-64703000D01*
X144907000Y-62043000D02*
X139767000Y-62043000D01*
X144907000Y-64703000D02*
X144907000Y-62043000D01*
X146177000Y-64703000D02*
X147507000Y-64703000D01*
X147507000Y-64703000D02*
X147507000Y-63373000D01*
D15*
G36*
X132159186Y-89162931D02*
X132075365Y-89607555D01*
X131766080Y-89735053D01*
X131456794Y-89862551D01*
X131085754Y-89610246D01*
X130981843Y-89539996D01*
X130887913Y-89477272D01*
X130808348Y-89424938D01*
X130747530Y-89385857D01*
X130709843Y-89362893D01*
X130699579Y-89357942D01*
X130681090Y-89370676D01*
X130641580Y-89405882D01*
X130585478Y-89459062D01*
X130517213Y-89525718D01*
X130441214Y-89601354D01*
X130361908Y-89681472D01*
X130283725Y-89761574D01*
X130211093Y-89837164D01*
X130148441Y-89903745D01*
X130100197Y-89956818D01*
X130070790Y-89991887D01*
X130063759Y-90003623D01*
X130073877Y-90025260D01*
X130102241Y-90072662D01*
X130145871Y-90141193D01*
X130201782Y-90226215D01*
X130266994Y-90323093D01*
X130304781Y-90378350D01*
X130373657Y-90479248D01*
X130434860Y-90570299D01*
X130485422Y-90646970D01*
X130522372Y-90704728D01*
X130542742Y-90739043D01*
X130545803Y-90746254D01*
X130538864Y-90766748D01*
X130519949Y-90814513D01*
X130491913Y-90882832D01*
X130457609Y-90964989D01*
X130419891Y-91054270D01*
X130381613Y-91143958D01*
X130345630Y-91227338D01*
X130314794Y-91297694D01*
X130291961Y-91348310D01*
X130279983Y-91372471D01*
X130279276Y-91373422D01*
X130260469Y-91378036D01*
X130210382Y-91388328D01*
X130134207Y-91403287D01*
X130037135Y-91421901D01*
X129924357Y-91443159D01*
X129858558Y-91455418D01*
X129738050Y-91478362D01*
X129629203Y-91500195D01*
X129537524Y-91519722D01*
X129468519Y-91535748D01*
X129427696Y-91547079D01*
X129419489Y-91550674D01*
X129411452Y-91575006D01*
X129404967Y-91629959D01*
X129400030Y-91709108D01*
X129396636Y-91806026D01*
X129394782Y-91914287D01*
X129394462Y-92027465D01*
X129395673Y-92139135D01*
X129398410Y-92242868D01*
X129402669Y-92332241D01*
X129408445Y-92400826D01*
X129415733Y-92442197D01*
X129420105Y-92450810D01*
X129446236Y-92461133D01*
X129501607Y-92475892D01*
X129578893Y-92493352D01*
X129670770Y-92511780D01*
X129702842Y-92517741D01*
X129857476Y-92546066D01*
X129979625Y-92568876D01*
X130073327Y-92587080D01*
X130142616Y-92601583D01*
X130191529Y-92613292D01*
X130224103Y-92623115D01*
X130244372Y-92631956D01*
X130256374Y-92640724D01*
X130258053Y-92642457D01*
X130274816Y-92670371D01*
X130300386Y-92724695D01*
X130332212Y-92798777D01*
X130367740Y-92885965D01*
X130404417Y-92979608D01*
X130439689Y-93073052D01*
X130471004Y-93159647D01*
X130495807Y-93232740D01*
X130511546Y-93285678D01*
X130515668Y-93311811D01*
X130515324Y-93312726D01*
X130501359Y-93334086D01*
X130469678Y-93381084D01*
X130423609Y-93448827D01*
X130366482Y-93532423D01*
X130301627Y-93626982D01*
X130283157Y-93653854D01*
X130217301Y-93751275D01*
X130159350Y-93840163D01*
X130112462Y-93915412D01*
X130079793Y-93971920D01*
X130064500Y-94004581D01*
X130063759Y-94008593D01*
X130076608Y-94029684D01*
X130112112Y-94071464D01*
X130165707Y-94129445D01*
X130232829Y-94199135D01*
X130308913Y-94276045D01*
X130389396Y-94355683D01*
X130469713Y-94433561D01*
X130545301Y-94505186D01*
X130611595Y-94566070D01*
X130664031Y-94611721D01*
X130698045Y-94637650D01*
X130707455Y-94641883D01*
X130729357Y-94631912D01*
X130774200Y-94605020D01*
X130834679Y-94565736D01*
X130881211Y-94534117D01*
X130965525Y-94476098D01*
X131065374Y-94407784D01*
X131165527Y-94339579D01*
X131219373Y-94303075D01*
X131401629Y-94179800D01*
X131554619Y-94262520D01*
X131624318Y-94298759D01*
X131683586Y-94326926D01*
X131723689Y-94342991D01*
X131733897Y-94345226D01*
X131746171Y-94328722D01*
X131770387Y-94282082D01*
X131804737Y-94209609D01*
X131847412Y-94115606D01*
X131896606Y-94004374D01*
X131950510Y-93880215D01*
X132007316Y-93747432D01*
X132065218Y-93610327D01*
X132122407Y-93473202D01*
X132177076Y-93340358D01*
X132227416Y-93216098D01*
X132271620Y-93104725D01*
X132307881Y-93010539D01*
X132334391Y-92937844D01*
X132349342Y-92890941D01*
X132351746Y-92874833D01*
X132332689Y-92854286D01*
X132290964Y-92820933D01*
X132235294Y-92781702D01*
X132230622Y-92778599D01*
X132086736Y-92663423D01*
X131970717Y-92529053D01*
X131883570Y-92379784D01*
X131826301Y-92219913D01*
X131799914Y-92053737D01*
X131805415Y-91885552D01*
X131843810Y-91719655D01*
X131916105Y-91560342D01*
X131937374Y-91525487D01*
X132048004Y-91384737D01*
X132178698Y-91271714D01*
X132324936Y-91187003D01*
X132482192Y-91131194D01*
X132645943Y-91104874D01*
X132811667Y-91108630D01*
X132974838Y-91143050D01*
X133130935Y-91208723D01*
X133275433Y-91306235D01*
X133320131Y-91345813D01*
X133433888Y-91469703D01*
X133516782Y-91600124D01*
X133573644Y-91746315D01*
X133605313Y-91891088D01*
X133613131Y-92053860D01*
X133587062Y-92217440D01*
X133529755Y-92376298D01*
X133443856Y-92524906D01*
X133332014Y-92657735D01*
X133196877Y-92769256D01*
X133179117Y-92781011D01*
X133122850Y-92819508D01*
X133080077Y-92852863D01*
X133059628Y-92874160D01*
X133059331Y-92874833D01*
X133063721Y-92897871D01*
X133081124Y-92950157D01*
X133109732Y-93027390D01*
X133147735Y-93125268D01*
X133193326Y-93239491D01*
X133244697Y-93365758D01*
X133300038Y-93499767D01*
X133357542Y-93637218D01*
X133415399Y-93773808D01*
X133471802Y-93905237D01*
X133524942Y-94027205D01*
X133573010Y-94135409D01*
X133614199Y-94225549D01*
X133646699Y-94293323D01*
X133668703Y-94334430D01*
X133677564Y-94345226D01*
X133704640Y-94336819D01*
X133755303Y-94314272D01*
X133820817Y-94281613D01*
X133856841Y-94262520D01*
X134009832Y-94179800D01*
X134192088Y-94303075D01*
X134285125Y-94366228D01*
X134386985Y-94435727D01*
X134482438Y-94501165D01*
X134530250Y-94534117D01*
X134597495Y-94579273D01*
X134654436Y-94615057D01*
X134693646Y-94636938D01*
X134706381Y-94641563D01*
X134724917Y-94629085D01*
X134765941Y-94594252D01*
X134825475Y-94540678D01*
X134899542Y-94471983D01*
X134984165Y-94391781D01*
X135037685Y-94340286D01*
X135131319Y-94248286D01*
X135212241Y-94165999D01*
X135277177Y-94096945D01*
X135322858Y-94044644D01*
X135346011Y-94012616D01*
X135348232Y-94006116D01*
X135337924Y-93981394D01*
X135309439Y-93931405D01*
X135265937Y-93861212D01*
X135210577Y-93775875D01*
X135146520Y-93680456D01*
X135128303Y-93653854D01*
X135061927Y-93557167D01*
X135002378Y-93470117D01*
X134952984Y-93397595D01*
X134917075Y-93344493D01*
X134897981Y-93315703D01*
X134896136Y-93312726D01*
X134898895Y-93289782D01*
X134913538Y-93239336D01*
X134937513Y-93168041D01*
X134968266Y-93082547D01*
X135003244Y-92989507D01*
X135039893Y-92895574D01*
X135075661Y-92807399D01*
X135107994Y-92731634D01*
X135134338Y-92674931D01*
X135152142Y-92643943D01*
X135153407Y-92642457D01*
X135164294Y-92633601D01*
X135182682Y-92624843D01*
X135212606Y-92615277D01*
X135258103Y-92603996D01*
X135323209Y-92590093D01*
X135411961Y-92572663D01*
X135528393Y-92550798D01*
X135676542Y-92523591D01*
X135708618Y-92517741D01*
X135803686Y-92499374D01*
X135886565Y-92481405D01*
X135949930Y-92465569D01*
X135986458Y-92453600D01*
X135991356Y-92450810D01*
X135999427Y-92426072D01*
X136005987Y-92370790D01*
X136011033Y-92291389D01*
X136014559Y-92194296D01*
X136016561Y-92085938D01*
X136017036Y-91972740D01*
X136015977Y-91861128D01*
X136013382Y-91757529D01*
X136009246Y-91668368D01*
X136003563Y-91600072D01*
X135996331Y-91559066D01*
X135991971Y-91550674D01*
X135967698Y-91542208D01*
X135912426Y-91528435D01*
X135831662Y-91510550D01*
X135730912Y-91489748D01*
X135615683Y-91467223D01*
X135552902Y-91455418D01*
X135433787Y-91433151D01*
X135327565Y-91412979D01*
X135239427Y-91395915D01*
X135174566Y-91382969D01*
X135138174Y-91375155D01*
X135132184Y-91373422D01*
X135122061Y-91353890D01*
X135100662Y-91306843D01*
X135070839Y-91239003D01*
X135035445Y-91157091D01*
X134997332Y-91067828D01*
X134959353Y-90977935D01*
X134924360Y-90894135D01*
X134895206Y-90823147D01*
X134874743Y-90771694D01*
X134865823Y-90746497D01*
X134865657Y-90745396D01*
X134875769Y-90725519D01*
X134904117Y-90679777D01*
X134947723Y-90612717D01*
X135003606Y-90528884D01*
X135068787Y-90432826D01*
X135106679Y-90377650D01*
X135175725Y-90276481D01*
X135237050Y-90184630D01*
X135287663Y-90106744D01*
X135324571Y-90047469D01*
X135344782Y-90011451D01*
X135347701Y-90003377D01*
X135335153Y-89984584D01*
X135300463Y-89944457D01*
X135248063Y-89887493D01*
X135182384Y-89818185D01*
X135107856Y-89741031D01*
X135028913Y-89660525D01*
X134949983Y-89581163D01*
X134875500Y-89507440D01*
X134809894Y-89443852D01*
X134757596Y-89394894D01*
X134723039Y-89365061D01*
X134711478Y-89357942D01*
X134692654Y-89367953D01*
X134647631Y-89396078D01*
X134580787Y-89439454D01*
X134496499Y-89495218D01*
X134399144Y-89560506D01*
X134325707Y-89610246D01*
X133954667Y-89862551D01*
X133336095Y-89607555D01*
X133252275Y-89162931D01*
X133168454Y-88718307D01*
X132243006Y-88718307D01*
X132159186Y-89162931D01*
X132159186Y-89162931D01*
G37*
X132159186Y-89162931D02*
X132075365Y-89607555D01*
X131766080Y-89735053D01*
X131456794Y-89862551D01*
X131085754Y-89610246D01*
X130981843Y-89539996D01*
X130887913Y-89477272D01*
X130808348Y-89424938D01*
X130747530Y-89385857D01*
X130709843Y-89362893D01*
X130699579Y-89357942D01*
X130681090Y-89370676D01*
X130641580Y-89405882D01*
X130585478Y-89459062D01*
X130517213Y-89525718D01*
X130441214Y-89601354D01*
X130361908Y-89681472D01*
X130283725Y-89761574D01*
X130211093Y-89837164D01*
X130148441Y-89903745D01*
X130100197Y-89956818D01*
X130070790Y-89991887D01*
X130063759Y-90003623D01*
X130073877Y-90025260D01*
X130102241Y-90072662D01*
X130145871Y-90141193D01*
X130201782Y-90226215D01*
X130266994Y-90323093D01*
X130304781Y-90378350D01*
X130373657Y-90479248D01*
X130434860Y-90570299D01*
X130485422Y-90646970D01*
X130522372Y-90704728D01*
X130542742Y-90739043D01*
X130545803Y-90746254D01*
X130538864Y-90766748D01*
X130519949Y-90814513D01*
X130491913Y-90882832D01*
X130457609Y-90964989D01*
X130419891Y-91054270D01*
X130381613Y-91143958D01*
X130345630Y-91227338D01*
X130314794Y-91297694D01*
X130291961Y-91348310D01*
X130279983Y-91372471D01*
X130279276Y-91373422D01*
X130260469Y-91378036D01*
X130210382Y-91388328D01*
X130134207Y-91403287D01*
X130037135Y-91421901D01*
X129924357Y-91443159D01*
X129858558Y-91455418D01*
X129738050Y-91478362D01*
X129629203Y-91500195D01*
X129537524Y-91519722D01*
X129468519Y-91535748D01*
X129427696Y-91547079D01*
X129419489Y-91550674D01*
X129411452Y-91575006D01*
X129404967Y-91629959D01*
X129400030Y-91709108D01*
X129396636Y-91806026D01*
X129394782Y-91914287D01*
X129394462Y-92027465D01*
X129395673Y-92139135D01*
X129398410Y-92242868D01*
X129402669Y-92332241D01*
X129408445Y-92400826D01*
X129415733Y-92442197D01*
X129420105Y-92450810D01*
X129446236Y-92461133D01*
X129501607Y-92475892D01*
X129578893Y-92493352D01*
X129670770Y-92511780D01*
X129702842Y-92517741D01*
X129857476Y-92546066D01*
X129979625Y-92568876D01*
X130073327Y-92587080D01*
X130142616Y-92601583D01*
X130191529Y-92613292D01*
X130224103Y-92623115D01*
X130244372Y-92631956D01*
X130256374Y-92640724D01*
X130258053Y-92642457D01*
X130274816Y-92670371D01*
X130300386Y-92724695D01*
X130332212Y-92798777D01*
X130367740Y-92885965D01*
X130404417Y-92979608D01*
X130439689Y-93073052D01*
X130471004Y-93159647D01*
X130495807Y-93232740D01*
X130511546Y-93285678D01*
X130515668Y-93311811D01*
X130515324Y-93312726D01*
X130501359Y-93334086D01*
X130469678Y-93381084D01*
X130423609Y-93448827D01*
X130366482Y-93532423D01*
X130301627Y-93626982D01*
X130283157Y-93653854D01*
X130217301Y-93751275D01*
X130159350Y-93840163D01*
X130112462Y-93915412D01*
X130079793Y-93971920D01*
X130064500Y-94004581D01*
X130063759Y-94008593D01*
X130076608Y-94029684D01*
X130112112Y-94071464D01*
X130165707Y-94129445D01*
X130232829Y-94199135D01*
X130308913Y-94276045D01*
X130389396Y-94355683D01*
X130469713Y-94433561D01*
X130545301Y-94505186D01*
X130611595Y-94566070D01*
X130664031Y-94611721D01*
X130698045Y-94637650D01*
X130707455Y-94641883D01*
X130729357Y-94631912D01*
X130774200Y-94605020D01*
X130834679Y-94565736D01*
X130881211Y-94534117D01*
X130965525Y-94476098D01*
X131065374Y-94407784D01*
X131165527Y-94339579D01*
X131219373Y-94303075D01*
X131401629Y-94179800D01*
X131554619Y-94262520D01*
X131624318Y-94298759D01*
X131683586Y-94326926D01*
X131723689Y-94342991D01*
X131733897Y-94345226D01*
X131746171Y-94328722D01*
X131770387Y-94282082D01*
X131804737Y-94209609D01*
X131847412Y-94115606D01*
X131896606Y-94004374D01*
X131950510Y-93880215D01*
X132007316Y-93747432D01*
X132065218Y-93610327D01*
X132122407Y-93473202D01*
X132177076Y-93340358D01*
X132227416Y-93216098D01*
X132271620Y-93104725D01*
X132307881Y-93010539D01*
X132334391Y-92937844D01*
X132349342Y-92890941D01*
X132351746Y-92874833D01*
X132332689Y-92854286D01*
X132290964Y-92820933D01*
X132235294Y-92781702D01*
X132230622Y-92778599D01*
X132086736Y-92663423D01*
X131970717Y-92529053D01*
X131883570Y-92379784D01*
X131826301Y-92219913D01*
X131799914Y-92053737D01*
X131805415Y-91885552D01*
X131843810Y-91719655D01*
X131916105Y-91560342D01*
X131937374Y-91525487D01*
X132048004Y-91384737D01*
X132178698Y-91271714D01*
X132324936Y-91187003D01*
X132482192Y-91131194D01*
X132645943Y-91104874D01*
X132811667Y-91108630D01*
X132974838Y-91143050D01*
X133130935Y-91208723D01*
X133275433Y-91306235D01*
X133320131Y-91345813D01*
X133433888Y-91469703D01*
X133516782Y-91600124D01*
X133573644Y-91746315D01*
X133605313Y-91891088D01*
X133613131Y-92053860D01*
X133587062Y-92217440D01*
X133529755Y-92376298D01*
X133443856Y-92524906D01*
X133332014Y-92657735D01*
X133196877Y-92769256D01*
X133179117Y-92781011D01*
X133122850Y-92819508D01*
X133080077Y-92852863D01*
X133059628Y-92874160D01*
X133059331Y-92874833D01*
X133063721Y-92897871D01*
X133081124Y-92950157D01*
X133109732Y-93027390D01*
X133147735Y-93125268D01*
X133193326Y-93239491D01*
X133244697Y-93365758D01*
X133300038Y-93499767D01*
X133357542Y-93637218D01*
X133415399Y-93773808D01*
X133471802Y-93905237D01*
X133524942Y-94027205D01*
X133573010Y-94135409D01*
X133614199Y-94225549D01*
X133646699Y-94293323D01*
X133668703Y-94334430D01*
X133677564Y-94345226D01*
X133704640Y-94336819D01*
X133755303Y-94314272D01*
X133820817Y-94281613D01*
X133856841Y-94262520D01*
X134009832Y-94179800D01*
X134192088Y-94303075D01*
X134285125Y-94366228D01*
X134386985Y-94435727D01*
X134482438Y-94501165D01*
X134530250Y-94534117D01*
X134597495Y-94579273D01*
X134654436Y-94615057D01*
X134693646Y-94636938D01*
X134706381Y-94641563D01*
X134724917Y-94629085D01*
X134765941Y-94594252D01*
X134825475Y-94540678D01*
X134899542Y-94471983D01*
X134984165Y-94391781D01*
X135037685Y-94340286D01*
X135131319Y-94248286D01*
X135212241Y-94165999D01*
X135277177Y-94096945D01*
X135322858Y-94044644D01*
X135346011Y-94012616D01*
X135348232Y-94006116D01*
X135337924Y-93981394D01*
X135309439Y-93931405D01*
X135265937Y-93861212D01*
X135210577Y-93775875D01*
X135146520Y-93680456D01*
X135128303Y-93653854D01*
X135061927Y-93557167D01*
X135002378Y-93470117D01*
X134952984Y-93397595D01*
X134917075Y-93344493D01*
X134897981Y-93315703D01*
X134896136Y-93312726D01*
X134898895Y-93289782D01*
X134913538Y-93239336D01*
X134937513Y-93168041D01*
X134968266Y-93082547D01*
X135003244Y-92989507D01*
X135039893Y-92895574D01*
X135075661Y-92807399D01*
X135107994Y-92731634D01*
X135134338Y-92674931D01*
X135152142Y-92643943D01*
X135153407Y-92642457D01*
X135164294Y-92633601D01*
X135182682Y-92624843D01*
X135212606Y-92615277D01*
X135258103Y-92603996D01*
X135323209Y-92590093D01*
X135411961Y-92572663D01*
X135528393Y-92550798D01*
X135676542Y-92523591D01*
X135708618Y-92517741D01*
X135803686Y-92499374D01*
X135886565Y-92481405D01*
X135949930Y-92465569D01*
X135986458Y-92453600D01*
X135991356Y-92450810D01*
X135999427Y-92426072D01*
X136005987Y-92370790D01*
X136011033Y-92291389D01*
X136014559Y-92194296D01*
X136016561Y-92085938D01*
X136017036Y-91972740D01*
X136015977Y-91861128D01*
X136013382Y-91757529D01*
X136009246Y-91668368D01*
X136003563Y-91600072D01*
X135996331Y-91559066D01*
X135991971Y-91550674D01*
X135967698Y-91542208D01*
X135912426Y-91528435D01*
X135831662Y-91510550D01*
X135730912Y-91489748D01*
X135615683Y-91467223D01*
X135552902Y-91455418D01*
X135433787Y-91433151D01*
X135327565Y-91412979D01*
X135239427Y-91395915D01*
X135174566Y-91382969D01*
X135138174Y-91375155D01*
X135132184Y-91373422D01*
X135122061Y-91353890D01*
X135100662Y-91306843D01*
X135070839Y-91239003D01*
X135035445Y-91157091D01*
X134997332Y-91067828D01*
X134959353Y-90977935D01*
X134924360Y-90894135D01*
X134895206Y-90823147D01*
X134874743Y-90771694D01*
X134865823Y-90746497D01*
X134865657Y-90745396D01*
X134875769Y-90725519D01*
X134904117Y-90679777D01*
X134947723Y-90612717D01*
X135003606Y-90528884D01*
X135068787Y-90432826D01*
X135106679Y-90377650D01*
X135175725Y-90276481D01*
X135237050Y-90184630D01*
X135287663Y-90106744D01*
X135324571Y-90047469D01*
X135344782Y-90011451D01*
X135347701Y-90003377D01*
X135335153Y-89984584D01*
X135300463Y-89944457D01*
X135248063Y-89887493D01*
X135182384Y-89818185D01*
X135107856Y-89741031D01*
X135028913Y-89660525D01*
X134949983Y-89581163D01*
X134875500Y-89507440D01*
X134809894Y-89443852D01*
X134757596Y-89394894D01*
X134723039Y-89365061D01*
X134711478Y-89357942D01*
X134692654Y-89367953D01*
X134647631Y-89396078D01*
X134580787Y-89439454D01*
X134496499Y-89495218D01*
X134399144Y-89560506D01*
X134325707Y-89610246D01*
X133954667Y-89862551D01*
X133336095Y-89607555D01*
X133252275Y-89162931D01*
X133168454Y-88718307D01*
X132243006Y-88718307D01*
X132159186Y-89162931D01*
G36*
X134904178Y-71089822D02*
X138424971Y-71089822D01*
X138424971Y-70222198D01*
X134904178Y-70222198D01*
X134904178Y-71089822D01*
X134904178Y-71089822D01*
G37*
X134904178Y-71089822D02*
X138424971Y-71089822D01*
X138424971Y-70222198D01*
X134904178Y-70222198D01*
X134904178Y-71089822D01*
G36*
X134527570Y-65136848D02*
X134528189Y-65223931D01*
X134979914Y-65682891D01*
X135431639Y-66141852D01*
X135431968Y-66352471D01*
X135432297Y-66563089D01*
X135707390Y-66563089D01*
X135714478Y-66616530D01*
X135717162Y-66640888D01*
X135721687Y-66686759D01*
X135727809Y-66751405D01*
X135735288Y-66832091D01*
X135743881Y-66926081D01*
X135753346Y-67030637D01*
X135763442Y-67143025D01*
X135773926Y-67260507D01*
X135784556Y-67380348D01*
X135795091Y-67499811D01*
X135805287Y-67616159D01*
X135814905Y-67726657D01*
X135823700Y-67828569D01*
X135831432Y-67919158D01*
X135837858Y-67995687D01*
X135842737Y-68055421D01*
X135845825Y-68095624D01*
X135846883Y-68113559D01*
X135846882Y-68113644D01*
X135839173Y-68128035D01*
X135816019Y-68157748D01*
X135777105Y-68203131D01*
X135722116Y-68264529D01*
X135650736Y-68342288D01*
X135562651Y-68436754D01*
X135457546Y-68548272D01*
X135335105Y-68677188D01*
X135300690Y-68713287D01*
X134754863Y-69285416D01*
X134843119Y-69373436D01*
X134914515Y-69295758D01*
X134940634Y-69267686D01*
X134981434Y-69224274D01*
X135034223Y-69168366D01*
X135096309Y-69102808D01*
X135165000Y-69030441D01*
X135237604Y-68954112D01*
X135281040Y-68908524D01*
X135362584Y-68823119D01*
X135428496Y-68754710D01*
X135480456Y-68702053D01*
X135520145Y-68663905D01*
X135549243Y-68639020D01*
X135569431Y-68626156D01*
X135582390Y-68624068D01*
X135589800Y-68631513D01*
X135593342Y-68647246D01*
X135594697Y-68670023D01*
X135594879Y-68676239D01*
X135604297Y-68719061D01*
X135627503Y-68770819D01*
X135659864Y-68823328D01*
X135696748Y-68868403D01*
X135711507Y-68882328D01*
X135787233Y-68931047D01*
X135875692Y-68958306D01*
X135953900Y-68964773D01*
X136042532Y-68952576D01*
X136124388Y-68916813D01*
X136196836Y-68858722D01*
X136210203Y-68844262D01*
X136259082Y-68788733D01*
X137104674Y-68788733D01*
X137104674Y-68964773D01*
X137331010Y-68964773D01*
X137331010Y-68882531D01*
X137333850Y-68826386D01*
X137343393Y-68787416D01*
X137354991Y-68766219D01*
X137363277Y-68751052D01*
X137370373Y-68729062D01*
X137376748Y-68696987D01*
X137382872Y-68651569D01*
X137389216Y-68589548D01*
X137396250Y-68507662D01*
X137401066Y-68446746D01*
X137423161Y-68161343D01*
X137965565Y-68710805D01*
X138063637Y-68810228D01*
X138157784Y-68905815D01*
X138246285Y-68995810D01*
X138327420Y-69078457D01*
X138399469Y-69152001D01*
X138460712Y-69214684D01*
X138509427Y-69264752D01*
X138543896Y-69300448D01*
X138562379Y-69319995D01*
X138592743Y-69350944D01*
X138618071Y-69372530D01*
X138631695Y-69379723D01*
X138649095Y-69371297D01*
X138674460Y-69350245D01*
X138683058Y-69341671D01*
X138719514Y-69303620D01*
X138518802Y-69099658D01*
X138467596Y-69047699D01*
X138401569Y-68980820D01*
X138323618Y-68901950D01*
X138236638Y-68814014D01*
X138143526Y-68719941D01*
X138047179Y-68622658D01*
X137950492Y-68525093D01*
X137881134Y-68455145D01*
X137775703Y-68348550D01*
X137687129Y-68258307D01*
X137614281Y-68183192D01*
X137556023Y-68121986D01*
X137511225Y-68073466D01*
X137489021Y-68048129D01*
X137310724Y-68048129D01*
X137288401Y-68333555D01*
X137281669Y-68417219D01*
X137275157Y-68493727D01*
X137269234Y-68559081D01*
X137264268Y-68609281D01*
X137260629Y-68640329D01*
X137259458Y-68647273D01*
X137252838Y-68675565D01*
X136303364Y-68675565D01*
X136297026Y-68596606D01*
X136277890Y-68503315D01*
X136237846Y-68420791D01*
X136179418Y-68352038D01*
X136105129Y-68300063D01*
X136021748Y-68268863D01*
X135994698Y-68254228D01*
X135981156Y-68222819D01*
X135980872Y-68221434D01*
X135979247Y-68208174D01*
X135981256Y-68194595D01*
X135988858Y-68178181D01*
X136004016Y-68156411D01*
X136028688Y-68126767D01*
X136064836Y-68086732D01*
X136114420Y-68033785D01*
X136179401Y-67965409D01*
X136183599Y-67961005D01*
X136253493Y-67887611D01*
X136327800Y-67809437D01*
X136401414Y-67731864D01*
X136469229Y-67660275D01*
X136526140Y-67600051D01*
X136538832Y-67586587D01*
X136587487Y-67535820D01*
X136630709Y-67492375D01*
X136665395Y-67459241D01*
X136688444Y-67439405D01*
X136696182Y-67435046D01*
X136707722Y-67444170D01*
X136734710Y-67469200D01*
X136775021Y-67508052D01*
X136826529Y-67558643D01*
X136887109Y-67618888D01*
X136954636Y-67686704D01*
X137009826Y-67742565D01*
X137310724Y-68048129D01*
X137489021Y-68048129D01*
X137478751Y-68036411D01*
X137457471Y-68009599D01*
X137446251Y-67991808D01*
X137443754Y-67983570D01*
X137444700Y-67965590D01*
X137447573Y-67924892D01*
X137452187Y-67863819D01*
X137458358Y-67784713D01*
X137465898Y-67689914D01*
X137474621Y-67581767D01*
X137484343Y-67462612D01*
X137494876Y-67334791D01*
X137503365Y-67232635D01*
X137551396Y-66656674D01*
X137427805Y-66656674D01*
X137427273Y-66669104D01*
X137424769Y-66704110D01*
X137420496Y-66759215D01*
X137414653Y-66831943D01*
X137407443Y-66919814D01*
X137399066Y-67020351D01*
X137389723Y-67131077D01*
X137380758Y-67236205D01*
X137370602Y-67355483D01*
X137361142Y-67468080D01*
X137352596Y-67571305D01*
X137345179Y-67662473D01*
X137339108Y-67738895D01*
X137334601Y-67797883D01*
X137331873Y-67836749D01*
X137331116Y-67851844D01*
X137329935Y-67861238D01*
X137325256Y-67864966D01*
X137315276Y-67861471D01*
X137298190Y-67849199D01*
X137272196Y-67826594D01*
X137235490Y-67792100D01*
X137186267Y-67744162D01*
X137122726Y-67681224D01*
X137055305Y-67613968D01*
X136779601Y-67338477D01*
X136781533Y-67336406D01*
X136599290Y-67336406D01*
X136590984Y-67347780D01*
X136567733Y-67374563D01*
X136531865Y-67414292D01*
X136485713Y-67464507D01*
X136431606Y-67522746D01*
X136371874Y-67586547D01*
X136308848Y-67653449D01*
X136244858Y-67720990D01*
X136182236Y-67786710D01*
X136123310Y-67848146D01*
X136070412Y-67902837D01*
X136025872Y-67948322D01*
X135992020Y-67982138D01*
X135971188Y-68001826D01*
X135965506Y-68005837D01*
X135963634Y-67992891D01*
X135959746Y-67957134D01*
X135954057Y-67900804D01*
X135946781Y-67826140D01*
X135938131Y-67735380D01*
X135928322Y-67630762D01*
X135917566Y-67514526D01*
X135906079Y-67388908D01*
X135896907Y-67287618D01*
X135885174Y-67156279D01*
X135874335Y-67032552D01*
X135864570Y-66918681D01*
X135856063Y-66816911D01*
X135848995Y-66729487D01*
X135843549Y-66658653D01*
X135839908Y-66606653D01*
X135838253Y-66575732D01*
X135838442Y-66567703D01*
X135848334Y-66574854D01*
X135873524Y-66597841D01*
X135911810Y-66634439D01*
X135960989Y-66682422D01*
X136018861Y-66739566D01*
X136083222Y-66803647D01*
X136151871Y-66872438D01*
X136222605Y-66943716D01*
X136293222Y-67015255D01*
X136361520Y-67084830D01*
X136425296Y-67150217D01*
X136482350Y-67209191D01*
X136530478Y-67259527D01*
X136567478Y-67298999D01*
X136591148Y-67325383D01*
X136599290Y-67336406D01*
X136781533Y-67336406D01*
X136882409Y-67228295D01*
X136934768Y-67172377D01*
X136993535Y-67109948D01*
X137056385Y-67043443D01*
X137120995Y-66975298D01*
X137185042Y-66907948D01*
X137246203Y-66843828D01*
X137302153Y-66785372D01*
X137350570Y-66735018D01*
X137389130Y-66695198D01*
X137415509Y-66668350D01*
X137427384Y-66656908D01*
X137427805Y-66656674D01*
X137551396Y-66656674D01*
X137563401Y-66512726D01*
X138163938Y-65881158D01*
X138764475Y-65249589D01*
X138764034Y-65161315D01*
X138763592Y-65073040D01*
X138666583Y-65176666D01*
X138612291Y-65234463D01*
X138548192Y-65302368D01*
X138476016Y-65378572D01*
X138397492Y-65461269D01*
X138314349Y-65548653D01*
X138228319Y-65638915D01*
X138141130Y-65730250D01*
X138054513Y-65820849D01*
X137970197Y-65908907D01*
X137889912Y-65992615D01*
X137815387Y-66070167D01*
X137748354Y-66139757D01*
X137690541Y-66199576D01*
X137643679Y-66247818D01*
X137609496Y-66282676D01*
X137589724Y-66302343D01*
X137585390Y-66306116D01*
X137585092Y-66292992D01*
X137586731Y-66259389D01*
X137590023Y-66209880D01*
X137594682Y-66149037D01*
X137596682Y-66124732D01*
X137611577Y-65946951D01*
X137494955Y-65946951D01*
X137488934Y-65975243D01*
X137485863Y-65997618D01*
X137481548Y-66039717D01*
X137476488Y-66096178D01*
X137471181Y-66161635D01*
X137469344Y-66185862D01*
X137463927Y-66255421D01*
X137458459Y-66320018D01*
X137453488Y-66373548D01*
X137449561Y-66409910D01*
X137448675Y-66416509D01*
X137445334Y-66430056D01*
X137438101Y-66445914D01*
X137425440Y-66465861D01*
X137405811Y-66491673D01*
X137377678Y-66525129D01*
X137339502Y-66568007D01*
X137289746Y-66622083D01*
X137226871Y-66689136D01*
X137149341Y-66770943D01*
X137070251Y-66853950D01*
X136991564Y-66936094D01*
X136918112Y-67012169D01*
X136851724Y-67080325D01*
X136794227Y-67138712D01*
X136747451Y-67185481D01*
X136713224Y-67218782D01*
X136693373Y-67236767D01*
X136689140Y-67239442D01*
X136678003Y-67229741D01*
X136651971Y-67204441D01*
X136613570Y-67166082D01*
X136565328Y-67117200D01*
X136509770Y-67060334D01*
X136469592Y-67018906D01*
X136259831Y-66802000D01*
X136878337Y-66802000D01*
X136878337Y-66563089D01*
X136123881Y-66563089D01*
X136123881Y-66669542D01*
X135985565Y-66531654D01*
X135887447Y-66433840D01*
X135696357Y-66433840D01*
X135694529Y-66449270D01*
X135685277Y-66457867D01*
X135662950Y-66461613D01*
X135621895Y-66462489D01*
X135614624Y-66462495D01*
X135532891Y-66462495D01*
X135532891Y-66243172D01*
X135614624Y-66324179D01*
X135660730Y-66373428D01*
X135688306Y-66411159D01*
X135696357Y-66433840D01*
X135887447Y-66433840D01*
X135847248Y-66393766D01*
X135847248Y-66270952D01*
X135846863Y-66214450D01*
X135845100Y-66178505D01*
X135841050Y-66158530D01*
X135833801Y-66149937D01*
X135822870Y-66148139D01*
X135810712Y-66145498D01*
X135801727Y-66134912D01*
X135794826Y-66112381D01*
X135788924Y-66073909D01*
X135782935Y-66015498D01*
X135781013Y-65994104D01*
X135776852Y-65946951D01*
X137494955Y-65946951D01*
X137611577Y-65946951D01*
X137771109Y-65946951D01*
X137771109Y-65833782D01*
X137703314Y-65833782D01*
X137663662Y-65832696D01*
X137642116Y-65827454D01*
X137639480Y-65824334D01*
X137500616Y-65824334D01*
X137493308Y-65831462D01*
X137467993Y-65833662D01*
X137450908Y-65833782D01*
X137393881Y-65833782D01*
X137181221Y-65833782D01*
X135766698Y-65833782D01*
X135814542Y-65784786D01*
X135888850Y-65724324D01*
X135980816Y-65677691D01*
X136091998Y-65644249D01*
X136202471Y-65625753D01*
X136274773Y-65617122D01*
X136274773Y-65708040D01*
X136853188Y-65708040D01*
X136853188Y-65604893D01*
X136938065Y-65613496D01*
X136997368Y-65620756D01*
X137060551Y-65630379D01*
X137098386Y-65637252D01*
X137173832Y-65652407D01*
X137177526Y-65743095D01*
X137181221Y-65833782D01*
X137393881Y-65833782D01*
X137393881Y-65783485D01*
X137395544Y-65751976D01*
X137399697Y-65734463D01*
X137401371Y-65733188D01*
X137419987Y-65741254D01*
X137447183Y-65760820D01*
X137474448Y-65784944D01*
X137493267Y-65806682D01*
X137494943Y-65809508D01*
X137500616Y-65824334D01*
X137639480Y-65824334D01*
X137631662Y-65815081D01*
X137627442Y-65801604D01*
X137610219Y-65766627D01*
X137577138Y-65724579D01*
X137533893Y-65681356D01*
X137486174Y-65642854D01*
X137454830Y-65622801D01*
X137419123Y-65600851D01*
X137400819Y-65582411D01*
X137394388Y-65560668D01*
X137393894Y-65547718D01*
X137393894Y-65544575D01*
X136752594Y-65544575D01*
X136752594Y-65607446D01*
X136375367Y-65607446D01*
X136375367Y-65544575D01*
X136752594Y-65544575D01*
X137393894Y-65544575D01*
X137393881Y-65506852D01*
X137288048Y-65506852D01*
X137239355Y-65508029D01*
X137201405Y-65511165D01*
X137180308Y-65515671D01*
X137178023Y-65517495D01*
X137164641Y-65520295D01*
X137132074Y-65519148D01*
X137085916Y-65514393D01*
X137054376Y-65510003D01*
X136997188Y-65501378D01*
X136944886Y-65493591D01*
X136905582Y-65487847D01*
X136894055Y-65486215D01*
X136863937Y-65476888D01*
X136853188Y-65462272D01*
X136849920Y-65456320D01*
X136838230Y-65451778D01*
X136815288Y-65448470D01*
X136778265Y-65446215D01*
X136724332Y-65444834D01*
X136650660Y-65444150D01*
X136563980Y-65443980D01*
X136471471Y-65444077D01*
X136401094Y-65444530D01*
X136349836Y-65445590D01*
X136314680Y-65447503D01*
X136292611Y-65450519D01*
X136280615Y-65454885D01*
X136275676Y-65460849D01*
X136274773Y-65467784D01*
X136267079Y-65489795D01*
X136241879Y-65502321D01*
X136195991Y-65506788D01*
X136187736Y-65506852D01*
X136110027Y-65514868D01*
X136021767Y-65536936D01*
X135930915Y-65570084D01*
X135845430Y-65611339D01*
X135773274Y-65657731D01*
X135763928Y-65665082D01*
X135733467Y-65688998D01*
X135715428Y-65698576D01*
X135702831Y-65695480D01*
X135689900Y-65682704D01*
X135651707Y-65657678D01*
X135602002Y-65648071D01*
X135548476Y-65653067D01*
X135498822Y-65671851D01*
X135460733Y-65703606D01*
X135457975Y-65707297D01*
X135429474Y-65766575D01*
X135424172Y-65827934D01*
X135441482Y-65886427D01*
X135480820Y-65937104D01*
X135485630Y-65941289D01*
X135513560Y-65961167D01*
X135541898Y-65969921D01*
X135581737Y-65970553D01*
X135591689Y-65969992D01*
X135630668Y-65968562D01*
X135650746Y-65971839D01*
X135658015Y-65981728D01*
X135658760Y-65990961D01*
X135660284Y-66017744D01*
X135664065Y-66058025D01*
X135666782Y-66082124D01*
X135670723Y-66120401D01*
X135669084Y-66139996D01*
X135659579Y-66147158D01*
X135642649Y-66148139D01*
X135632608Y-66144901D01*
X135616410Y-66134420D01*
X135592855Y-66115548D01*
X135560743Y-66087135D01*
X135518872Y-66048035D01*
X135466043Y-65997097D01*
X135401055Y-65933173D01*
X135322709Y-65855114D01*
X135229803Y-65761772D01*
X135121137Y-65651998D01*
X135068769Y-65598952D01*
X134526951Y-65049767D01*
X134527570Y-65136848D01*
X134527570Y-65136848D01*
G37*
X134527570Y-65136848D02*
X134528189Y-65223931D01*
X134979914Y-65682891D01*
X135431639Y-66141852D01*
X135431968Y-66352471D01*
X135432297Y-66563089D01*
X135707390Y-66563089D01*
X135714478Y-66616530D01*
X135717162Y-66640888D01*
X135721687Y-66686759D01*
X135727809Y-66751405D01*
X135735288Y-66832091D01*
X135743881Y-66926081D01*
X135753346Y-67030637D01*
X135763442Y-67143025D01*
X135773926Y-67260507D01*
X135784556Y-67380348D01*
X135795091Y-67499811D01*
X135805287Y-67616159D01*
X135814905Y-67726657D01*
X135823700Y-67828569D01*
X135831432Y-67919158D01*
X135837858Y-67995687D01*
X135842737Y-68055421D01*
X135845825Y-68095624D01*
X135846883Y-68113559D01*
X135846882Y-68113644D01*
X135839173Y-68128035D01*
X135816019Y-68157748D01*
X135777105Y-68203131D01*
X135722116Y-68264529D01*
X135650736Y-68342288D01*
X135562651Y-68436754D01*
X135457546Y-68548272D01*
X135335105Y-68677188D01*
X135300690Y-68713287D01*
X134754863Y-69285416D01*
X134843119Y-69373436D01*
X134914515Y-69295758D01*
X134940634Y-69267686D01*
X134981434Y-69224274D01*
X135034223Y-69168366D01*
X135096309Y-69102808D01*
X135165000Y-69030441D01*
X135237604Y-68954112D01*
X135281040Y-68908524D01*
X135362584Y-68823119D01*
X135428496Y-68754710D01*
X135480456Y-68702053D01*
X135520145Y-68663905D01*
X135549243Y-68639020D01*
X135569431Y-68626156D01*
X135582390Y-68624068D01*
X135589800Y-68631513D01*
X135593342Y-68647246D01*
X135594697Y-68670023D01*
X135594879Y-68676239D01*
X135604297Y-68719061D01*
X135627503Y-68770819D01*
X135659864Y-68823328D01*
X135696748Y-68868403D01*
X135711507Y-68882328D01*
X135787233Y-68931047D01*
X135875692Y-68958306D01*
X135953900Y-68964773D01*
X136042532Y-68952576D01*
X136124388Y-68916813D01*
X136196836Y-68858722D01*
X136210203Y-68844262D01*
X136259082Y-68788733D01*
X137104674Y-68788733D01*
X137104674Y-68964773D01*
X137331010Y-68964773D01*
X137331010Y-68882531D01*
X137333850Y-68826386D01*
X137343393Y-68787416D01*
X137354991Y-68766219D01*
X137363277Y-68751052D01*
X137370373Y-68729062D01*
X137376748Y-68696987D01*
X137382872Y-68651569D01*
X137389216Y-68589548D01*
X137396250Y-68507662D01*
X137401066Y-68446746D01*
X137423161Y-68161343D01*
X137965565Y-68710805D01*
X138063637Y-68810228D01*
X138157784Y-68905815D01*
X138246285Y-68995810D01*
X138327420Y-69078457D01*
X138399469Y-69152001D01*
X138460712Y-69214684D01*
X138509427Y-69264752D01*
X138543896Y-69300448D01*
X138562379Y-69319995D01*
X138592743Y-69350944D01*
X138618071Y-69372530D01*
X138631695Y-69379723D01*
X138649095Y-69371297D01*
X138674460Y-69350245D01*
X138683058Y-69341671D01*
X138719514Y-69303620D01*
X138518802Y-69099658D01*
X138467596Y-69047699D01*
X138401569Y-68980820D01*
X138323618Y-68901950D01*
X138236638Y-68814014D01*
X138143526Y-68719941D01*
X138047179Y-68622658D01*
X137950492Y-68525093D01*
X137881134Y-68455145D01*
X137775703Y-68348550D01*
X137687129Y-68258307D01*
X137614281Y-68183192D01*
X137556023Y-68121986D01*
X137511225Y-68073466D01*
X137489021Y-68048129D01*
X137310724Y-68048129D01*
X137288401Y-68333555D01*
X137281669Y-68417219D01*
X137275157Y-68493727D01*
X137269234Y-68559081D01*
X137264268Y-68609281D01*
X137260629Y-68640329D01*
X137259458Y-68647273D01*
X137252838Y-68675565D01*
X136303364Y-68675565D01*
X136297026Y-68596606D01*
X136277890Y-68503315D01*
X136237846Y-68420791D01*
X136179418Y-68352038D01*
X136105129Y-68300063D01*
X136021748Y-68268863D01*
X135994698Y-68254228D01*
X135981156Y-68222819D01*
X135980872Y-68221434D01*
X135979247Y-68208174D01*
X135981256Y-68194595D01*
X135988858Y-68178181D01*
X136004016Y-68156411D01*
X136028688Y-68126767D01*
X136064836Y-68086732D01*
X136114420Y-68033785D01*
X136179401Y-67965409D01*
X136183599Y-67961005D01*
X136253493Y-67887611D01*
X136327800Y-67809437D01*
X136401414Y-67731864D01*
X136469229Y-67660275D01*
X136526140Y-67600051D01*
X136538832Y-67586587D01*
X136587487Y-67535820D01*
X136630709Y-67492375D01*
X136665395Y-67459241D01*
X136688444Y-67439405D01*
X136696182Y-67435046D01*
X136707722Y-67444170D01*
X136734710Y-67469200D01*
X136775021Y-67508052D01*
X136826529Y-67558643D01*
X136887109Y-67618888D01*
X136954636Y-67686704D01*
X137009826Y-67742565D01*
X137310724Y-68048129D01*
X137489021Y-68048129D01*
X137478751Y-68036411D01*
X137457471Y-68009599D01*
X137446251Y-67991808D01*
X137443754Y-67983570D01*
X137444700Y-67965590D01*
X137447573Y-67924892D01*
X137452187Y-67863819D01*
X137458358Y-67784713D01*
X137465898Y-67689914D01*
X137474621Y-67581767D01*
X137484343Y-67462612D01*
X137494876Y-67334791D01*
X137503365Y-67232635D01*
X137551396Y-66656674D01*
X137427805Y-66656674D01*
X137427273Y-66669104D01*
X137424769Y-66704110D01*
X137420496Y-66759215D01*
X137414653Y-66831943D01*
X137407443Y-66919814D01*
X137399066Y-67020351D01*
X137389723Y-67131077D01*
X137380758Y-67236205D01*
X137370602Y-67355483D01*
X137361142Y-67468080D01*
X137352596Y-67571305D01*
X137345179Y-67662473D01*
X137339108Y-67738895D01*
X137334601Y-67797883D01*
X137331873Y-67836749D01*
X137331116Y-67851844D01*
X137329935Y-67861238D01*
X137325256Y-67864966D01*
X137315276Y-67861471D01*
X137298190Y-67849199D01*
X137272196Y-67826594D01*
X137235490Y-67792100D01*
X137186267Y-67744162D01*
X137122726Y-67681224D01*
X137055305Y-67613968D01*
X136779601Y-67338477D01*
X136781533Y-67336406D01*
X136599290Y-67336406D01*
X136590984Y-67347780D01*
X136567733Y-67374563D01*
X136531865Y-67414292D01*
X136485713Y-67464507D01*
X136431606Y-67522746D01*
X136371874Y-67586547D01*
X136308848Y-67653449D01*
X136244858Y-67720990D01*
X136182236Y-67786710D01*
X136123310Y-67848146D01*
X136070412Y-67902837D01*
X136025872Y-67948322D01*
X135992020Y-67982138D01*
X135971188Y-68001826D01*
X135965506Y-68005837D01*
X135963634Y-67992891D01*
X135959746Y-67957134D01*
X135954057Y-67900804D01*
X135946781Y-67826140D01*
X135938131Y-67735380D01*
X135928322Y-67630762D01*
X135917566Y-67514526D01*
X135906079Y-67388908D01*
X135896907Y-67287618D01*
X135885174Y-67156279D01*
X135874335Y-67032552D01*
X135864570Y-66918681D01*
X135856063Y-66816911D01*
X135848995Y-66729487D01*
X135843549Y-66658653D01*
X135839908Y-66606653D01*
X135838253Y-66575732D01*
X135838442Y-66567703D01*
X135848334Y-66574854D01*
X135873524Y-66597841D01*
X135911810Y-66634439D01*
X135960989Y-66682422D01*
X136018861Y-66739566D01*
X136083222Y-66803647D01*
X136151871Y-66872438D01*
X136222605Y-66943716D01*
X136293222Y-67015255D01*
X136361520Y-67084830D01*
X136425296Y-67150217D01*
X136482350Y-67209191D01*
X136530478Y-67259527D01*
X136567478Y-67298999D01*
X136591148Y-67325383D01*
X136599290Y-67336406D01*
X136781533Y-67336406D01*
X136882409Y-67228295D01*
X136934768Y-67172377D01*
X136993535Y-67109948D01*
X137056385Y-67043443D01*
X137120995Y-66975298D01*
X137185042Y-66907948D01*
X137246203Y-66843828D01*
X137302153Y-66785372D01*
X137350570Y-66735018D01*
X137389130Y-66695198D01*
X137415509Y-66668350D01*
X137427384Y-66656908D01*
X137427805Y-66656674D01*
X137551396Y-66656674D01*
X137563401Y-66512726D01*
X138163938Y-65881158D01*
X138764475Y-65249589D01*
X138764034Y-65161315D01*
X138763592Y-65073040D01*
X138666583Y-65176666D01*
X138612291Y-65234463D01*
X138548192Y-65302368D01*
X138476016Y-65378572D01*
X138397492Y-65461269D01*
X138314349Y-65548653D01*
X138228319Y-65638915D01*
X138141130Y-65730250D01*
X138054513Y-65820849D01*
X137970197Y-65908907D01*
X137889912Y-65992615D01*
X137815387Y-66070167D01*
X137748354Y-66139757D01*
X137690541Y-66199576D01*
X137643679Y-66247818D01*
X137609496Y-66282676D01*
X137589724Y-66302343D01*
X137585390Y-66306116D01*
X137585092Y-66292992D01*
X137586731Y-66259389D01*
X137590023Y-66209880D01*
X137594682Y-66149037D01*
X137596682Y-66124732D01*
X137611577Y-65946951D01*
X137494955Y-65946951D01*
X137488934Y-65975243D01*
X137485863Y-65997618D01*
X137481548Y-66039717D01*
X137476488Y-66096178D01*
X137471181Y-66161635D01*
X137469344Y-66185862D01*
X137463927Y-66255421D01*
X137458459Y-66320018D01*
X137453488Y-66373548D01*
X137449561Y-66409910D01*
X137448675Y-66416509D01*
X137445334Y-66430056D01*
X137438101Y-66445914D01*
X137425440Y-66465861D01*
X137405811Y-66491673D01*
X137377678Y-66525129D01*
X137339502Y-66568007D01*
X137289746Y-66622083D01*
X137226871Y-66689136D01*
X137149341Y-66770943D01*
X137070251Y-66853950D01*
X136991564Y-66936094D01*
X136918112Y-67012169D01*
X136851724Y-67080325D01*
X136794227Y-67138712D01*
X136747451Y-67185481D01*
X136713224Y-67218782D01*
X136693373Y-67236767D01*
X136689140Y-67239442D01*
X136678003Y-67229741D01*
X136651971Y-67204441D01*
X136613570Y-67166082D01*
X136565328Y-67117200D01*
X136509770Y-67060334D01*
X136469592Y-67018906D01*
X136259831Y-66802000D01*
X136878337Y-66802000D01*
X136878337Y-66563089D01*
X136123881Y-66563089D01*
X136123881Y-66669542D01*
X135985565Y-66531654D01*
X135887447Y-66433840D01*
X135696357Y-66433840D01*
X135694529Y-66449270D01*
X135685277Y-66457867D01*
X135662950Y-66461613D01*
X135621895Y-66462489D01*
X135614624Y-66462495D01*
X135532891Y-66462495D01*
X135532891Y-66243172D01*
X135614624Y-66324179D01*
X135660730Y-66373428D01*
X135688306Y-66411159D01*
X135696357Y-66433840D01*
X135887447Y-66433840D01*
X135847248Y-66393766D01*
X135847248Y-66270952D01*
X135846863Y-66214450D01*
X135845100Y-66178505D01*
X135841050Y-66158530D01*
X135833801Y-66149937D01*
X135822870Y-66148139D01*
X135810712Y-66145498D01*
X135801727Y-66134912D01*
X135794826Y-66112381D01*
X135788924Y-66073909D01*
X135782935Y-66015498D01*
X135781013Y-65994104D01*
X135776852Y-65946951D01*
X137494955Y-65946951D01*
X137611577Y-65946951D01*
X137771109Y-65946951D01*
X137771109Y-65833782D01*
X137703314Y-65833782D01*
X137663662Y-65832696D01*
X137642116Y-65827454D01*
X137639480Y-65824334D01*
X137500616Y-65824334D01*
X137493308Y-65831462D01*
X137467993Y-65833662D01*
X137450908Y-65833782D01*
X137393881Y-65833782D01*
X137181221Y-65833782D01*
X135766698Y-65833782D01*
X135814542Y-65784786D01*
X135888850Y-65724324D01*
X135980816Y-65677691D01*
X136091998Y-65644249D01*
X136202471Y-65625753D01*
X136274773Y-65617122D01*
X136274773Y-65708040D01*
X136853188Y-65708040D01*
X136853188Y-65604893D01*
X136938065Y-65613496D01*
X136997368Y-65620756D01*
X137060551Y-65630379D01*
X137098386Y-65637252D01*
X137173832Y-65652407D01*
X137177526Y-65743095D01*
X137181221Y-65833782D01*
X137393881Y-65833782D01*
X137393881Y-65783485D01*
X137395544Y-65751976D01*
X137399697Y-65734463D01*
X137401371Y-65733188D01*
X137419987Y-65741254D01*
X137447183Y-65760820D01*
X137474448Y-65784944D01*
X137493267Y-65806682D01*
X137494943Y-65809508D01*
X137500616Y-65824334D01*
X137639480Y-65824334D01*
X137631662Y-65815081D01*
X137627442Y-65801604D01*
X137610219Y-65766627D01*
X137577138Y-65724579D01*
X137533893Y-65681356D01*
X137486174Y-65642854D01*
X137454830Y-65622801D01*
X137419123Y-65600851D01*
X137400819Y-65582411D01*
X137394388Y-65560668D01*
X137393894Y-65547718D01*
X137393894Y-65544575D01*
X136752594Y-65544575D01*
X136752594Y-65607446D01*
X136375367Y-65607446D01*
X136375367Y-65544575D01*
X136752594Y-65544575D01*
X137393894Y-65544575D01*
X137393881Y-65506852D01*
X137288048Y-65506852D01*
X137239355Y-65508029D01*
X137201405Y-65511165D01*
X137180308Y-65515671D01*
X137178023Y-65517495D01*
X137164641Y-65520295D01*
X137132074Y-65519148D01*
X137085916Y-65514393D01*
X137054376Y-65510003D01*
X136997188Y-65501378D01*
X136944886Y-65493591D01*
X136905582Y-65487847D01*
X136894055Y-65486215D01*
X136863937Y-65476888D01*
X136853188Y-65462272D01*
X136849920Y-65456320D01*
X136838230Y-65451778D01*
X136815288Y-65448470D01*
X136778265Y-65446215D01*
X136724332Y-65444834D01*
X136650660Y-65444150D01*
X136563980Y-65443980D01*
X136471471Y-65444077D01*
X136401094Y-65444530D01*
X136349836Y-65445590D01*
X136314680Y-65447503D01*
X136292611Y-65450519D01*
X136280615Y-65454885D01*
X136275676Y-65460849D01*
X136274773Y-65467784D01*
X136267079Y-65489795D01*
X136241879Y-65502321D01*
X136195991Y-65506788D01*
X136187736Y-65506852D01*
X136110027Y-65514868D01*
X136021767Y-65536936D01*
X135930915Y-65570084D01*
X135845430Y-65611339D01*
X135773274Y-65657731D01*
X135763928Y-65665082D01*
X135733467Y-65688998D01*
X135715428Y-65698576D01*
X135702831Y-65695480D01*
X135689900Y-65682704D01*
X135651707Y-65657678D01*
X135602002Y-65648071D01*
X135548476Y-65653067D01*
X135498822Y-65671851D01*
X135460733Y-65703606D01*
X135457975Y-65707297D01*
X135429474Y-65766575D01*
X135424172Y-65827934D01*
X135441482Y-65886427D01*
X135480820Y-65937104D01*
X135485630Y-65941289D01*
X135513560Y-65961167D01*
X135541898Y-65969921D01*
X135581737Y-65970553D01*
X135591689Y-65969992D01*
X135630668Y-65968562D01*
X135650746Y-65971839D01*
X135658015Y-65981728D01*
X135658760Y-65990961D01*
X135660284Y-66017744D01*
X135664065Y-66058025D01*
X135666782Y-66082124D01*
X135670723Y-66120401D01*
X135669084Y-66139996D01*
X135659579Y-66147158D01*
X135642649Y-66148139D01*
X135632608Y-66144901D01*
X135616410Y-66134420D01*
X135592855Y-66115548D01*
X135560743Y-66087135D01*
X135518872Y-66048035D01*
X135466043Y-65997097D01*
X135401055Y-65933173D01*
X135322709Y-65855114D01*
X135229803Y-65761772D01*
X135121137Y-65651998D01*
X135068769Y-65598952D01*
X134526951Y-65049767D01*
X134527570Y-65136848D01*
D14*
X153074666Y-74398143D02*
X153122285Y-74445762D01*
X153265142Y-74493381D01*
X153360380Y-74493381D01*
X153503238Y-74445762D01*
X153598476Y-74350524D01*
X153646095Y-74255286D01*
X153693714Y-74064810D01*
X153693714Y-73921952D01*
X153646095Y-73731476D01*
X153598476Y-73636238D01*
X153503238Y-73541000D01*
X153360380Y-73493381D01*
X153265142Y-73493381D01*
X153122285Y-73541000D01*
X153074666Y-73588619D01*
X152122285Y-74493381D02*
X152693714Y-74493381D01*
X152408000Y-74493381D02*
X152408000Y-73493381D01*
X152503238Y-73636238D01*
X152598476Y-73731476D01*
X152693714Y-73779095D01*
X154850952Y-74023429D02*
X154089047Y-74023429D01*
X154469999Y-74404381D02*
X154469999Y-73642476D01*
X158726666Y-83895143D02*
X158774285Y-83942762D01*
X158917142Y-83990381D01*
X159012380Y-83990381D01*
X159155238Y-83942762D01*
X159250476Y-83847524D01*
X159298095Y-83752286D01*
X159345714Y-83561810D01*
X159345714Y-83418952D01*
X159298095Y-83228476D01*
X159250476Y-83133238D01*
X159155238Y-83038000D01*
X159012380Y-82990381D01*
X158917142Y-82990381D01*
X158774285Y-83038000D01*
X158726666Y-83085619D01*
X158345714Y-83085619D02*
X158298095Y-83038000D01*
X158202857Y-82990381D01*
X157964761Y-82990381D01*
X157869523Y-83038000D01*
X157821904Y-83085619D01*
X157774285Y-83180857D01*
X157774285Y-83276095D01*
X157821904Y-83418952D01*
X158393333Y-83990381D01*
X157774285Y-83990381D01*
X142533666Y-74398143D02*
X142581285Y-74445762D01*
X142724142Y-74493381D01*
X142819380Y-74493381D01*
X142962238Y-74445762D01*
X143057476Y-74350524D01*
X143105095Y-74255286D01*
X143152714Y-74064810D01*
X143152714Y-73921952D01*
X143105095Y-73731476D01*
X143057476Y-73636238D01*
X142962238Y-73541000D01*
X142819380Y-73493381D01*
X142724142Y-73493381D01*
X142581285Y-73541000D01*
X142533666Y-73588619D01*
X142200333Y-73493381D02*
X141581285Y-73493381D01*
X141914619Y-73874333D01*
X141771761Y-73874333D01*
X141676523Y-73921952D01*
X141628904Y-73969571D01*
X141581285Y-74064810D01*
X141581285Y-74302905D01*
X141628904Y-74398143D01*
X141676523Y-74445762D01*
X141771761Y-74493381D01*
X142057476Y-74493381D01*
X142152714Y-74445762D01*
X142200333Y-74398143D01*
X144436952Y-74023429D02*
X143675047Y-74023429D01*
X144055999Y-74404381D02*
X144055999Y-73642476D01*
X148121666Y-83895143D02*
X148169285Y-83942762D01*
X148312142Y-83990381D01*
X148407380Y-83990381D01*
X148550238Y-83942762D01*
X148645476Y-83847524D01*
X148693095Y-83752286D01*
X148740714Y-83561810D01*
X148740714Y-83418952D01*
X148693095Y-83228476D01*
X148645476Y-83133238D01*
X148550238Y-83038000D01*
X148407380Y-82990381D01*
X148312142Y-82990381D01*
X148169285Y-83038000D01*
X148121666Y-83085619D01*
X147264523Y-83323714D02*
X147264523Y-83990381D01*
X147502619Y-82942762D02*
X147740714Y-83657048D01*
X147121666Y-83657048D01*
D16*
X123114571Y-67210857D02*
X123138381Y-67187047D01*
X123162190Y-67115619D01*
X123162190Y-67068000D01*
X123138381Y-66996571D01*
X123090762Y-66948952D01*
X123043143Y-66925143D01*
X122947905Y-66901333D01*
X122876476Y-66901333D01*
X122781238Y-66925143D01*
X122733619Y-66948952D01*
X122686000Y-66996571D01*
X122662190Y-67068000D01*
X122662190Y-67115619D01*
X122686000Y-67187047D01*
X122709810Y-67210857D01*
X122662190Y-67520381D02*
X122662190Y-67615619D01*
X122686000Y-67663238D01*
X122733619Y-67710857D01*
X122828857Y-67734666D01*
X122995524Y-67734666D01*
X123090762Y-67710857D01*
X123138381Y-67663238D01*
X123162190Y-67615619D01*
X123162190Y-67520381D01*
X123138381Y-67472762D01*
X123090762Y-67425143D01*
X122995524Y-67401333D01*
X122828857Y-67401333D01*
X122733619Y-67425143D01*
X122686000Y-67472762D01*
X122662190Y-67520381D01*
X123162190Y-67948953D02*
X122662190Y-67948953D01*
X123162190Y-68234667D01*
X122662190Y-68234667D01*
X123162190Y-68734667D02*
X123162190Y-68448953D01*
X123162190Y-68591810D02*
X122662190Y-68591810D01*
X122733619Y-68544191D01*
X122781238Y-68496572D01*
X122805048Y-68448953D01*
D14*
X124785381Y-65071976D02*
X123785381Y-65071976D01*
X123785381Y-65310071D01*
X123833000Y-65452929D01*
X123928238Y-65548167D01*
X124023476Y-65595786D01*
X124213952Y-65643405D01*
X124356810Y-65643405D01*
X124547286Y-65595786D01*
X124642524Y-65548167D01*
X124737762Y-65452929D01*
X124785381Y-65310071D01*
X124785381Y-65071976D01*
X124690143Y-66643405D02*
X124737762Y-66595786D01*
X124785381Y-66452929D01*
X124785381Y-66357691D01*
X124737762Y-66214833D01*
X124642524Y-66119595D01*
X124547286Y-66071976D01*
X124356810Y-66024357D01*
X124213952Y-66024357D01*
X124023476Y-66071976D01*
X123928238Y-66119595D01*
X123833000Y-66214833D01*
X123785381Y-66357691D01*
X123785381Y-66452929D01*
X123833000Y-66595786D01*
X123880619Y-66643405D01*
X124404429Y-67071976D02*
X124404429Y-67833881D01*
X123785381Y-68500547D02*
X123785381Y-68595786D01*
X123833000Y-68691024D01*
X123880619Y-68738643D01*
X123975857Y-68786262D01*
X124166333Y-68833881D01*
X124404429Y-68833881D01*
X124594905Y-68786262D01*
X124690143Y-68738643D01*
X124737762Y-68691024D01*
X124785381Y-68595786D01*
X124785381Y-68500547D01*
X124737762Y-68405309D01*
X124690143Y-68357690D01*
X124594905Y-68310071D01*
X124404429Y-68262452D01*
X124166333Y-68262452D01*
X123975857Y-68310071D01*
X123880619Y-68357690D01*
X123833000Y-68405309D01*
X123785381Y-68500547D01*
X123785381Y-69452928D02*
X123785381Y-69548167D01*
X123833000Y-69643405D01*
X123880619Y-69691024D01*
X123975857Y-69738643D01*
X124166333Y-69786262D01*
X124404429Y-69786262D01*
X124594905Y-69738643D01*
X124690143Y-69691024D01*
X124737762Y-69643405D01*
X124785381Y-69548167D01*
X124785381Y-69452928D01*
X124737762Y-69357690D01*
X124690143Y-69310071D01*
X124594905Y-69262452D01*
X124404429Y-69214833D01*
X124166333Y-69214833D01*
X123975857Y-69262452D01*
X123880619Y-69310071D01*
X123833000Y-69357690D01*
X123785381Y-69452928D01*
X123785381Y-70691024D02*
X123785381Y-70214833D01*
X124261571Y-70167214D01*
X124213952Y-70214833D01*
X124166333Y-70310071D01*
X124166333Y-70548167D01*
X124213952Y-70643405D01*
X124261571Y-70691024D01*
X124356810Y-70738643D01*
X124594905Y-70738643D01*
X124690143Y-70691024D01*
X124737762Y-70643405D01*
X124785381Y-70548167D01*
X124785381Y-70310071D01*
X124737762Y-70214833D01*
X124690143Y-70167214D01*
X143168095Y-94948881D02*
X143168095Y-93948881D01*
X142930000Y-93948881D01*
X142787142Y-93996500D01*
X142691904Y-94091738D01*
X142644285Y-94186976D01*
X142596666Y-94377452D01*
X142596666Y-94520310D01*
X142644285Y-94710786D01*
X142691904Y-94806024D01*
X142787142Y-94901262D01*
X142930000Y-94948881D01*
X143168095Y-94948881D01*
X142263333Y-93948881D02*
X141644285Y-93948881D01*
X141977619Y-94329833D01*
X141834761Y-94329833D01*
X141739523Y-94377452D01*
X141691904Y-94425071D01*
X141644285Y-94520310D01*
X141644285Y-94758405D01*
X141691904Y-94853643D01*
X141739523Y-94901262D01*
X141834761Y-94948881D01*
X142120476Y-94948881D01*
X142215714Y-94901262D01*
X142263333Y-94853643D01*
X144406191Y-91198881D02*
X144406191Y-90198881D01*
X144025238Y-90198881D01*
X143930000Y-90246500D01*
X143882381Y-90294119D01*
X143834762Y-90389357D01*
X143834762Y-90532214D01*
X143882381Y-90627452D01*
X143930000Y-90675071D01*
X144025238Y-90722690D01*
X144406191Y-90722690D01*
X143263334Y-91198881D02*
X143358572Y-91151262D01*
X143406191Y-91103643D01*
X143453810Y-91008405D01*
X143453810Y-90722690D01*
X143406191Y-90627452D01*
X143358572Y-90579833D01*
X143263334Y-90532214D01*
X143120476Y-90532214D01*
X143025238Y-90579833D01*
X142977619Y-90627452D01*
X142930000Y-90722690D01*
X142930000Y-91008405D01*
X142977619Y-91103643D01*
X143025238Y-91151262D01*
X143120476Y-91198881D01*
X143263334Y-91198881D01*
X142596667Y-90532214D02*
X142406191Y-91198881D01*
X142215714Y-90722690D01*
X142025238Y-91198881D01*
X141834762Y-90532214D01*
X141072857Y-91151262D02*
X141168095Y-91198881D01*
X141358572Y-91198881D01*
X141453810Y-91151262D01*
X141501429Y-91056024D01*
X141501429Y-90675071D01*
X141453810Y-90579833D01*
X141358572Y-90532214D01*
X141168095Y-90532214D01*
X141072857Y-90579833D01*
X141025238Y-90675071D01*
X141025238Y-90770310D01*
X141501429Y-90865548D01*
X140596667Y-91198881D02*
X140596667Y-90532214D01*
X140596667Y-90722690D02*
X140549048Y-90627452D01*
X140501429Y-90579833D01*
X140406191Y-90532214D01*
X140310952Y-90532214D01*
X150026095Y-94948881D02*
X150026095Y-93948881D01*
X149788000Y-93948881D01*
X149645142Y-93996500D01*
X149549904Y-94091738D01*
X149502285Y-94186976D01*
X149454666Y-94377452D01*
X149454666Y-94520310D01*
X149502285Y-94710786D01*
X149549904Y-94806024D01*
X149645142Y-94901262D01*
X149788000Y-94948881D01*
X150026095Y-94948881D01*
X148597523Y-94282214D02*
X148597523Y-94948881D01*
X148835619Y-93901262D02*
X149073714Y-94615548D01*
X148454666Y-94615548D01*
X151526095Y-91198881D02*
X151526095Y-90198881D01*
X151145142Y-90198881D01*
X151049904Y-90246500D01*
X151002285Y-90294119D01*
X150954666Y-90389357D01*
X150954666Y-90532214D01*
X151002285Y-90627452D01*
X151049904Y-90675071D01*
X151145142Y-90722690D01*
X151526095Y-90722690D01*
X150526095Y-91198881D02*
X150526095Y-90532214D01*
X150526095Y-90198881D02*
X150573714Y-90246500D01*
X150526095Y-90294119D01*
X150478476Y-90246500D01*
X150526095Y-90198881D01*
X150526095Y-90294119D01*
X149621333Y-91151262D02*
X149716571Y-91198881D01*
X149907048Y-91198881D01*
X150002286Y-91151262D01*
X150049905Y-91103643D01*
X150097524Y-91008405D01*
X150097524Y-90722690D01*
X150049905Y-90627452D01*
X150002286Y-90579833D01*
X149907048Y-90532214D01*
X149716571Y-90532214D01*
X149621333Y-90579833D01*
X149192762Y-91198881D02*
X149192762Y-90198881D01*
X149097524Y-90817929D02*
X148811809Y-91198881D01*
X148811809Y-90532214D02*
X149192762Y-90913167D01*
X147954666Y-90532214D02*
X147954666Y-91198881D01*
X148383238Y-90532214D02*
X148383238Y-91056024D01*
X148335619Y-91151262D01*
X148240381Y-91198881D01*
X148097523Y-91198881D01*
X148002285Y-91151262D01*
X147954666Y-91103643D01*
X147478476Y-90532214D02*
X147478476Y-91532214D01*
X147478476Y-90579833D02*
X147383238Y-90532214D01*
X147192761Y-90532214D01*
X147097523Y-90579833D01*
X147049904Y-90627452D01*
X147002285Y-90722690D01*
X147002285Y-91008405D01*
X147049904Y-91103643D01*
X147097523Y-91151262D01*
X147192761Y-91198881D01*
X147383238Y-91198881D01*
X147478476Y-91151262D01*
X123269333Y-81843571D02*
X123602667Y-81843571D01*
X123602667Y-82367381D02*
X123602667Y-81367381D01*
X123126476Y-81367381D01*
X122221714Y-82367381D02*
X122793143Y-82367381D01*
X122507429Y-82367381D02*
X122507429Y-81367381D01*
X122602667Y-81510238D01*
X122697905Y-81605476D01*
X122793143Y-81653095D01*
X123269333Y-83367571D02*
X123602667Y-83367571D01*
X123602667Y-83891381D02*
X123602667Y-82891381D01*
X123126476Y-82891381D01*
X122793143Y-82986619D02*
X122745524Y-82939000D01*
X122650286Y-82891381D01*
X122412190Y-82891381D01*
X122316952Y-82939000D01*
X122269333Y-82986619D01*
X122221714Y-83081857D01*
X122221714Y-83177095D01*
X122269333Y-83319952D01*
X122840762Y-83891381D01*
X122221714Y-83891381D01*
X176355333Y-97464571D02*
X176688667Y-97464571D01*
X176688667Y-97988381D02*
X176688667Y-96988381D01*
X176212476Y-96988381D01*
X175926762Y-96988381D02*
X175307714Y-96988381D01*
X175641048Y-97369333D01*
X175498190Y-97369333D01*
X175402952Y-97416952D01*
X175355333Y-97464571D01*
X175307714Y-97559810D01*
X175307714Y-97797905D01*
X175355333Y-97893143D01*
X175402952Y-97940762D01*
X175498190Y-97988381D01*
X175783905Y-97988381D01*
X175879143Y-97940762D01*
X175926762Y-97893143D01*
X123142333Y-75112571D02*
X123475667Y-75112571D01*
X123475667Y-75636381D02*
X123475667Y-74636381D01*
X122999476Y-74636381D01*
X122189952Y-74969714D02*
X122189952Y-75636381D01*
X122428048Y-74588762D02*
X122666143Y-75303048D01*
X122047095Y-75303048D01*
X123142333Y-76763571D02*
X123475667Y-76763571D01*
X123475667Y-77287381D02*
X123475667Y-76287381D01*
X122999476Y-76287381D01*
X122142333Y-76287381D02*
X122618524Y-76287381D01*
X122666143Y-76763571D01*
X122618524Y-76715952D01*
X122523286Y-76668333D01*
X122285190Y-76668333D01*
X122189952Y-76715952D01*
X122142333Y-76763571D01*
X122094714Y-76858810D01*
X122094714Y-77096905D01*
X122142333Y-77192143D01*
X122189952Y-77239762D01*
X122285190Y-77287381D01*
X122523286Y-77287381D01*
X122618524Y-77239762D01*
X122666143Y-77192143D01*
X195492095Y-99766381D02*
X195492095Y-98766381D01*
X195111142Y-98766381D01*
X195015904Y-98814000D01*
X194968285Y-98861619D01*
X194920666Y-98956857D01*
X194920666Y-99099714D01*
X194968285Y-99194952D01*
X195015904Y-99242571D01*
X195111142Y-99290190D01*
X195492095Y-99290190D01*
X193968285Y-99766381D02*
X194539714Y-99766381D01*
X194254000Y-99766381D02*
X194254000Y-98766381D01*
X194349238Y-98909238D01*
X194444476Y-99004476D01*
X194539714Y-99052095D01*
X195556095Y-109545381D02*
X195556095Y-108545381D01*
X195175142Y-108545381D01*
X195079904Y-108593000D01*
X195032285Y-108640619D01*
X194984666Y-108735857D01*
X194984666Y-108878714D01*
X195032285Y-108973952D01*
X195079904Y-109021571D01*
X195175142Y-109069190D01*
X195556095Y-109069190D01*
X194603714Y-108640619D02*
X194556095Y-108593000D01*
X194460857Y-108545381D01*
X194222761Y-108545381D01*
X194127523Y-108593000D01*
X194079904Y-108640619D01*
X194032285Y-108735857D01*
X194032285Y-108831095D01*
X194079904Y-108973952D01*
X194651333Y-109545381D01*
X194032285Y-109545381D01*
X161234381Y-63777905D02*
X160234381Y-63777905D01*
X160234381Y-64158858D01*
X160282000Y-64254096D01*
X160329619Y-64301715D01*
X160424857Y-64349334D01*
X160567714Y-64349334D01*
X160662952Y-64301715D01*
X160710571Y-64254096D01*
X160758190Y-64158858D01*
X160758190Y-63777905D01*
X160234381Y-64682667D02*
X160234381Y-65301715D01*
X160615333Y-64968381D01*
X160615333Y-65111239D01*
X160662952Y-65206477D01*
X160710571Y-65254096D01*
X160805810Y-65301715D01*
X161043905Y-65301715D01*
X161139143Y-65254096D01*
X161186762Y-65206477D01*
X161234381Y-65111239D01*
X161234381Y-64825524D01*
X161186762Y-64730286D01*
X161139143Y-64682667D01*
X153360381Y-63777905D02*
X152360381Y-63777905D01*
X152360381Y-64158858D01*
X152408000Y-64254096D01*
X152455619Y-64301715D01*
X152550857Y-64349334D01*
X152693714Y-64349334D01*
X152788952Y-64301715D01*
X152836571Y-64254096D01*
X152884190Y-64158858D01*
X152884190Y-63777905D01*
X152693714Y-65206477D02*
X153360381Y-65206477D01*
X152312762Y-64968381D02*
X153027048Y-64730286D01*
X153027048Y-65349334D01*
X156495666Y-95200381D02*
X156829000Y-94724190D01*
X157067095Y-95200381D02*
X157067095Y-94200381D01*
X156686142Y-94200381D01*
X156590904Y-94248000D01*
X156543285Y-94295619D01*
X156495666Y-94390857D01*
X156495666Y-94533714D01*
X156543285Y-94628952D01*
X156590904Y-94676571D01*
X156686142Y-94724190D01*
X157067095Y-94724190D01*
X156067095Y-95200381D02*
X156067095Y-94200381D01*
X155686142Y-94200381D01*
X155590904Y-94248000D01*
X155543285Y-94295619D01*
X155495666Y-94390857D01*
X155495666Y-94533714D01*
X155543285Y-94628952D01*
X155590904Y-94676571D01*
X155686142Y-94724190D01*
X156067095Y-94724190D01*
X154543285Y-95200381D02*
X155114714Y-95200381D01*
X154829000Y-95200381D02*
X154829000Y-94200381D01*
X154924238Y-94343238D01*
X155019476Y-94438476D01*
X155114714Y-94486095D01*
X170632381Y-75660334D02*
X170156190Y-75327000D01*
X170632381Y-75088905D02*
X169632381Y-75088905D01*
X169632381Y-75469858D01*
X169680000Y-75565096D01*
X169727619Y-75612715D01*
X169822857Y-75660334D01*
X169965714Y-75660334D01*
X170060952Y-75612715D01*
X170108571Y-75565096D01*
X170156190Y-75469858D01*
X170156190Y-75088905D01*
X170632381Y-76088905D02*
X169632381Y-76088905D01*
X169632381Y-76469858D01*
X169680000Y-76565096D01*
X169727619Y-76612715D01*
X169822857Y-76660334D01*
X169965714Y-76660334D01*
X170060952Y-76612715D01*
X170108571Y-76565096D01*
X170156190Y-76469858D01*
X170156190Y-76088905D01*
X169727619Y-77041286D02*
X169680000Y-77088905D01*
X169632381Y-77184143D01*
X169632381Y-77422239D01*
X169680000Y-77517477D01*
X169727619Y-77565096D01*
X169822857Y-77612715D01*
X169918095Y-77612715D01*
X170060952Y-77565096D01*
X170632381Y-76993667D01*
X170632381Y-77612715D01*
X170853714Y-107618381D02*
X170282285Y-107618381D01*
X170568000Y-108618381D02*
X170568000Y-107618381D01*
X169948952Y-108618381D02*
X169948952Y-107618381D01*
X169948952Y-108094571D02*
X169377523Y-108094571D01*
X169377523Y-108618381D02*
X169377523Y-107618381D01*
X168377523Y-108618381D02*
X168948952Y-108618381D01*
X168663238Y-108618381D02*
X168663238Y-107618381D01*
X168758476Y-107761238D01*
X168853714Y-107856476D01*
X168948952Y-107904095D01*
X139191905Y-82755881D02*
X139191905Y-83565405D01*
X139144286Y-83660643D01*
X139096667Y-83708262D01*
X139001429Y-83755881D01*
X138810952Y-83755881D01*
X138715714Y-83708262D01*
X138668095Y-83660643D01*
X138620476Y-83565405D01*
X138620476Y-82755881D01*
X138191905Y-82851119D02*
X138144286Y-82803500D01*
X138049048Y-82755881D01*
X137810952Y-82755881D01*
X137715714Y-82803500D01*
X137668095Y-82851119D01*
X137620476Y-82946357D01*
X137620476Y-83041595D01*
X137668095Y-83184452D01*
X138239524Y-83755881D01*
X137620476Y-83755881D01*
X195198905Y-86828381D02*
X195198905Y-87637905D01*
X195151286Y-87733143D01*
X195103667Y-87780762D01*
X195008429Y-87828381D01*
X194817952Y-87828381D01*
X194722714Y-87780762D01*
X194675095Y-87733143D01*
X194627476Y-87637905D01*
X194627476Y-86828381D01*
X193675095Y-86828381D02*
X194151286Y-86828381D01*
X194198905Y-87304571D01*
X194151286Y-87256952D01*
X194056048Y-87209333D01*
X193817952Y-87209333D01*
X193722714Y-87256952D01*
X193675095Y-87304571D01*
X193627476Y-87399810D01*
X193627476Y-87637905D01*
X193675095Y-87733143D01*
X193722714Y-87780762D01*
X193817952Y-87828381D01*
X194056048Y-87828381D01*
X194151286Y-87780762D01*
X194198905Y-87733143D01*
X186094524Y-108545381D02*
X185761191Y-109545381D01*
X185427857Y-108545381D01*
X184523095Y-109545381D02*
X184856429Y-109069190D01*
X185094524Y-109545381D02*
X185094524Y-108545381D01*
X184713571Y-108545381D01*
X184618333Y-108593000D01*
X184570714Y-108640619D01*
X184523095Y-108735857D01*
X184523095Y-108878714D01*
X184570714Y-108973952D01*
X184618333Y-109021571D01*
X184713571Y-109069190D01*
X185094524Y-109069190D01*
X183570714Y-109545381D02*
X184142143Y-109545381D01*
X183856429Y-109545381D02*
X183856429Y-108545381D01*
X183951667Y-108688238D01*
X184046905Y-108783476D01*
X184142143Y-108831095D01*
D17*
X167658952Y-62591905D02*
X167658952Y-61791905D01*
X166820857Y-62515714D02*
X166858952Y-62553810D01*
X166973238Y-62591905D01*
X167049428Y-62591905D01*
X167163714Y-62553810D01*
X167239905Y-62477619D01*
X167278000Y-62401429D01*
X167316095Y-62249048D01*
X167316095Y-62134762D01*
X167278000Y-61982381D01*
X167239905Y-61906190D01*
X167163714Y-61830000D01*
X167049428Y-61791905D01*
X166973238Y-61791905D01*
X166858952Y-61830000D01*
X166820857Y-61868095D01*
X166058952Y-62591905D02*
X166516095Y-62591905D01*
X166287524Y-62591905D02*
X166287524Y-61791905D01*
X166363714Y-61906190D01*
X166439905Y-61982381D01*
X166516095Y-62020476D01*
D14*
X143509905Y-106132381D02*
X143509905Y-106941905D01*
X143462286Y-107037143D01*
X143414667Y-107084762D01*
X143319429Y-107132381D01*
X143128952Y-107132381D01*
X143033714Y-107084762D01*
X142986095Y-107037143D01*
X142938476Y-106941905D01*
X142938476Y-106132381D01*
X142557524Y-106132381D02*
X141938476Y-106132381D01*
X142271810Y-106513333D01*
X142128952Y-106513333D01*
X142033714Y-106560952D01*
X141986095Y-106608571D01*
X141938476Y-106703810D01*
X141938476Y-106941905D01*
X141986095Y-107037143D01*
X142033714Y-107084762D01*
X142128952Y-107132381D01*
X142414667Y-107132381D01*
X142509905Y-107084762D01*
X142557524Y-107037143D01*
X153193714Y-104592381D02*
X153193714Y-103592381D01*
X152622285Y-104592381D01*
X152622285Y-103592381D01*
X152598476Y-109672381D02*
X153074667Y-109672381D01*
X153074667Y-108672381D01*
X130428952Y-99131429D02*
X129667047Y-99131429D01*
X130428952Y-114371429D02*
X129667047Y-114371429D01*
X130047999Y-114752381D02*
X130047999Y-113990476D01*
X144756095Y-61412381D02*
X144756095Y-60412381D01*
X144375142Y-60412381D01*
X144279904Y-60460000D01*
X144232285Y-60507619D01*
X144184666Y-60602857D01*
X144184666Y-60745714D01*
X144232285Y-60840952D01*
X144279904Y-60888571D01*
X144375142Y-60936190D01*
X144756095Y-60936190D01*
X143851333Y-60412381D02*
X143184666Y-60412381D01*
X143613238Y-61412381D01*
M02*
