G04 #@! TF.FileFunction,Soldermask,Top*
%FSLAX46Y46*%
G04 Gerber Fmt 4.6, Leading zero omitted, Abs format (unit mm)*
G04 Created by KiCad (PCBNEW 4.0.4-stable) date 07/15/18 19:45:34*
%MOMM*%
%LPD*%
G01*
G04 APERTURE LIST*
%ADD10C,0.100000*%
%ADD11C,3.600000*%
%ADD12O,1.924000X2.924000*%
%ADD13O,5.400000X2.700000*%
%ADD14R,2.700000X4.900000*%
%ADD15O,4.900000X2.700000*%
%ADD16R,3.900000X3.100000*%
%ADD17C,2.400000*%
%ADD18C,2.750000*%
%ADD19C,2.650000*%
%ADD20R,2.100000X2.100000*%
%ADD21O,2.100000X2.100000*%
%ADD22R,1.200000X0.900000*%
%ADD23R,1.200000X0.800000*%
%ADD24C,2.000000*%
%ADD25C,2.500000*%
%ADD26O,1.901140X2.599640*%
%ADD27O,2.599640X1.901140*%
%ADD28C,2.150000*%
%ADD29R,1.200000X1.300000*%
%ADD30R,1.300000X1.200000*%
%ADD31R,0.900000X1.200000*%
%ADD32R,0.800000X1.200000*%
%ADD33C,1.800000*%
G04 APERTURE END LIST*
D10*
D11*
X196723000Y-60071000D03*
X180848000Y-91948000D03*
X136652000Y-60071000D03*
D12*
X139700000Y-86296500D03*
X142240000Y-86296500D03*
X144780000Y-86296500D03*
X147320000Y-86296500D03*
X149860000Y-86296500D03*
X149860000Y-71056500D03*
X147320000Y-71056500D03*
X144780000Y-71056500D03*
X142240000Y-71056500D03*
X139700000Y-71056500D03*
X152400000Y-86296500D03*
X154940000Y-86296500D03*
X157480000Y-86296500D03*
X160020000Y-86296500D03*
X162560000Y-86296500D03*
X162560000Y-71056500D03*
X160020000Y-71056500D03*
X157480000Y-71056500D03*
X154940000Y-71056500D03*
X152400000Y-71056500D03*
X165100000Y-86296500D03*
X167640000Y-86296500D03*
X170180000Y-86296500D03*
X172720000Y-86296500D03*
X175260000Y-86296500D03*
X175260000Y-71056500D03*
X172720000Y-71056500D03*
X170180000Y-71056500D03*
X167640000Y-71056500D03*
X165100000Y-71056500D03*
X177800000Y-86296500D03*
X180340000Y-86296500D03*
X182880000Y-86296500D03*
X185420000Y-86296500D03*
X187960000Y-86296500D03*
X187960000Y-71056500D03*
X185420000Y-71056500D03*
X182880000Y-71056500D03*
X180340000Y-71056500D03*
X177800000Y-71056500D03*
D13*
X128143000Y-71221500D03*
D14*
X132943000Y-68721500D03*
D15*
X128143000Y-65221500D03*
D16*
X124552000Y-86233000D03*
X131352000Y-86233000D03*
X124680000Y-79692500D03*
X131480000Y-79692500D03*
D17*
X125730000Y-82994500D03*
X130810000Y-82984500D03*
D18*
X171055000Y-101854000D03*
X166055000Y-101854000D03*
X181055000Y-101854000D03*
X186055000Y-101854000D03*
D17*
X125730000Y-76390500D03*
X130810000Y-76380500D03*
X197214000Y-101854000D03*
D19*
X192294000Y-101854000D03*
D17*
X197278000Y-111633000D03*
D19*
X192358000Y-111633000D03*
D20*
X158496000Y-65913000D03*
D21*
X158496000Y-63373000D03*
D20*
X150622000Y-65913000D03*
D21*
X150622000Y-63373000D03*
D22*
X165492000Y-66986000D03*
D23*
X165492000Y-65386000D03*
X165492000Y-66186000D03*
D22*
X165492000Y-64586000D03*
D23*
X163692000Y-66186000D03*
D22*
X163692000Y-66986000D03*
D23*
X163692000Y-65386000D03*
D22*
X163692000Y-64586000D03*
X170445000Y-66097000D03*
D23*
X170445000Y-64497000D03*
X170445000Y-65297000D03*
D22*
X170445000Y-63697000D03*
D23*
X168645000Y-65297000D03*
D22*
X168645000Y-66097000D03*
D23*
X168645000Y-64497000D03*
D22*
X168645000Y-63697000D03*
D24*
X167068000Y-112966000D03*
X172068000Y-110466000D03*
D25*
X179705000Y-111633000D03*
X187325000Y-111633000D03*
D26*
X174498000Y-64770000D03*
X177038000Y-64770000D03*
X179578000Y-64770000D03*
X182118000Y-64770000D03*
X184658000Y-64770000D03*
X187198000Y-64770000D03*
X189738000Y-64770000D03*
X174498000Y-80010000D03*
X169418000Y-80010000D03*
X166878000Y-80010000D03*
X178308000Y-77470000D03*
X175768000Y-77470000D03*
D27*
X194818000Y-77470000D03*
X194818000Y-74930000D03*
X194818000Y-72390000D03*
D28*
X127508000Y-99060000D03*
X127508000Y-114300000D03*
X155448000Y-104140000D03*
X155448000Y-109220000D03*
D20*
X146177000Y-63373000D03*
D21*
X143637000Y-63373000D03*
X141097000Y-63373000D03*
D29*
X181798000Y-59579000D03*
X179898000Y-59579000D03*
X180848000Y-61579000D03*
X165293000Y-61579000D03*
X167193000Y-61579000D03*
X166243000Y-59579000D03*
X185354000Y-59579000D03*
X183454000Y-59579000D03*
X184404000Y-61579000D03*
X168976000Y-61579000D03*
X170876000Y-61579000D03*
X169926000Y-59579000D03*
X188910000Y-59579000D03*
X187010000Y-59579000D03*
X187960000Y-61579000D03*
X172659000Y-61579000D03*
X174559000Y-61579000D03*
X173609000Y-59579000D03*
X192466000Y-59579000D03*
X190566000Y-59579000D03*
X191516000Y-61579000D03*
X176215000Y-61579000D03*
X178115000Y-61579000D03*
X177165000Y-59579000D03*
D30*
X197120000Y-78806000D03*
X197120000Y-80706000D03*
X199120000Y-79756000D03*
X197120000Y-75123000D03*
X197120000Y-77023000D03*
X199120000Y-76073000D03*
X197120000Y-71440000D03*
X197120000Y-73340000D03*
X199120000Y-72390000D03*
X197120000Y-67757000D03*
X197120000Y-69657000D03*
X199120000Y-68707000D03*
D31*
X193364000Y-88911000D03*
D32*
X194964000Y-88911000D03*
X194164000Y-88911000D03*
D31*
X195764000Y-88911000D03*
D32*
X194164000Y-87111000D03*
D31*
X193364000Y-87111000D03*
D32*
X194964000Y-87111000D03*
D31*
X195764000Y-87111000D03*
D22*
X185790000Y-89478000D03*
D23*
X185790000Y-91078000D03*
X185790000Y-90278000D03*
D22*
X185790000Y-91878000D03*
D23*
X187590000Y-90278000D03*
D22*
X187590000Y-89478000D03*
D23*
X187590000Y-91078000D03*
D22*
X187590000Y-91878000D03*
D31*
X191840000Y-69353000D03*
D32*
X193440000Y-69353000D03*
X192640000Y-69353000D03*
D31*
X194240000Y-69353000D03*
D32*
X192640000Y-67553000D03*
D31*
X191840000Y-67553000D03*
D32*
X193440000Y-67553000D03*
D31*
X194240000Y-67553000D03*
D33*
X185293000Y-93853000D03*
X187833000Y-93853000D03*
X190119000Y-69850000D03*
X190119000Y-67310000D03*
X170688000Y-67818000D03*
X168148000Y-67818000D03*
D11*
X125730000Y-92202000D03*
M02*
