M48
;DRILL file {KiCad 4.0.4-stable} date 07/15/18 19:45:36
;FORMAT={-:-/ absolute / metric / decimal}
FMAT,2
METRIC,TZ
T1C0.400
T2C0.600
T3C0.800
T4C0.800
T5C0.813
T6C1.000
T7C1.250
T8C1.350
%
G90
G05
M71
T1
X127.762Y-81.026
X131.445Y-77.978
X131.6Y-99.06
X133.35Y-73.533
X133.35Y-74.803
X134.366Y-83.82
X135.509Y-73.533
X135.636Y-74.803
X135.89Y-83.82
X136.779Y-89.408
X136.794Y-81.253
X136.794Y-86.233
X137.541Y-83.82
X137.541Y-90.551
X137.541Y-92.456
X137.668Y-73.533
X137.668Y-74.803
X138.43Y-75.946
X138.43Y-77.724
X138.43Y-78.994
X139.065Y-83.82
X139.192Y-80.772
X139.319Y-74.803
X139.827Y-73.533
X140.462Y-82.169
X140.462Y-89.662
X140.589Y-74.93
X141.732Y-73.533
X142.24Y-83.82
X142.367Y-68.072
X142.621Y-74.676
X144.526Y-74.93
X144.526Y-79.692
X145.034Y-67.945
X145.161Y-89.916
X146.685Y-79.692
X148.209Y-67.945
X149.86Y-74.803
X149.931Y-78.585
X152.146Y-89.916
X152.815Y-93.068
X153.289Y-74.422
X154.204Y-89.963
X154.813Y-78.585
X156.972Y-74.93
X157.638Y-93.068
X160.933Y-66.915
X165.368Y-60.277
X166.435Y-66.163
X167.741Y-64.53
X167.763Y-62.532
X167.767Y-73.533
X169.56Y-66.596
X169.926Y-82.55
X171.323Y-73.406
X171.63Y-62.9
X172.899Y-62.628
X172.974Y-82.169
X173.228Y-67.945
X173.732Y-60.837
X175.641Y-75.184
X175.768Y-82.169
X176.038Y-89.963
X177.165Y-79.629
X177.188Y-61.579
X178.054Y-68.072
X178.899Y-60.795
X179.07Y-84.836
X179.959Y-82.677
X180.213Y-79.375
X180.594Y-74.676
X181.102Y-68.072
X181.44Y-81.483
X181.519Y-82.523
X182.155Y-83.513
X184.404Y-58.804
X184.849Y-90.272
X185.039Y-74.295
X185.786Y-58.562
X185.79Y-88.719
X186.065Y-81.459
X186.182Y-68.072
X186.515Y-84.786
X187.833Y-74.295
X188.006Y-59.905
X188.52Y-91.069
X189.199Y-90.278
X189.992Y-71.628
X190.274Y-89.455
X191.262Y-65.659
X191.48Y-76.042
X192.555Y-79.023
X192.64Y-86.386
X192.796Y-61.129
X193.675Y-85.471
X193.682Y-63.745
X194.219Y-86.208
X194.229Y-64.862
X194.37Y-66.191
X194.401Y-79.408
X194.995Y-68.907
X195.019Y-86.184
X196.266Y-87.992
X197.612Y-64.262
X197.988Y-81.414
X198.67Y-74.984
T2
X167.068Y-112.966
X172.068Y-110.466
T3
X139.7Y-71.056
X139.7Y-86.296
X142.24Y-71.056
X142.24Y-86.296
X144.78Y-71.056
X144.78Y-86.296
X147.32Y-71.056
X147.32Y-86.296
X149.86Y-71.056
X149.86Y-86.296
X152.4Y-71.056
X152.4Y-86.296
X154.94Y-71.056
X154.94Y-86.296
X157.48Y-71.056
X157.48Y-86.296
X160.02Y-71.056
X160.02Y-86.296
X162.56Y-71.056
X162.56Y-86.296
X165.1Y-71.056
X165.1Y-86.296
X167.64Y-71.056
X167.64Y-86.296
X170.18Y-71.056
X170.18Y-86.296
X172.72Y-71.056
X172.72Y-86.296
X175.26Y-71.056
X175.26Y-86.296
X177.8Y-71.056
X177.8Y-86.296
X180.34Y-71.056
X180.34Y-86.296
X182.88Y-71.056
X182.88Y-86.296
X185.42Y-71.056
X185.42Y-86.296
X187.96Y-71.056
X187.96Y-86.296
T4
X166.878Y-80.01
X169.418Y-80.01
X174.498Y-64.77
X174.498Y-80.01
X175.768Y-77.47
X177.038Y-64.77
X178.308Y-77.47
X179.578Y-64.77
X182.118Y-64.77
X184.658Y-64.77
X187.198Y-64.77
X189.738Y-64.77
X194.818Y-72.39
X194.818Y-74.93
X194.818Y-77.47
T5
X168.148Y-67.818
X170.688Y-67.818
X185.293Y-93.853
X187.833Y-93.853
X190.119Y-67.31
X190.119Y-69.85
T6
X125.73Y-76.391
X125.73Y-82.995
X127.508Y-99.06
X127.508Y-114.3
X130.81Y-76.38
X130.81Y-82.984
X141.097Y-63.373
X143.637Y-63.373
X146.177Y-63.373
X150.622Y-63.373
X150.622Y-65.913
X155.448Y-104.14
X155.448Y-109.22
X158.496Y-63.373
X158.496Y-65.913
X179.705Y-111.633
X187.325Y-111.633
X197.214Y-101.854
X197.278Y-111.633
T7
X192.294Y-101.854
X192.358Y-111.633
T8
X166.055Y-101.854
X171.055Y-101.854
X181.055Y-101.854
X186.055Y-101.854
T3
X129.243Y-65.221G85X127.043Y-65.221
G05
X129.493Y-71.221G85X126.793Y-71.221
G05
X132.943Y-67.621G85X132.943Y-69.822
G05
T0
M30
