G04 #@! TF.FileFunction,Copper,L2,Bot,Signal*
%FSLAX46Y46*%
G04 Gerber Fmt 4.6, Leading zero omitted, Abs format (unit mm)*
G04 Created by KiCad (PCBNEW 4.0.4-stable) date 07/15/18 19:45:34*
%MOMM*%
%LPD*%
G01*
G04 APERTURE LIST*
%ADD10C,0.100000*%
%ADD11O,1.524000X2.524000*%
%ADD12R,3.500000X1.600000*%
%ADD13R,2.000000X1.600000*%
%ADD14O,5.000000X2.300000*%
%ADD15R,2.300000X4.500000*%
%ADD16O,4.500000X2.300000*%
%ADD17R,2.000000X1.700000*%
%ADD18C,2.000000*%
%ADD19R,2.650000X2.030000*%
%ADD20C,2.350000*%
%ADD21R,1.200000X0.900000*%
%ADD22C,2.250000*%
%ADD23R,1.700000X1.700000*%
%ADD24O,1.700000X1.700000*%
%ADD25R,0.800000X0.500000*%
%ADD26R,0.800000X0.400000*%
%ADD27C,1.600000*%
%ADD28R,2.000000X3.800000*%
%ADD29R,2.000000X1.500000*%
%ADD30R,0.508000X1.143000*%
%ADD31C,2.100000*%
%ADD32O,1.501140X2.199640*%
%ADD33O,2.199640X1.501140*%
%ADD34C,1.750000*%
%ADD35C,1.400000*%
%ADD36C,0.600000*%
%ADD37C,0.250000*%
%ADD38C,1.000000*%
%ADD39C,0.254000*%
G04 APERTURE END LIST*
D10*
D11*
X139700000Y-86296500D03*
X142240000Y-86296500D03*
X144780000Y-86296500D03*
X147320000Y-86296500D03*
X149860000Y-86296500D03*
X149860000Y-71056500D03*
X147320000Y-71056500D03*
X144780000Y-71056500D03*
X142240000Y-71056500D03*
X139700000Y-71056500D03*
X152400000Y-86296500D03*
X154940000Y-86296500D03*
X157480000Y-86296500D03*
X160020000Y-86296500D03*
X162560000Y-86296500D03*
X162560000Y-71056500D03*
X160020000Y-71056500D03*
X157480000Y-71056500D03*
X154940000Y-71056500D03*
X152400000Y-71056500D03*
X165100000Y-86296500D03*
X167640000Y-86296500D03*
X170180000Y-86296500D03*
X172720000Y-86296500D03*
X175260000Y-86296500D03*
X175260000Y-71056500D03*
X172720000Y-71056500D03*
X170180000Y-71056500D03*
X167640000Y-71056500D03*
X165100000Y-71056500D03*
X177800000Y-86296500D03*
X180340000Y-86296500D03*
X182880000Y-86296500D03*
X185420000Y-86296500D03*
X187960000Y-86296500D03*
X187960000Y-71056500D03*
X185420000Y-71056500D03*
X182880000Y-71056500D03*
X180340000Y-71056500D03*
X177800000Y-71056500D03*
D12*
X156050000Y-76962000D03*
X161450000Y-76962000D03*
D13*
X156560000Y-81788000D03*
X160560000Y-81788000D03*
D12*
X145636000Y-76962000D03*
X151036000Y-76962000D03*
D13*
X145955000Y-81788000D03*
X149955000Y-81788000D03*
D14*
X128143000Y-71221500D03*
D15*
X132943000Y-68721500D03*
D16*
X128143000Y-65221500D03*
D17*
X140430000Y-92646500D03*
X144430000Y-92646500D03*
X147288000Y-92646500D03*
X151288000Y-92646500D03*
D18*
X125730000Y-82994500D03*
X130810000Y-82984500D03*
D19*
X126244000Y-82994500D03*
X130424000Y-82994500D03*
D20*
X171055000Y-101854000D03*
X166055000Y-101854000D03*
X181055000Y-101854000D03*
X186055000Y-101854000D03*
D21*
X127170000Y-76390500D03*
X129370000Y-76390500D03*
D18*
X125730000Y-76390500D03*
X130810000Y-76380500D03*
X197214000Y-101854000D03*
D22*
X192294000Y-101854000D03*
D18*
X197278000Y-111633000D03*
D22*
X192358000Y-111633000D03*
D23*
X158496000Y-65913000D03*
D24*
X158496000Y-63373000D03*
D23*
X150622000Y-65913000D03*
D24*
X150622000Y-63373000D03*
D25*
X154929000Y-93148000D03*
D26*
X154929000Y-91548000D03*
X154929000Y-92348000D03*
D25*
X154929000Y-90748000D03*
D26*
X156729000Y-92348000D03*
D25*
X156729000Y-93148000D03*
D26*
X156729000Y-91548000D03*
D25*
X156729000Y-90748000D03*
X171566000Y-77527000D03*
D26*
X171566000Y-75927000D03*
X171566000Y-76727000D03*
D25*
X171566000Y-75127000D03*
D26*
X173366000Y-76727000D03*
D25*
X173366000Y-77527000D03*
D26*
X173366000Y-75927000D03*
D25*
X173366000Y-75127000D03*
D27*
X167068000Y-112966000D03*
X172068000Y-110466000D03*
D28*
X141580000Y-78803500D03*
D29*
X135280000Y-78803500D03*
X135280000Y-76503500D03*
X135280000Y-81103500D03*
D30*
X199136000Y-93345000D03*
X197866000Y-93345000D03*
X196596000Y-93345000D03*
X195326000Y-93345000D03*
X194056000Y-93345000D03*
X192786000Y-93345000D03*
X191516000Y-93345000D03*
X190246000Y-93345000D03*
X190246000Y-83185000D03*
X191516000Y-83185000D03*
X192786000Y-83185000D03*
X194056000Y-83185000D03*
X195326000Y-83185000D03*
X196596000Y-83185000D03*
X197866000Y-83185000D03*
X199136000Y-83185000D03*
D31*
X179705000Y-111633000D03*
X187325000Y-111633000D03*
D32*
X174498000Y-64770000D03*
X177038000Y-64770000D03*
X179578000Y-64770000D03*
X182118000Y-64770000D03*
X184658000Y-64770000D03*
X187198000Y-64770000D03*
X189738000Y-64770000D03*
X174498000Y-80010000D03*
X169418000Y-80010000D03*
X166878000Y-80010000D03*
X178308000Y-77470000D03*
X175768000Y-77470000D03*
D33*
X194818000Y-77470000D03*
X194818000Y-74930000D03*
X194818000Y-72390000D03*
D34*
X127508000Y-99060000D03*
X127508000Y-114300000D03*
X155448000Y-104140000D03*
X155448000Y-109220000D03*
D23*
X146177000Y-63373000D03*
D24*
X143637000Y-63373000D03*
X141097000Y-63373000D03*
D35*
X185293000Y-93853000D03*
X187833000Y-93853000D03*
X190119000Y-69850000D03*
X190119000Y-67310000D03*
X170688000Y-67818000D03*
X168148000Y-67818000D03*
D36*
X160933100Y-66914600D03*
X169559800Y-66596300D03*
X167741000Y-64530400D03*
X137541000Y-92456000D03*
X137541000Y-90551000D03*
X139065000Y-83820000D03*
X134366000Y-83820000D03*
X135890000Y-83820000D03*
X137541000Y-83820000D03*
X142240000Y-83820000D03*
X140462000Y-82169000D03*
X139192000Y-80772000D03*
X138430000Y-78994000D03*
X138430000Y-77724000D03*
X138430000Y-75946000D03*
X140589000Y-74930000D03*
X139319000Y-74803000D03*
X137668000Y-74803000D03*
X135636000Y-74803000D03*
X133350000Y-74803000D03*
X133350000Y-73533000D03*
X135509000Y-73533000D03*
X137668000Y-73533000D03*
X139827000Y-73533000D03*
X141732000Y-73533000D03*
X142621000Y-74676000D03*
X157638400Y-93067600D03*
X152815400Y-93067600D03*
X194228900Y-64862000D03*
X194995000Y-68906900D03*
X176038000Y-89963200D03*
X154203700Y-89963200D03*
X194400900Y-79408000D03*
X192555500Y-79023500D03*
X180594000Y-74676000D03*
X185039000Y-74295000D03*
X152146000Y-89916000D03*
X145161000Y-89916000D03*
X140462000Y-89662000D03*
X193675000Y-85471000D03*
X175641000Y-75184000D03*
X171323000Y-73406000D03*
X167767000Y-73533000D03*
X180213000Y-79375000D03*
X179959000Y-82677000D03*
X172974000Y-82169000D03*
X177165000Y-79629000D03*
X175768000Y-82169000D03*
X179070000Y-84836000D03*
X169926000Y-82550000D03*
X197612000Y-64262000D03*
X191262000Y-65659000D03*
X173228000Y-67945000D03*
X181102000Y-68072000D03*
X178054000Y-68072000D03*
X186182000Y-68072000D03*
X131445000Y-77978000D03*
X127762000Y-81026000D03*
X142367000Y-68072000D03*
X145034000Y-67945000D03*
X148209000Y-67945000D03*
X144526000Y-74930000D03*
X149860000Y-74803000D03*
X146685000Y-79692500D03*
X144526000Y-79692500D03*
X154813000Y-78584800D03*
X153289000Y-74422000D03*
X156972000Y-74930000D03*
X189992000Y-71628000D03*
X187833000Y-74295000D03*
X136779000Y-89408000D03*
X136794100Y-86233000D03*
X131599900Y-99060000D03*
X149931100Y-78584800D03*
X136794100Y-81253200D03*
X193682200Y-63745200D03*
X197988100Y-81414300D03*
X184404000Y-58803700D03*
X185790000Y-88719100D03*
X171630200Y-62899600D03*
X181439800Y-81482900D03*
X185786000Y-58561900D03*
X184848800Y-90272100D03*
X167762800Y-62531600D03*
X181519300Y-82522800D03*
X186515300Y-84786000D03*
X188006100Y-59904800D03*
X182154800Y-83513000D03*
X173732100Y-60836900D03*
X172898600Y-62628500D03*
X166434600Y-66163100D03*
X192795500Y-61129100D03*
X177188100Y-61579000D03*
X186065000Y-81458500D03*
X178898800Y-60795200D03*
X165367600Y-60277500D03*
X191479500Y-76042400D03*
X198670200Y-74984500D03*
X194369600Y-66191200D03*
X194218800Y-86208400D03*
X192640300Y-86385700D03*
X195019200Y-86184500D03*
X196265900Y-87991700D03*
X189198700Y-90278000D03*
X190274400Y-89454800D03*
X188520300Y-91068700D03*
D37*
X165100000Y-86296500D02*
X165100000Y-87883800D01*
X152400000Y-86296500D02*
X152400000Y-87883800D01*
X177800000Y-86296500D02*
X177800000Y-87883800D01*
X166687300Y-84709200D02*
X165100000Y-84709200D01*
X170494000Y-80902500D02*
X166687300Y-84709200D01*
X170494000Y-79193800D02*
X170494000Y-80902500D01*
X168883300Y-77583100D02*
X170494000Y-79193800D01*
X168883300Y-68553300D02*
X168883300Y-77583100D01*
X168148000Y-67818000D02*
X168883300Y-68553300D01*
X165100000Y-86296500D02*
X165100000Y-84709200D01*
X177800000Y-87883800D02*
X165100000Y-87883800D01*
X155623500Y-87883800D02*
X152400000Y-87883800D01*
X156089900Y-88350200D02*
X155623500Y-87883800D01*
X164633600Y-88350200D02*
X156089900Y-88350200D01*
X165100000Y-87883800D02*
X164633600Y-88350200D01*
X144780000Y-86296500D02*
X144780000Y-84709200D01*
X144780000Y-71056500D02*
X144780000Y-72643800D01*
X145098400Y-72643800D02*
X144780000Y-72643800D01*
X148164900Y-75710300D02*
X145098400Y-72643800D01*
X148164900Y-82536600D02*
X148164900Y-75710300D01*
X145992300Y-84709200D02*
X148164900Y-82536600D01*
X144780000Y-84709200D02*
X145992300Y-84709200D01*
X160020000Y-86296500D02*
X160020000Y-87883800D01*
X151478600Y-82524500D02*
X153120400Y-82524500D01*
X147706600Y-86296500D02*
X151478600Y-82524500D01*
X147320000Y-86296500D02*
X147706600Y-86296500D01*
X157009100Y-87883800D02*
X160020000Y-87883800D01*
X156210000Y-87084700D02*
X157009100Y-87883800D01*
X156210000Y-85522400D02*
X156210000Y-87084700D01*
X153212100Y-82524500D02*
X156210000Y-85522400D01*
X153120400Y-82524500D02*
X153212100Y-82524500D01*
X160107000Y-67740700D02*
X160933100Y-66914600D01*
X153446700Y-67740700D02*
X160107000Y-67740700D01*
X151312600Y-69874800D02*
X153446700Y-67740700D01*
X151312600Y-73967000D02*
X151312600Y-69874800D01*
X153120400Y-75774800D02*
X151312600Y-73967000D01*
X153120400Y-82524500D02*
X153120400Y-75774800D01*
X170980000Y-66596300D02*
X169559800Y-66596300D01*
X173990000Y-69606300D02*
X170980000Y-66596300D01*
X173990000Y-71845400D02*
X173990000Y-69606300D01*
X178083000Y-75938400D02*
X173990000Y-71845400D01*
X178661500Y-75938400D02*
X178083000Y-75938400D01*
X179405000Y-76681900D02*
X178661500Y-75938400D01*
X179405000Y-80564200D02*
X179405000Y-76681900D01*
X175260000Y-84709200D02*
X179405000Y-80564200D01*
X175260000Y-86296500D02*
X175260000Y-84709200D01*
X162560000Y-67651900D02*
X162560000Y-71056500D01*
X161147500Y-66239400D02*
X162560000Y-67651900D01*
X160582800Y-66239400D02*
X161147500Y-66239400D01*
X159531900Y-67290300D02*
X160582800Y-66239400D01*
X153260200Y-67290300D02*
X159531900Y-67290300D01*
X151081300Y-69469200D02*
X153260200Y-67290300D01*
X149860000Y-69469200D02*
X151081300Y-69469200D01*
X149860000Y-71056500D02*
X149860000Y-69469200D01*
X160020000Y-71056500D02*
X160020000Y-72643800D01*
X172467100Y-71056500D02*
X172720000Y-71056500D01*
X169607200Y-68196600D02*
X172467100Y-71056500D01*
X169607200Y-67762100D02*
X169607200Y-68196600D01*
X168633000Y-66787900D02*
X169607200Y-67762100D01*
X167722400Y-66787900D02*
X168633000Y-66787900D01*
X166256700Y-68253600D02*
X167722400Y-66787900D01*
X166256700Y-71962000D02*
X166256700Y-68253600D01*
X165124600Y-73094100D02*
X166256700Y-71962000D01*
X160470300Y-73094100D02*
X165124600Y-73094100D01*
X160020000Y-72643800D02*
X160470300Y-73094100D01*
X165100000Y-71056500D02*
X165100000Y-70646100D01*
X165100000Y-70646100D02*
X165100000Y-69469200D01*
X160541900Y-69469200D02*
X152400000Y-69469200D01*
X161290000Y-70217300D02*
X160541900Y-69469200D01*
X161290000Y-71863400D02*
X161290000Y-70217300D01*
X162070400Y-72643800D02*
X161290000Y-71863400D01*
X163102300Y-72643800D02*
X162070400Y-72643800D01*
X165100000Y-70646100D02*
X163102300Y-72643800D01*
X152400000Y-71056500D02*
X152400000Y-69469200D01*
X167741000Y-65939000D02*
X167741000Y-64530400D01*
X165100000Y-68580000D02*
X167741000Y-65939000D01*
X165100000Y-69469200D02*
X165100000Y-68580000D01*
X177800000Y-70918200D02*
X177800000Y-71056500D01*
X168770000Y-61888200D02*
X177800000Y-70918200D01*
X167449300Y-61888200D02*
X168770000Y-61888200D01*
X167084000Y-62253500D02*
X167449300Y-61888200D01*
X167084000Y-63873400D02*
X167084000Y-62253500D01*
X167741000Y-64530400D02*
X167084000Y-63873400D01*
X157480000Y-71056500D02*
X157480000Y-72643800D01*
X157480000Y-86296500D02*
X157480000Y-84709200D01*
X157182400Y-84709200D02*
X157480000Y-84709200D01*
X153974600Y-81501400D02*
X157182400Y-84709200D01*
X153974600Y-76022600D02*
X153974600Y-81501400D01*
X157353400Y-72643800D02*
X153974600Y-76022600D01*
X157480000Y-72643800D02*
X157353400Y-72643800D01*
X170180000Y-86296500D02*
X170180000Y-84709200D01*
X170180000Y-71056500D02*
X170180000Y-72643800D01*
X170180000Y-77404800D02*
X170180000Y-72643800D01*
X170965900Y-78190700D02*
X170180000Y-77404800D01*
X170965900Y-83923300D02*
X170965900Y-78190700D01*
X170180000Y-84709200D02*
X170965900Y-83923300D01*
X182880000Y-86296500D02*
X182880000Y-84709200D01*
X182880000Y-71056500D02*
X182880000Y-72643800D01*
X182880000Y-84709200D02*
X182880000Y-72643800D01*
X137541000Y-83820000D02*
X137541000Y-90551000D01*
X135890000Y-83820000D02*
X134366000Y-83820000D01*
X139065000Y-83820000D02*
X137541000Y-83820000D01*
X142240000Y-83820000D02*
X142240000Y-79463500D01*
X142240000Y-79463500D02*
X141580000Y-78803500D01*
X141580000Y-78803500D02*
X141580000Y-75717000D01*
X142113000Y-83820000D02*
X142240000Y-83820000D01*
X140462000Y-82169000D02*
X142113000Y-83820000D01*
X139192000Y-79756000D02*
X139192000Y-80772000D01*
X138430000Y-78994000D02*
X139192000Y-79756000D01*
X138430000Y-75946000D02*
X138430000Y-77724000D01*
X139446000Y-74930000D02*
X140589000Y-74930000D01*
X139319000Y-74803000D02*
X139446000Y-74930000D01*
X135636000Y-74803000D02*
X137668000Y-74803000D01*
X133350000Y-73533000D02*
X133350000Y-74803000D01*
X137668000Y-73533000D02*
X135509000Y-73533000D01*
X141732000Y-73533000D02*
X139827000Y-73533000D01*
X142748000Y-74549000D02*
X142621000Y-74676000D01*
X141580000Y-75717000D02*
X142748000Y-74549000D01*
X135280000Y-78803500D02*
X136605300Y-78803500D01*
X127170000Y-76390500D02*
X125730000Y-76390500D01*
X127170000Y-76390500D02*
X127170000Y-75615200D01*
X136605300Y-76578200D02*
X141580000Y-76578200D01*
X136605300Y-75588700D02*
X136605300Y-76578200D01*
X136027600Y-75011000D02*
X136605300Y-75588700D01*
X127774200Y-75011000D02*
X136027600Y-75011000D01*
X127170000Y-75615200D02*
X127774200Y-75011000D01*
X136605300Y-76578200D02*
X136605300Y-78803500D01*
X141580000Y-78803500D02*
X141580000Y-77690800D01*
X141580000Y-77690800D02*
X141580000Y-76578200D01*
X142831900Y-77690800D02*
X143560700Y-76962000D01*
X141580000Y-77690800D02*
X142831900Y-77690800D01*
X145636000Y-76962000D02*
X143560700Y-76962000D01*
X145636000Y-80343700D02*
X145636000Y-76962000D01*
X145955000Y-80662700D02*
X145636000Y-80343700D01*
X145955000Y-81788000D02*
X145955000Y-80662700D01*
X128143000Y-71221500D02*
X128143000Y-72696800D01*
X126244000Y-82994500D02*
X125730000Y-82994500D01*
X127497600Y-72696800D02*
X128143000Y-72696800D01*
X124358700Y-75835700D02*
X127497600Y-72696800D01*
X124358700Y-81623200D02*
X124358700Y-75835700D01*
X125730000Y-82994500D02*
X124358700Y-81623200D01*
X155401800Y-93821800D02*
X144430000Y-93821800D01*
X156003700Y-93219900D02*
X155401800Y-93821800D01*
X156003700Y-93148000D02*
X156003700Y-93219900D01*
X156729000Y-93148000D02*
X156003700Y-93148000D01*
X144430000Y-92646500D02*
X144430000Y-93821800D01*
X152613300Y-92865500D02*
X152613300Y-92646500D01*
X152815400Y-93067600D02*
X152613300Y-92865500D01*
X151288000Y-92646500D02*
X152613300Y-92646500D01*
X157454300Y-92883500D02*
X157638400Y-93067600D01*
X157454300Y-92348000D02*
X157454300Y-92883500D01*
X156729000Y-92348000D02*
X157454300Y-92348000D01*
D38*
X171055000Y-109453000D02*
X171055000Y-101854000D01*
X172068000Y-110466000D02*
X171055000Y-109453000D01*
D37*
X156729000Y-91548000D02*
X157454300Y-91548000D01*
X146177000Y-72767100D02*
X146177000Y-63373000D01*
X148615200Y-75205300D02*
X146177000Y-72767100D01*
X148615200Y-82723200D02*
X148615200Y-75205300D01*
X146225000Y-85113400D02*
X148615200Y-82723200D01*
X146225000Y-87312100D02*
X146225000Y-85113400D01*
X147350200Y-88437300D02*
X146225000Y-87312100D01*
X155540100Y-88437300D02*
X147350200Y-88437300D01*
X157454300Y-90351500D02*
X155540100Y-88437300D01*
X157454300Y-91548000D02*
X157454300Y-90351500D01*
X149705000Y-64737700D02*
X150622000Y-64737700D01*
X147164900Y-62197600D02*
X149705000Y-64737700D01*
X145148500Y-62197600D02*
X147164900Y-62197600D01*
X145001600Y-62344500D02*
X145148500Y-62197600D01*
X145001600Y-65628400D02*
X145001600Y-62344500D01*
X143684500Y-66945500D02*
X145001600Y-65628400D01*
X143684500Y-72200400D02*
X143684500Y-66945500D01*
X146501700Y-75017600D02*
X143684500Y-72200400D01*
X146755900Y-75017600D02*
X146501700Y-75017600D01*
X147714600Y-75976300D02*
X146755900Y-75017600D01*
X147714600Y-82350000D02*
X147714600Y-75976300D01*
X146476900Y-83587700D02*
X147714600Y-82350000D01*
X145202800Y-83587700D02*
X146476900Y-83587700D01*
X143659900Y-85130600D02*
X145202800Y-83587700D01*
X143659900Y-87272500D02*
X143659900Y-85130600D01*
X145373100Y-88985700D02*
X143659900Y-87272500D01*
X154966700Y-88985700D02*
X145373100Y-88985700D01*
X156729000Y-90748000D02*
X154966700Y-88985700D01*
X150622000Y-65913000D02*
X150622000Y-64737700D01*
X175962100Y-64363100D02*
X175962100Y-64770000D01*
X172586500Y-60987500D02*
X175962100Y-64363100D01*
X144290500Y-60987500D02*
X172586500Y-60987500D01*
X142272300Y-63005700D02*
X144290500Y-60987500D01*
X142272300Y-63373000D02*
X142272300Y-63005700D01*
X141097000Y-63373000D02*
X142272300Y-63373000D01*
X177038000Y-64770000D02*
X175962100Y-64770000D01*
X182118000Y-64770000D02*
X183193900Y-64770000D01*
X187166200Y-66897200D02*
X190119000Y-69850000D01*
X184783100Y-66897200D02*
X187166200Y-66897200D01*
X183193900Y-65308000D02*
X184783100Y-66897200D01*
X183193900Y-64770000D02*
X183193900Y-65308000D01*
X194995000Y-65628000D02*
X194995000Y-68906900D01*
X194994900Y-65628000D02*
X194995000Y-65628000D01*
X194228900Y-64862000D02*
X194994900Y-65628000D01*
X155654300Y-90748000D02*
X155654300Y-92348000D01*
X154929000Y-92348000D02*
X155654300Y-92348000D01*
X154929000Y-90748000D02*
X155654300Y-90748000D01*
X177522900Y-88478300D02*
X176038000Y-89963200D01*
X182790500Y-88478300D02*
X177522900Y-88478300D01*
X183970700Y-87298100D02*
X182790500Y-88478300D01*
X183970700Y-69162700D02*
X183970700Y-87298100D01*
X179578000Y-64770000D02*
X183970700Y-69162700D01*
X154929000Y-90748000D02*
X154203700Y-90748000D01*
X154203700Y-90748000D02*
X154203700Y-89963200D01*
X197281100Y-82288200D02*
X197866000Y-82288200D01*
X194400900Y-79408000D02*
X197281100Y-82288200D01*
X197866000Y-83185000D02*
X197866000Y-82288200D01*
X174091300Y-77698300D02*
X174091300Y-76727000D01*
X175288500Y-78895500D02*
X174091300Y-77698300D01*
X176344500Y-78895500D02*
X175288500Y-78895500D01*
X177232100Y-78007900D02*
X176344500Y-78895500D01*
X177232100Y-77470000D02*
X177232100Y-78007900D01*
X178308000Y-77470000D02*
X177232100Y-77470000D01*
X173366000Y-76727000D02*
X174091300Y-76727000D01*
X175009100Y-76044800D02*
X174091300Y-75127000D01*
X175768000Y-76044800D02*
X175009100Y-76044800D01*
X173366000Y-75127000D02*
X174091300Y-75127000D01*
X175768000Y-77470000D02*
X175768000Y-76044800D01*
X195820200Y-82288200D02*
X192555500Y-79023500D01*
X196596000Y-82288200D02*
X195820200Y-82288200D01*
X196596000Y-83185000D02*
X196596000Y-82288200D01*
X156560000Y-81788000D02*
X156560000Y-80662700D01*
X156050000Y-76962000D02*
X156050000Y-78087300D01*
X157212700Y-79250000D02*
X156050000Y-78087300D01*
X157212700Y-80010000D02*
X157212700Y-79250000D01*
X166878000Y-80010000D02*
X157212700Y-80010000D01*
X157212700Y-80010000D02*
X156560000Y-80662700D01*
X135280000Y-76503500D02*
X135280000Y-77578800D01*
X134204700Y-77578800D02*
X135280000Y-77578800D01*
X130810000Y-80973500D02*
X134204700Y-77578800D01*
X130810000Y-82984500D02*
X130810000Y-80973500D01*
X130434000Y-82984500D02*
X130424000Y-82994500D01*
X130810000Y-82984500D02*
X130434000Y-82984500D01*
X180594000Y-74676000D02*
X178816000Y-72898000D01*
X185039000Y-74295000D02*
X185039000Y-79629000D01*
X185039000Y-73406000D02*
X185039000Y-74295000D01*
X140430000Y-92646500D02*
X140430000Y-89694000D01*
X145161000Y-89916000D02*
X152146000Y-89916000D01*
X140430000Y-89694000D02*
X140462000Y-89662000D01*
X194056000Y-85090000D02*
X193675000Y-85471000D01*
X199734500Y-85090000D02*
X194056000Y-85090000D01*
X199734500Y-85090000D02*
X199734500Y-77844500D01*
X161450000Y-76962000D02*
X165803300Y-76962000D01*
X165803300Y-76962000D02*
X167767000Y-74998300D01*
X173990000Y-73533000D02*
X175641000Y-75184000D01*
X171450000Y-73533000D02*
X173990000Y-73533000D01*
X171323000Y-73406000D02*
X171450000Y-73533000D01*
X167767000Y-74998300D02*
X167767000Y-73533000D01*
X179959000Y-82677000D02*
X179959000Y-83947000D01*
X180213000Y-79375000D02*
X179959000Y-79629000D01*
X179959000Y-79629000D02*
X179959000Y-82677000D01*
X177165000Y-80772000D02*
X177165000Y-79629000D01*
X175768000Y-82169000D02*
X177165000Y-80772000D01*
X179959000Y-83947000D02*
X179070000Y-84836000D01*
X197095200Y-63745200D02*
X197612000Y-64262000D01*
X193682200Y-63745200D02*
X197095200Y-63745200D01*
X178054000Y-68072000D02*
X174752000Y-64770000D01*
X174498000Y-64770000D02*
X174752000Y-64770000D01*
X142367000Y-65786000D02*
X142367000Y-65786000D01*
X142367000Y-65786000D02*
X142367000Y-68072000D01*
X142367000Y-65786000D02*
X143637000Y-63373000D01*
X149994650Y-74795350D02*
X149867650Y-74795350D01*
X149867650Y-74795350D02*
X149860000Y-74803000D01*
X146685000Y-79692500D02*
X146685000Y-79629000D01*
X144526000Y-79692500D02*
X144526000Y-79629000D01*
X154813000Y-78584800D02*
X154813000Y-78613000D01*
X161450000Y-76962000D02*
X161450000Y-75090000D01*
X161290000Y-74930000D02*
X156972000Y-74930000D01*
X161450000Y-75090000D02*
X161290000Y-74930000D01*
X189992000Y-72136000D02*
X189992000Y-71628000D01*
X187833000Y-74295000D02*
X189992000Y-72136000D01*
X136779000Y-89408000D02*
X136794100Y-89408000D01*
X169418000Y-80010000D02*
X168342100Y-80010000D01*
X140430000Y-92646500D02*
X140430000Y-91471200D01*
X147288000Y-92646500D02*
X147288000Y-91471200D01*
X140430000Y-91471200D02*
X147288000Y-91471200D01*
X168342100Y-79500800D02*
X168342100Y-80010000D01*
X165803300Y-76962000D02*
X168342100Y-79500800D01*
X149955000Y-81788000D02*
X149955000Y-80662700D01*
X133255500Y-68721500D02*
X134418300Y-68721500D01*
X137321500Y-65818300D02*
X134418300Y-68721500D01*
X142367000Y-65818300D02*
X137321500Y-65818300D01*
X143637000Y-63373000D02*
X142367000Y-65818300D01*
X196596000Y-93345000D02*
X196596000Y-92448200D01*
X190246000Y-94241800D02*
X196596000Y-94241800D01*
X190246000Y-93345000D02*
X190246000Y-94241800D01*
X196596000Y-93345000D02*
X196596000Y-94241800D01*
X197866000Y-92448200D02*
X196596000Y-92448200D01*
X149955000Y-78608700D02*
X149955000Y-80662700D01*
X149931100Y-78584800D02*
X149955000Y-78608700D01*
X150428600Y-78087300D02*
X149931100Y-78584800D01*
X151036000Y-78087300D02*
X150428600Y-78087300D01*
X151036000Y-76962000D02*
X151036000Y-78087300D01*
X151036000Y-76962000D02*
X151036000Y-75836700D01*
X148731600Y-73532300D02*
X149994650Y-74795350D01*
X149994650Y-74795350D02*
X151036000Y-75836700D01*
X148731600Y-69885100D02*
X148731600Y-73532300D01*
X151214300Y-67402400D02*
X148731600Y-69885100D01*
X151296800Y-67402400D02*
X151214300Y-67402400D01*
X151801700Y-66897500D02*
X151296800Y-67402400D01*
X151801700Y-63373000D02*
X151801700Y-66897500D01*
X158496000Y-63373000D02*
X151801700Y-63373000D01*
X151801700Y-63373000D02*
X150622000Y-63373000D01*
X135280000Y-81103500D02*
X136605300Y-81103500D01*
X136644400Y-81103500D02*
X136794100Y-81253200D01*
X136605300Y-81103500D02*
X136644400Y-81103500D01*
X136794100Y-91471200D02*
X136794100Y-89408000D01*
X136794100Y-89408000D02*
X136794100Y-86233000D01*
X136794100Y-86233000D02*
X136794100Y-81253200D01*
X140430000Y-91471200D02*
X136794100Y-91471200D01*
X131548400Y-99008500D02*
X131599900Y-99060000D01*
X131548400Y-95485700D02*
X131548400Y-99008500D01*
X135562900Y-91471200D02*
X131548400Y-95485700D01*
X136794100Y-91471200D02*
X135562900Y-91471200D01*
X166972200Y-81788000D02*
X160560000Y-81788000D01*
X168342100Y-80418100D02*
X166972200Y-81788000D01*
X168342100Y-80010000D02*
X168342100Y-80418100D01*
X197866000Y-93345000D02*
X197866000Y-92896600D01*
X197866000Y-92896600D02*
X197866000Y-92448200D01*
X199136000Y-93345000D02*
X199136000Y-92896600D01*
X195355900Y-73465900D02*
X194818000Y-73465900D01*
X199734500Y-77844500D02*
X195355900Y-73465900D01*
X199734500Y-92298100D02*
X199734500Y-85090000D01*
X199136000Y-92896600D02*
X199734500Y-92298100D01*
X194818000Y-72390000D02*
X194818000Y-73465900D01*
X197866000Y-92896600D02*
X199136000Y-92896600D01*
X133255500Y-68721500D02*
X132943000Y-68721500D01*
X130205000Y-67458800D02*
X128143000Y-67458800D01*
X131467700Y-68721500D02*
X130205000Y-67458800D01*
X132943000Y-68721500D02*
X131467700Y-68721500D01*
X128143000Y-65221500D02*
X128143000Y-67458800D01*
X193534900Y-63892500D02*
X193682200Y-63745200D01*
X193534900Y-70031000D02*
X193534900Y-63892500D01*
X194818000Y-71314100D02*
X193534900Y-70031000D01*
X194818000Y-72390000D02*
X194818000Y-71314100D01*
X199136000Y-83185000D02*
X199136000Y-82288200D01*
X129370000Y-76390500D02*
X129370000Y-77165800D01*
X154203700Y-91548000D02*
X154203700Y-93148000D01*
X154929000Y-93148000D02*
X154203700Y-93148000D01*
X154929000Y-91548000D02*
X154263300Y-91548000D01*
X154263300Y-91548000D02*
X154203700Y-91548000D01*
X130945400Y-110862600D02*
X130945400Y-84337900D01*
X127508000Y-114300000D02*
X130945400Y-110862600D01*
X128773600Y-77762200D02*
X129370000Y-77165800D01*
X128773600Y-84202200D02*
X128773600Y-77762200D01*
X128909300Y-84337900D02*
X128773600Y-84202200D01*
X130945400Y-84337900D02*
X128909300Y-84337900D01*
X130305300Y-76380500D02*
X130295300Y-76390500D01*
X130810000Y-76380500D02*
X130305300Y-76380500D01*
X129370000Y-76390500D02*
X130295300Y-76390500D01*
X198862000Y-82288200D02*
X197988100Y-81414300D01*
X199136000Y-82288200D02*
X198862000Y-82288200D01*
X153498200Y-90842500D02*
X154203700Y-91548000D01*
X144734600Y-90842500D02*
X153498200Y-90842500D01*
X141129300Y-87237200D02*
X144734600Y-90842500D01*
X141129300Y-84671000D02*
X141129300Y-87237200D01*
X136486400Y-80028100D02*
X141129300Y-84671000D01*
X134144600Y-80028100D02*
X136486400Y-80028100D01*
X132594800Y-81577900D02*
X134144600Y-80028100D01*
X132594800Y-83638100D02*
X132594800Y-81577900D01*
X131895000Y-84337900D02*
X132594800Y-83638100D01*
X130945400Y-84337900D02*
X131895000Y-84337900D01*
X172291300Y-78879200D02*
X172291300Y-76727000D01*
X173422100Y-80010000D02*
X172291300Y-78879200D01*
X174498000Y-80010000D02*
X173422100Y-80010000D01*
X171566000Y-76727000D02*
X172291300Y-76727000D01*
X172291300Y-75127000D02*
X172291300Y-76727000D01*
X171566000Y-75127000D02*
X172291300Y-75127000D01*
X186872600Y-87636500D02*
X185790000Y-88719100D01*
X186872600Y-85346200D02*
X186872600Y-87636500D01*
X187718800Y-84500000D02*
X186872600Y-85346200D01*
X187718800Y-80820100D02*
X187718800Y-84500000D01*
X192117200Y-76421700D02*
X187718800Y-80820100D01*
X192117200Y-63126600D02*
X192117200Y-76421700D01*
X188209600Y-59219000D02*
X192117200Y-63126600D01*
X184819300Y-59219000D02*
X188209600Y-59219000D01*
X184404000Y-58803700D02*
X184819300Y-59219000D01*
X181439800Y-74206800D02*
X181439800Y-81482900D01*
X179070000Y-71837000D02*
X181439800Y-74206800D01*
X179070000Y-70218900D02*
X179070000Y-71837000D01*
X177390300Y-68539200D02*
X179070000Y-70218900D01*
X176382400Y-68539200D02*
X177390300Y-68539200D01*
X171630200Y-63787000D02*
X176382400Y-68539200D01*
X171630200Y-62899600D02*
X171630200Y-63787000D01*
X186025100Y-90272100D02*
X184848800Y-90272100D01*
X189056000Y-87241200D02*
X186025100Y-90272100D01*
X189056000Y-80119800D02*
X189056000Y-87241200D01*
X192567600Y-76608200D02*
X189056000Y-80119800D01*
X192567600Y-62928300D02*
X192567600Y-76608200D01*
X188201200Y-58561900D02*
X192567600Y-62928300D01*
X185786000Y-58561900D02*
X188201200Y-58561900D01*
X181519300Y-82522800D02*
X181519300Y-82459300D01*
X180213000Y-75438000D02*
X180134500Y-75438000D01*
X180975000Y-76200000D02*
X180213000Y-75438000D01*
X180975000Y-79883000D02*
X180975000Y-76200000D01*
X180721000Y-80137000D02*
X180975000Y-79883000D01*
X180721000Y-81661000D02*
X180721000Y-80137000D01*
X181519300Y-82459300D02*
X180721000Y-81661000D01*
X167762800Y-62531700D02*
X167762800Y-62531600D01*
X168776600Y-62531700D02*
X167762800Y-62531700D01*
X176530000Y-70285100D02*
X168776600Y-62531700D01*
X176530000Y-71833500D02*
X176530000Y-70285100D01*
X180134500Y-75438000D02*
X176530000Y-71833500D01*
X188280500Y-60179200D02*
X188006100Y-59904800D01*
X188280500Y-66921500D02*
X188280500Y-60179200D01*
X190098300Y-68739300D02*
X188280500Y-66921500D01*
X190458400Y-68739300D02*
X190098300Y-68739300D01*
X191164700Y-69445600D02*
X190458400Y-68739300D01*
X191164700Y-75002900D02*
X191164700Y-69445600D01*
X186868200Y-79299400D02*
X191164700Y-75002900D01*
X186868200Y-84433100D02*
X186868200Y-79299400D01*
X186515300Y-84786000D02*
X186868200Y-84433100D01*
X182154800Y-74284900D02*
X182154800Y-83513000D01*
X181610000Y-73740100D02*
X182154800Y-74284900D01*
X181610000Y-70221700D02*
X181610000Y-73740100D01*
X178308000Y-66919700D02*
X181610000Y-70221700D01*
X178308000Y-64147900D02*
X178308000Y-66919700D01*
X174997000Y-60836900D02*
X178308000Y-64147900D01*
X173732100Y-60836900D02*
X174997000Y-60836900D01*
X166434600Y-62266000D02*
X166434600Y-66163100D01*
X167262700Y-61437900D02*
X166434600Y-62266000D01*
X171708000Y-61437900D02*
X167262700Y-61437900D01*
X172898600Y-62628500D02*
X171708000Y-61437900D01*
X185293000Y-91641100D02*
X185293000Y-93853000D01*
X189506300Y-87427800D02*
X185293000Y-91641100D01*
X189506300Y-80306400D02*
X189506300Y-87427800D01*
X193018600Y-76794100D02*
X189506300Y-80306400D01*
X193018600Y-61352200D02*
X193018600Y-76794100D01*
X192795500Y-61129100D02*
X193018600Y-61352200D01*
X186065000Y-72643800D02*
X186065000Y-81458500D01*
X186555100Y-72153700D02*
X186065000Y-72643800D01*
X186555100Y-70134400D02*
X186555100Y-72153700D01*
X185081500Y-68660800D02*
X186555100Y-70134400D01*
X184105800Y-68660800D02*
X185081500Y-68660800D01*
X180688700Y-65243700D02*
X184105800Y-68660800D01*
X180688700Y-64009700D02*
X180688700Y-65243700D01*
X178258000Y-61579000D02*
X180688700Y-64009700D01*
X177188100Y-61579000D02*
X178258000Y-61579000D01*
X165437600Y-60207500D02*
X165367600Y-60277500D01*
X178311100Y-60207500D02*
X165437600Y-60207500D01*
X178898800Y-60795200D02*
X178311100Y-60207500D01*
X191615100Y-75906800D02*
X191479500Y-76042400D01*
X191615100Y-68806100D02*
X191615100Y-75906800D01*
X190119000Y-67310000D02*
X191615100Y-68806100D01*
X194369700Y-66191200D02*
X194369600Y-66191200D01*
X194369700Y-69951600D02*
X194369700Y-66191200D01*
X198670200Y-74252100D02*
X194369700Y-69951600D01*
X198670200Y-74984500D02*
X198670200Y-74252100D01*
X192786000Y-93345000D02*
X192786000Y-92448200D01*
X194218800Y-91015400D02*
X194218800Y-86208400D01*
X192786000Y-92448200D02*
X194218800Y-91015400D01*
X191516000Y-93345000D02*
X191516000Y-92448200D01*
X192628400Y-86397600D02*
X192640300Y-86385700D01*
X192628300Y-86397600D02*
X192628400Y-86397600D01*
X192628300Y-91335900D02*
X192628300Y-86397600D01*
X191516000Y-92448200D02*
X192628300Y-91335900D01*
X194056000Y-93345000D02*
X194056000Y-92448200D01*
X195019200Y-91485000D02*
X195019200Y-86184500D01*
X194056000Y-92448200D02*
X195019200Y-91485000D01*
X195326000Y-93345000D02*
X195326000Y-92448200D01*
X196265900Y-91508300D02*
X196265900Y-87991700D01*
X195326000Y-92448200D02*
X196265900Y-91508300D01*
X192786000Y-83185000D02*
X192786000Y-84081800D01*
X189198700Y-89646100D02*
X189198700Y-90278000D01*
X191433200Y-87411600D02*
X189198700Y-89646100D01*
X191433200Y-85434600D02*
X191433200Y-87411600D01*
X192786000Y-84081800D02*
X191433200Y-85434600D01*
X194056000Y-83185000D02*
X194056000Y-84081800D01*
X191883500Y-87845700D02*
X190274400Y-89454800D01*
X191883500Y-86254300D02*
X191883500Y-87845700D01*
X194056000Y-84081800D02*
X191883500Y-86254300D01*
X188520300Y-89687600D02*
X188520300Y-91068700D01*
X190982800Y-87225100D02*
X188520300Y-89687600D01*
X190982800Y-84615000D02*
X190982800Y-87225100D01*
X191516000Y-84081800D02*
X190982800Y-84615000D01*
X191516000Y-83185000D02*
X191516000Y-84081800D01*
X190246000Y-83185000D02*
X190246000Y-84081800D01*
X187833000Y-89738000D02*
X187833000Y-93853000D01*
X190246000Y-87325000D02*
X187833000Y-89738000D01*
X190246000Y-84081800D02*
X190246000Y-87325000D01*
D39*
G36*
X138112500Y-93535500D02*
X134573402Y-93535500D01*
X135877702Y-92231200D01*
X138112500Y-92231200D01*
X138112500Y-93535500D01*
X138112500Y-93535500D01*
G37*
X138112500Y-93535500D02*
X134573402Y-93535500D01*
X135877702Y-92231200D01*
X138112500Y-92231200D01*
X138112500Y-93535500D01*
G36*
X133632560Y-81853500D02*
X133676838Y-82088817D01*
X133815910Y-82304941D01*
X134028110Y-82449931D01*
X134280000Y-82500940D01*
X136034100Y-82500940D01*
X136034100Y-85670537D01*
X136001908Y-85702673D01*
X135859262Y-86046201D01*
X135858938Y-86418167D01*
X136000983Y-86761943D01*
X136034100Y-86795118D01*
X136034100Y-88830463D01*
X135986808Y-88877673D01*
X135844162Y-89221201D01*
X135843838Y-89593167D01*
X135985883Y-89936943D01*
X136034100Y-89985244D01*
X136034100Y-90711200D01*
X135562900Y-90711200D01*
X135272060Y-90769052D01*
X135025499Y-90933799D01*
X132715000Y-93244298D01*
X132715000Y-84592702D01*
X133132201Y-84175501D01*
X133296948Y-83928939D01*
X133354800Y-83638100D01*
X133354800Y-81892702D01*
X133632560Y-81614942D01*
X133632560Y-81853500D01*
X133632560Y-81853500D01*
G37*
X133632560Y-81853500D02*
X133676838Y-82088817D01*
X133815910Y-82304941D01*
X134028110Y-82449931D01*
X134280000Y-82500940D01*
X136034100Y-82500940D01*
X136034100Y-85670537D01*
X136001908Y-85702673D01*
X135859262Y-86046201D01*
X135858938Y-86418167D01*
X136000983Y-86761943D01*
X136034100Y-86795118D01*
X136034100Y-88830463D01*
X135986808Y-88877673D01*
X135844162Y-89221201D01*
X135843838Y-89593167D01*
X135985883Y-89936943D01*
X136034100Y-89985244D01*
X136034100Y-90711200D01*
X135562900Y-90711200D01*
X135272060Y-90769052D01*
X135025499Y-90933799D01*
X132715000Y-93244298D01*
X132715000Y-84592702D01*
X133132201Y-84175501D01*
X133296948Y-83928939D01*
X133354800Y-83638100D01*
X133354800Y-81892702D01*
X133632560Y-81614942D01*
X133632560Y-81853500D01*
G36*
X139647998Y-84264500D02*
X138239500Y-84264500D01*
X138190090Y-84274506D01*
X138148465Y-84302947D01*
X138121185Y-84345341D01*
X138112500Y-84391500D01*
X138112500Y-90711200D01*
X137554100Y-90711200D01*
X137554100Y-89955389D01*
X137571192Y-89938327D01*
X137713838Y-89594799D01*
X137714162Y-89222833D01*
X137572117Y-88879057D01*
X137554100Y-88861009D01*
X137554100Y-86795463D01*
X137586292Y-86763327D01*
X137728938Y-86419799D01*
X137729262Y-86047833D01*
X137587217Y-85704057D01*
X137554100Y-85670882D01*
X137554100Y-82170602D01*
X139647998Y-84264500D01*
X139647998Y-84264500D01*
G37*
X139647998Y-84264500D02*
X138239500Y-84264500D01*
X138190090Y-84274506D01*
X138148465Y-84302947D01*
X138121185Y-84345341D01*
X138112500Y-84391500D01*
X138112500Y-90711200D01*
X137554100Y-90711200D01*
X137554100Y-89955389D01*
X137571192Y-89938327D01*
X137713838Y-89594799D01*
X137714162Y-89222833D01*
X137572117Y-88879057D01*
X137554100Y-88861009D01*
X137554100Y-86795463D01*
X137586292Y-86763327D01*
X137728938Y-86419799D01*
X137729262Y-86047833D01*
X137587217Y-85704057D01*
X137554100Y-85670882D01*
X137554100Y-82170602D01*
X139647998Y-84264500D01*
G36*
X139700000Y-72990664D02*
X140165855Y-72898000D01*
X141774145Y-72898000D01*
X142240000Y-72990664D01*
X142705855Y-72898000D01*
X143192500Y-72898000D01*
X143192500Y-76722870D01*
X143118327Y-76543801D01*
X142939698Y-76365173D01*
X142706309Y-76268500D01*
X141865750Y-76268500D01*
X141707000Y-76427250D01*
X141707000Y-78676500D01*
X141727000Y-78676500D01*
X141727000Y-78930500D01*
X141707000Y-78930500D01*
X141707000Y-81179750D01*
X141865750Y-81338500D01*
X142706309Y-81338500D01*
X142939698Y-81241827D01*
X143118327Y-81063199D01*
X143192500Y-80884130D01*
X143192500Y-84264500D01*
X141754166Y-84264500D01*
X141666701Y-84133599D01*
X137023801Y-79490699D01*
X136915000Y-79418001D01*
X136915000Y-79089250D01*
X139945000Y-79089250D01*
X139945000Y-80829810D01*
X140041673Y-81063199D01*
X140220302Y-81241827D01*
X140453691Y-81338500D01*
X141294250Y-81338500D01*
X141453000Y-81179750D01*
X141453000Y-78930500D01*
X140103750Y-78930500D01*
X139945000Y-79089250D01*
X136915000Y-79089250D01*
X136756250Y-78930500D01*
X135407000Y-78930500D01*
X135407000Y-78950500D01*
X135153000Y-78950500D01*
X135153000Y-78930500D01*
X135133000Y-78930500D01*
X135133000Y-78676500D01*
X135153000Y-78676500D01*
X135153000Y-78656500D01*
X135407000Y-78656500D01*
X135407000Y-78676500D01*
X136756250Y-78676500D01*
X136915000Y-78517750D01*
X136915000Y-77927190D01*
X136818327Y-77693801D01*
X136776366Y-77651840D01*
X136876431Y-77505390D01*
X136927440Y-77253500D01*
X136927440Y-76777190D01*
X139945000Y-76777190D01*
X139945000Y-78517750D01*
X140103750Y-78676500D01*
X141453000Y-78676500D01*
X141453000Y-76427250D01*
X141294250Y-76268500D01*
X140453691Y-76268500D01*
X140220302Y-76365173D01*
X140041673Y-76543801D01*
X139945000Y-76777190D01*
X136927440Y-76777190D01*
X136927440Y-75753500D01*
X136883162Y-75518183D01*
X136744090Y-75302059D01*
X136531890Y-75157069D01*
X136280000Y-75106060D01*
X134280000Y-75106060D01*
X134044683Y-75150338D01*
X133828559Y-75289410D01*
X133683569Y-75501610D01*
X133632560Y-75753500D01*
X133632560Y-77076138D01*
X132715000Y-77993698D01*
X132715000Y-72898000D01*
X139234145Y-72898000D01*
X139700000Y-72990664D01*
X139700000Y-72990664D01*
G37*
X139700000Y-72990664D02*
X140165855Y-72898000D01*
X141774145Y-72898000D01*
X142240000Y-72990664D01*
X142705855Y-72898000D01*
X143192500Y-72898000D01*
X143192500Y-76722870D01*
X143118327Y-76543801D01*
X142939698Y-76365173D01*
X142706309Y-76268500D01*
X141865750Y-76268500D01*
X141707000Y-76427250D01*
X141707000Y-78676500D01*
X141727000Y-78676500D01*
X141727000Y-78930500D01*
X141707000Y-78930500D01*
X141707000Y-81179750D01*
X141865750Y-81338500D01*
X142706309Y-81338500D01*
X142939698Y-81241827D01*
X143118327Y-81063199D01*
X143192500Y-80884130D01*
X143192500Y-84264500D01*
X141754166Y-84264500D01*
X141666701Y-84133599D01*
X137023801Y-79490699D01*
X136915000Y-79418001D01*
X136915000Y-79089250D01*
X139945000Y-79089250D01*
X139945000Y-80829810D01*
X140041673Y-81063199D01*
X140220302Y-81241827D01*
X140453691Y-81338500D01*
X141294250Y-81338500D01*
X141453000Y-81179750D01*
X141453000Y-78930500D01*
X140103750Y-78930500D01*
X139945000Y-79089250D01*
X136915000Y-79089250D01*
X136756250Y-78930500D01*
X135407000Y-78930500D01*
X135407000Y-78950500D01*
X135153000Y-78950500D01*
X135153000Y-78930500D01*
X135133000Y-78930500D01*
X135133000Y-78676500D01*
X135153000Y-78676500D01*
X135153000Y-78656500D01*
X135407000Y-78656500D01*
X135407000Y-78676500D01*
X136756250Y-78676500D01*
X136915000Y-78517750D01*
X136915000Y-77927190D01*
X136818327Y-77693801D01*
X136776366Y-77651840D01*
X136876431Y-77505390D01*
X136927440Y-77253500D01*
X136927440Y-76777190D01*
X139945000Y-76777190D01*
X139945000Y-78517750D01*
X140103750Y-78676500D01*
X141453000Y-78676500D01*
X141453000Y-76427250D01*
X141294250Y-76268500D01*
X140453691Y-76268500D01*
X140220302Y-76365173D01*
X140041673Y-76543801D01*
X139945000Y-76777190D01*
X136927440Y-76777190D01*
X136927440Y-75753500D01*
X136883162Y-75518183D01*
X136744090Y-75302059D01*
X136531890Y-75157069D01*
X136280000Y-75106060D01*
X134280000Y-75106060D01*
X134044683Y-75150338D01*
X133828559Y-75289410D01*
X133683569Y-75501610D01*
X133632560Y-75753500D01*
X133632560Y-77076138D01*
X132715000Y-77993698D01*
X132715000Y-72898000D01*
X139234145Y-72898000D01*
X139700000Y-72990664D01*
G36*
X198630110Y-84352931D02*
X198882000Y-84403940D01*
X199390000Y-84403940D01*
X199625317Y-84359662D01*
X199632500Y-84355040D01*
X199632500Y-92186628D01*
X199516309Y-92138500D01*
X199421750Y-92138500D01*
X199263000Y-92297250D01*
X199263000Y-93218000D01*
X199283000Y-93218000D01*
X199283000Y-93472000D01*
X199263000Y-93472000D01*
X199263000Y-94392750D01*
X199421750Y-94551500D01*
X199516309Y-94551500D01*
X199632500Y-94503372D01*
X199632500Y-95377000D01*
X131705400Y-95377000D01*
X131705400Y-85097900D01*
X131895000Y-85097900D01*
X131953000Y-85086363D01*
X131953000Y-94170500D01*
X131963006Y-94219910D01*
X131991447Y-94261535D01*
X132033841Y-94288815D01*
X132080000Y-94297500D01*
X138747500Y-94297500D01*
X138796910Y-94287494D01*
X138838535Y-94259053D01*
X138865815Y-94216659D01*
X138874500Y-94170500D01*
X138874500Y-93814740D01*
X138891673Y-93856199D01*
X139070302Y-94034827D01*
X139303691Y-94131500D01*
X140144250Y-94131500D01*
X140303000Y-93972750D01*
X140303000Y-92773500D01*
X140557000Y-92773500D01*
X140557000Y-93972750D01*
X140715750Y-94131500D01*
X141556309Y-94131500D01*
X141789698Y-94034827D01*
X141968327Y-93856199D01*
X142065000Y-93622810D01*
X142065000Y-92932250D01*
X141906250Y-92773500D01*
X140557000Y-92773500D01*
X140303000Y-92773500D01*
X140283000Y-92773500D01*
X140283000Y-92519500D01*
X140303000Y-92519500D01*
X140303000Y-91320250D01*
X140557000Y-91320250D01*
X140557000Y-92519500D01*
X141906250Y-92519500D01*
X142065000Y-92360750D01*
X142065000Y-91670190D01*
X141968327Y-91436801D01*
X141789698Y-91258173D01*
X141556309Y-91161500D01*
X140715750Y-91161500D01*
X140557000Y-91320250D01*
X140303000Y-91320250D01*
X140144250Y-91161500D01*
X139303691Y-91161500D01*
X139070302Y-91258173D01*
X138891673Y-91436801D01*
X138874500Y-91478260D01*
X138874500Y-87929956D01*
X139165391Y-88124324D01*
X139700000Y-88230664D01*
X140234609Y-88124324D01*
X140658432Y-87841134D01*
X143966358Y-91149060D01*
X143430000Y-91149060D01*
X143194683Y-91193338D01*
X142978559Y-91332410D01*
X142833569Y-91544610D01*
X142782560Y-91796500D01*
X142782560Y-93496500D01*
X142826838Y-93731817D01*
X142965910Y-93947941D01*
X143178110Y-94092931D01*
X143430000Y-94143940D01*
X143748767Y-94143940D01*
X143892599Y-94359201D01*
X144139161Y-94523948D01*
X144430000Y-94581800D01*
X155401800Y-94581800D01*
X155692639Y-94523948D01*
X155939201Y-94359201D01*
X156265767Y-94032635D01*
X156329000Y-94045440D01*
X157129000Y-94045440D01*
X157364317Y-94001162D01*
X157397345Y-93979909D01*
X157451601Y-94002438D01*
X157823567Y-94002762D01*
X158167343Y-93860717D01*
X158430592Y-93597927D01*
X158573238Y-93254399D01*
X158573562Y-92882433D01*
X158431517Y-92538657D01*
X158283738Y-92390619D01*
X178612613Y-92390619D01*
X178952155Y-93212372D01*
X179580321Y-93841636D01*
X180401481Y-94182611D01*
X181290619Y-94183387D01*
X182112372Y-93843845D01*
X182741636Y-93215679D01*
X183082611Y-92394519D01*
X183083387Y-91505381D01*
X182743845Y-90683628D01*
X182115679Y-90054364D01*
X181294519Y-89713389D01*
X180405381Y-89712613D01*
X179583628Y-90052155D01*
X178954364Y-90680321D01*
X178613389Y-91501481D01*
X178612613Y-92390619D01*
X158283738Y-92390619D01*
X158207608Y-92314357D01*
X158156448Y-92057161D01*
X158083509Y-91948000D01*
X158156448Y-91838839D01*
X158214300Y-91548000D01*
X158214300Y-90351500D01*
X158156448Y-90060661D01*
X157991701Y-89814099D01*
X157287802Y-89110200D01*
X164633600Y-89110200D01*
X164924439Y-89052348D01*
X165171001Y-88887601D01*
X165414802Y-88643800D01*
X176282598Y-88643800D01*
X175898320Y-89028078D01*
X175852833Y-89028038D01*
X175509057Y-89170083D01*
X175245808Y-89432873D01*
X175103162Y-89776401D01*
X175102838Y-90148367D01*
X175244883Y-90492143D01*
X175507673Y-90755392D01*
X175851201Y-90898038D01*
X176223167Y-90898362D01*
X176566943Y-90756317D01*
X176830192Y-90493527D01*
X176972838Y-90149999D01*
X176972879Y-90103123D01*
X177837702Y-89238300D01*
X182790500Y-89238300D01*
X183081339Y-89180448D01*
X183327901Y-89015701D01*
X184486086Y-87857516D01*
X184885391Y-88124324D01*
X185032964Y-88153678D01*
X184997808Y-88188773D01*
X184855162Y-88532301D01*
X184854838Y-88904267D01*
X184996883Y-89248043D01*
X185121592Y-89372969D01*
X185035599Y-89337262D01*
X184663633Y-89336938D01*
X184319857Y-89478983D01*
X184056608Y-89741773D01*
X183913962Y-90085301D01*
X183913638Y-90457267D01*
X184055683Y-90801043D01*
X184318473Y-91064292D01*
X184662001Y-91206938D01*
X184686603Y-91206959D01*
X184590852Y-91350261D01*
X184533000Y-91641100D01*
X184533000Y-92725345D01*
X184161902Y-93095796D01*
X183958232Y-93586287D01*
X183957769Y-94117383D01*
X184160582Y-94608229D01*
X184535796Y-94984098D01*
X185026287Y-95187768D01*
X185557383Y-95188231D01*
X186048229Y-94985418D01*
X186424098Y-94610204D01*
X186563091Y-94275473D01*
X186700582Y-94608229D01*
X187075796Y-94984098D01*
X187566287Y-95187768D01*
X188097383Y-95188231D01*
X188588229Y-94985418D01*
X188964098Y-94610204D01*
X189167768Y-94119713D01*
X189168194Y-93630750D01*
X189357000Y-93630750D01*
X189357000Y-94042810D01*
X189453673Y-94276199D01*
X189632302Y-94454827D01*
X189865691Y-94551500D01*
X189960250Y-94551500D01*
X190119000Y-94392750D01*
X190119000Y-93472000D01*
X189515750Y-93472000D01*
X189357000Y-93630750D01*
X189168194Y-93630750D01*
X189168231Y-93588617D01*
X188965418Y-93097771D01*
X188593000Y-92724703D01*
X188593000Y-92647190D01*
X189357000Y-92647190D01*
X189357000Y-93059250D01*
X189515750Y-93218000D01*
X190119000Y-93218000D01*
X190119000Y-92297250D01*
X189960250Y-92138500D01*
X189865691Y-92138500D01*
X189632302Y-92235173D01*
X189453673Y-92413801D01*
X189357000Y-92647190D01*
X188593000Y-92647190D01*
X188593000Y-92003764D01*
X188705467Y-92003862D01*
X189049243Y-91861817D01*
X189312492Y-91599027D01*
X189455138Y-91255499D01*
X189455201Y-91183688D01*
X189727643Y-91071117D01*
X189990892Y-90808327D01*
X190133538Y-90464799D01*
X190133603Y-90389678D01*
X190459567Y-90389962D01*
X190803343Y-90247917D01*
X191066592Y-89985127D01*
X191209238Y-89641599D01*
X191209279Y-89594723D01*
X191868300Y-88935702D01*
X191868300Y-91021098D01*
X190978599Y-91910799D01*
X190813852Y-92157361D01*
X190803042Y-92211705D01*
X190626309Y-92138500D01*
X190531750Y-92138500D01*
X190373000Y-92297250D01*
X190373000Y-93218000D01*
X190393000Y-93218000D01*
X190393000Y-93472000D01*
X190373000Y-93472000D01*
X190373000Y-94392750D01*
X190531750Y-94551500D01*
X190626309Y-94551500D01*
X190859698Y-94454827D01*
X190886235Y-94428291D01*
X191010110Y-94512931D01*
X191262000Y-94563940D01*
X191770000Y-94563940D01*
X192005317Y-94519662D01*
X192151907Y-94425334D01*
X192280110Y-94512931D01*
X192532000Y-94563940D01*
X193040000Y-94563940D01*
X193275317Y-94519662D01*
X193421907Y-94425334D01*
X193550110Y-94512931D01*
X193802000Y-94563940D01*
X194310000Y-94563940D01*
X194545317Y-94519662D01*
X194691907Y-94425334D01*
X194820110Y-94512931D01*
X195072000Y-94563940D01*
X195580000Y-94563940D01*
X195815317Y-94519662D01*
X195956371Y-94428896D01*
X195982302Y-94454827D01*
X196215691Y-94551500D01*
X196310250Y-94551500D01*
X196469000Y-94392750D01*
X196469000Y-93472000D01*
X196723000Y-93472000D01*
X196723000Y-94392750D01*
X196881750Y-94551500D01*
X196976309Y-94551500D01*
X197209698Y-94454827D01*
X197231000Y-94433525D01*
X197252302Y-94454827D01*
X197485691Y-94551500D01*
X197580250Y-94551500D01*
X197739000Y-94392750D01*
X197739000Y-93472000D01*
X197993000Y-93472000D01*
X197993000Y-94392750D01*
X198151750Y-94551500D01*
X198246309Y-94551500D01*
X198479698Y-94454827D01*
X198501000Y-94433525D01*
X198522302Y-94454827D01*
X198755691Y-94551500D01*
X198850250Y-94551500D01*
X199009000Y-94392750D01*
X199009000Y-93472000D01*
X197993000Y-93472000D01*
X197739000Y-93472000D01*
X196723000Y-93472000D01*
X196469000Y-93472000D01*
X196449000Y-93472000D01*
X196449000Y-93218000D01*
X196469000Y-93218000D01*
X196469000Y-93198000D01*
X196723000Y-93198000D01*
X196723000Y-93218000D01*
X197739000Y-93218000D01*
X197739000Y-92297250D01*
X197993000Y-92297250D01*
X197993000Y-93218000D01*
X199009000Y-93218000D01*
X199009000Y-92297250D01*
X198850250Y-92138500D01*
X198755691Y-92138500D01*
X198522302Y-92235173D01*
X198501000Y-92256475D01*
X198479698Y-92235173D01*
X198246309Y-92138500D01*
X198151750Y-92138500D01*
X197993000Y-92297250D01*
X197739000Y-92297250D01*
X197580250Y-92138500D01*
X197485691Y-92138500D01*
X197252302Y-92235173D01*
X197231000Y-92256475D01*
X197209698Y-92235173D01*
X196976309Y-92138500D01*
X196881750Y-92138500D01*
X196723002Y-92297248D01*
X196723002Y-92138500D01*
X196710502Y-92138500D01*
X196803301Y-92045701D01*
X196968048Y-91799140D01*
X197025900Y-91508300D01*
X197025900Y-88554163D01*
X197058092Y-88522027D01*
X197200738Y-88178499D01*
X197201062Y-87806533D01*
X197059017Y-87462757D01*
X196796227Y-87199508D01*
X196452699Y-87056862D01*
X196080733Y-87056538D01*
X195779200Y-87181129D01*
X195779200Y-86746963D01*
X195811392Y-86714827D01*
X195954038Y-86371299D01*
X195954362Y-85999333D01*
X195812317Y-85655557D01*
X195549527Y-85392308D01*
X195205999Y-85249662D01*
X194834033Y-85249338D01*
X194590046Y-85350151D01*
X194405599Y-85273562D01*
X194033633Y-85273238D01*
X193872986Y-85339616D01*
X194593401Y-84619201D01*
X194758148Y-84372639D01*
X194769013Y-84318018D01*
X194820110Y-84352931D01*
X195072000Y-84403940D01*
X195580000Y-84403940D01*
X195815317Y-84359662D01*
X195961907Y-84265334D01*
X196090110Y-84352931D01*
X196342000Y-84403940D01*
X196850000Y-84403940D01*
X197085317Y-84359662D01*
X197231907Y-84265334D01*
X197360110Y-84352931D01*
X197612000Y-84403940D01*
X198120000Y-84403940D01*
X198355317Y-84359662D01*
X198501907Y-84265334D01*
X198630110Y-84352931D01*
X198630110Y-84352931D01*
G37*
X198630110Y-84352931D02*
X198882000Y-84403940D01*
X199390000Y-84403940D01*
X199625317Y-84359662D01*
X199632500Y-84355040D01*
X199632500Y-92186628D01*
X199516309Y-92138500D01*
X199421750Y-92138500D01*
X199263000Y-92297250D01*
X199263000Y-93218000D01*
X199283000Y-93218000D01*
X199283000Y-93472000D01*
X199263000Y-93472000D01*
X199263000Y-94392750D01*
X199421750Y-94551500D01*
X199516309Y-94551500D01*
X199632500Y-94503372D01*
X199632500Y-95377000D01*
X131705400Y-95377000D01*
X131705400Y-85097900D01*
X131895000Y-85097900D01*
X131953000Y-85086363D01*
X131953000Y-94170500D01*
X131963006Y-94219910D01*
X131991447Y-94261535D01*
X132033841Y-94288815D01*
X132080000Y-94297500D01*
X138747500Y-94297500D01*
X138796910Y-94287494D01*
X138838535Y-94259053D01*
X138865815Y-94216659D01*
X138874500Y-94170500D01*
X138874500Y-93814740D01*
X138891673Y-93856199D01*
X139070302Y-94034827D01*
X139303691Y-94131500D01*
X140144250Y-94131500D01*
X140303000Y-93972750D01*
X140303000Y-92773500D01*
X140557000Y-92773500D01*
X140557000Y-93972750D01*
X140715750Y-94131500D01*
X141556309Y-94131500D01*
X141789698Y-94034827D01*
X141968327Y-93856199D01*
X142065000Y-93622810D01*
X142065000Y-92932250D01*
X141906250Y-92773500D01*
X140557000Y-92773500D01*
X140303000Y-92773500D01*
X140283000Y-92773500D01*
X140283000Y-92519500D01*
X140303000Y-92519500D01*
X140303000Y-91320250D01*
X140557000Y-91320250D01*
X140557000Y-92519500D01*
X141906250Y-92519500D01*
X142065000Y-92360750D01*
X142065000Y-91670190D01*
X141968327Y-91436801D01*
X141789698Y-91258173D01*
X141556309Y-91161500D01*
X140715750Y-91161500D01*
X140557000Y-91320250D01*
X140303000Y-91320250D01*
X140144250Y-91161500D01*
X139303691Y-91161500D01*
X139070302Y-91258173D01*
X138891673Y-91436801D01*
X138874500Y-91478260D01*
X138874500Y-87929956D01*
X139165391Y-88124324D01*
X139700000Y-88230664D01*
X140234609Y-88124324D01*
X140658432Y-87841134D01*
X143966358Y-91149060D01*
X143430000Y-91149060D01*
X143194683Y-91193338D01*
X142978559Y-91332410D01*
X142833569Y-91544610D01*
X142782560Y-91796500D01*
X142782560Y-93496500D01*
X142826838Y-93731817D01*
X142965910Y-93947941D01*
X143178110Y-94092931D01*
X143430000Y-94143940D01*
X143748767Y-94143940D01*
X143892599Y-94359201D01*
X144139161Y-94523948D01*
X144430000Y-94581800D01*
X155401800Y-94581800D01*
X155692639Y-94523948D01*
X155939201Y-94359201D01*
X156265767Y-94032635D01*
X156329000Y-94045440D01*
X157129000Y-94045440D01*
X157364317Y-94001162D01*
X157397345Y-93979909D01*
X157451601Y-94002438D01*
X157823567Y-94002762D01*
X158167343Y-93860717D01*
X158430592Y-93597927D01*
X158573238Y-93254399D01*
X158573562Y-92882433D01*
X158431517Y-92538657D01*
X158283738Y-92390619D01*
X178612613Y-92390619D01*
X178952155Y-93212372D01*
X179580321Y-93841636D01*
X180401481Y-94182611D01*
X181290619Y-94183387D01*
X182112372Y-93843845D01*
X182741636Y-93215679D01*
X183082611Y-92394519D01*
X183083387Y-91505381D01*
X182743845Y-90683628D01*
X182115679Y-90054364D01*
X181294519Y-89713389D01*
X180405381Y-89712613D01*
X179583628Y-90052155D01*
X178954364Y-90680321D01*
X178613389Y-91501481D01*
X178612613Y-92390619D01*
X158283738Y-92390619D01*
X158207608Y-92314357D01*
X158156448Y-92057161D01*
X158083509Y-91948000D01*
X158156448Y-91838839D01*
X158214300Y-91548000D01*
X158214300Y-90351500D01*
X158156448Y-90060661D01*
X157991701Y-89814099D01*
X157287802Y-89110200D01*
X164633600Y-89110200D01*
X164924439Y-89052348D01*
X165171001Y-88887601D01*
X165414802Y-88643800D01*
X176282598Y-88643800D01*
X175898320Y-89028078D01*
X175852833Y-89028038D01*
X175509057Y-89170083D01*
X175245808Y-89432873D01*
X175103162Y-89776401D01*
X175102838Y-90148367D01*
X175244883Y-90492143D01*
X175507673Y-90755392D01*
X175851201Y-90898038D01*
X176223167Y-90898362D01*
X176566943Y-90756317D01*
X176830192Y-90493527D01*
X176972838Y-90149999D01*
X176972879Y-90103123D01*
X177837702Y-89238300D01*
X182790500Y-89238300D01*
X183081339Y-89180448D01*
X183327901Y-89015701D01*
X184486086Y-87857516D01*
X184885391Y-88124324D01*
X185032964Y-88153678D01*
X184997808Y-88188773D01*
X184855162Y-88532301D01*
X184854838Y-88904267D01*
X184996883Y-89248043D01*
X185121592Y-89372969D01*
X185035599Y-89337262D01*
X184663633Y-89336938D01*
X184319857Y-89478983D01*
X184056608Y-89741773D01*
X183913962Y-90085301D01*
X183913638Y-90457267D01*
X184055683Y-90801043D01*
X184318473Y-91064292D01*
X184662001Y-91206938D01*
X184686603Y-91206959D01*
X184590852Y-91350261D01*
X184533000Y-91641100D01*
X184533000Y-92725345D01*
X184161902Y-93095796D01*
X183958232Y-93586287D01*
X183957769Y-94117383D01*
X184160582Y-94608229D01*
X184535796Y-94984098D01*
X185026287Y-95187768D01*
X185557383Y-95188231D01*
X186048229Y-94985418D01*
X186424098Y-94610204D01*
X186563091Y-94275473D01*
X186700582Y-94608229D01*
X187075796Y-94984098D01*
X187566287Y-95187768D01*
X188097383Y-95188231D01*
X188588229Y-94985418D01*
X188964098Y-94610204D01*
X189167768Y-94119713D01*
X189168194Y-93630750D01*
X189357000Y-93630750D01*
X189357000Y-94042810D01*
X189453673Y-94276199D01*
X189632302Y-94454827D01*
X189865691Y-94551500D01*
X189960250Y-94551500D01*
X190119000Y-94392750D01*
X190119000Y-93472000D01*
X189515750Y-93472000D01*
X189357000Y-93630750D01*
X189168194Y-93630750D01*
X189168231Y-93588617D01*
X188965418Y-93097771D01*
X188593000Y-92724703D01*
X188593000Y-92647190D01*
X189357000Y-92647190D01*
X189357000Y-93059250D01*
X189515750Y-93218000D01*
X190119000Y-93218000D01*
X190119000Y-92297250D01*
X189960250Y-92138500D01*
X189865691Y-92138500D01*
X189632302Y-92235173D01*
X189453673Y-92413801D01*
X189357000Y-92647190D01*
X188593000Y-92647190D01*
X188593000Y-92003764D01*
X188705467Y-92003862D01*
X189049243Y-91861817D01*
X189312492Y-91599027D01*
X189455138Y-91255499D01*
X189455201Y-91183688D01*
X189727643Y-91071117D01*
X189990892Y-90808327D01*
X190133538Y-90464799D01*
X190133603Y-90389678D01*
X190459567Y-90389962D01*
X190803343Y-90247917D01*
X191066592Y-89985127D01*
X191209238Y-89641599D01*
X191209279Y-89594723D01*
X191868300Y-88935702D01*
X191868300Y-91021098D01*
X190978599Y-91910799D01*
X190813852Y-92157361D01*
X190803042Y-92211705D01*
X190626309Y-92138500D01*
X190531750Y-92138500D01*
X190373000Y-92297250D01*
X190373000Y-93218000D01*
X190393000Y-93218000D01*
X190393000Y-93472000D01*
X190373000Y-93472000D01*
X190373000Y-94392750D01*
X190531750Y-94551500D01*
X190626309Y-94551500D01*
X190859698Y-94454827D01*
X190886235Y-94428291D01*
X191010110Y-94512931D01*
X191262000Y-94563940D01*
X191770000Y-94563940D01*
X192005317Y-94519662D01*
X192151907Y-94425334D01*
X192280110Y-94512931D01*
X192532000Y-94563940D01*
X193040000Y-94563940D01*
X193275317Y-94519662D01*
X193421907Y-94425334D01*
X193550110Y-94512931D01*
X193802000Y-94563940D01*
X194310000Y-94563940D01*
X194545317Y-94519662D01*
X194691907Y-94425334D01*
X194820110Y-94512931D01*
X195072000Y-94563940D01*
X195580000Y-94563940D01*
X195815317Y-94519662D01*
X195956371Y-94428896D01*
X195982302Y-94454827D01*
X196215691Y-94551500D01*
X196310250Y-94551500D01*
X196469000Y-94392750D01*
X196469000Y-93472000D01*
X196723000Y-93472000D01*
X196723000Y-94392750D01*
X196881750Y-94551500D01*
X196976309Y-94551500D01*
X197209698Y-94454827D01*
X197231000Y-94433525D01*
X197252302Y-94454827D01*
X197485691Y-94551500D01*
X197580250Y-94551500D01*
X197739000Y-94392750D01*
X197739000Y-93472000D01*
X197993000Y-93472000D01*
X197993000Y-94392750D01*
X198151750Y-94551500D01*
X198246309Y-94551500D01*
X198479698Y-94454827D01*
X198501000Y-94433525D01*
X198522302Y-94454827D01*
X198755691Y-94551500D01*
X198850250Y-94551500D01*
X199009000Y-94392750D01*
X199009000Y-93472000D01*
X197993000Y-93472000D01*
X197739000Y-93472000D01*
X196723000Y-93472000D01*
X196469000Y-93472000D01*
X196449000Y-93472000D01*
X196449000Y-93218000D01*
X196469000Y-93218000D01*
X196469000Y-93198000D01*
X196723000Y-93198000D01*
X196723000Y-93218000D01*
X197739000Y-93218000D01*
X197739000Y-92297250D01*
X197993000Y-92297250D01*
X197993000Y-93218000D01*
X199009000Y-93218000D01*
X199009000Y-92297250D01*
X198850250Y-92138500D01*
X198755691Y-92138500D01*
X198522302Y-92235173D01*
X198501000Y-92256475D01*
X198479698Y-92235173D01*
X198246309Y-92138500D01*
X198151750Y-92138500D01*
X197993000Y-92297250D01*
X197739000Y-92297250D01*
X197580250Y-92138500D01*
X197485691Y-92138500D01*
X197252302Y-92235173D01*
X197231000Y-92256475D01*
X197209698Y-92235173D01*
X196976309Y-92138500D01*
X196881750Y-92138500D01*
X196723002Y-92297248D01*
X196723002Y-92138500D01*
X196710502Y-92138500D01*
X196803301Y-92045701D01*
X196968048Y-91799140D01*
X197025900Y-91508300D01*
X197025900Y-88554163D01*
X197058092Y-88522027D01*
X197200738Y-88178499D01*
X197201062Y-87806533D01*
X197059017Y-87462757D01*
X196796227Y-87199508D01*
X196452699Y-87056862D01*
X196080733Y-87056538D01*
X195779200Y-87181129D01*
X195779200Y-86746963D01*
X195811392Y-86714827D01*
X195954038Y-86371299D01*
X195954362Y-85999333D01*
X195812317Y-85655557D01*
X195549527Y-85392308D01*
X195205999Y-85249662D01*
X194834033Y-85249338D01*
X194590046Y-85350151D01*
X194405599Y-85273562D01*
X194033633Y-85273238D01*
X193872986Y-85339616D01*
X194593401Y-84619201D01*
X194758148Y-84372639D01*
X194769013Y-84318018D01*
X194820110Y-84352931D01*
X195072000Y-84403940D01*
X195580000Y-84403940D01*
X195815317Y-84359662D01*
X195961907Y-84265334D01*
X196090110Y-84352931D01*
X196342000Y-84403940D01*
X196850000Y-84403940D01*
X197085317Y-84359662D01*
X197231907Y-84265334D01*
X197360110Y-84352931D01*
X197612000Y-84403940D01*
X198120000Y-84403940D01*
X198355317Y-84359662D01*
X198501907Y-84265334D01*
X198630110Y-84352931D01*
G36*
X185257057Y-57768783D02*
X184993808Y-58031573D01*
X184982219Y-58059483D01*
X184934327Y-58011508D01*
X184590799Y-57868862D01*
X184218833Y-57868538D01*
X183875057Y-58010583D01*
X183611808Y-58273373D01*
X183469162Y-58616901D01*
X183468838Y-58988867D01*
X183610883Y-59332643D01*
X183873673Y-59595892D01*
X184217201Y-59738538D01*
X184264077Y-59738579D01*
X184281899Y-59756401D01*
X184528461Y-59921148D01*
X184819300Y-59979000D01*
X187071035Y-59979000D01*
X187070938Y-60089967D01*
X187212983Y-60433743D01*
X187475773Y-60696992D01*
X187520500Y-60715564D01*
X187520500Y-63065342D01*
X187198000Y-63001193D01*
X186667765Y-63106663D01*
X186218254Y-63407017D01*
X185928000Y-63841412D01*
X185637746Y-63407017D01*
X185188235Y-63106663D01*
X184658000Y-63001193D01*
X184127765Y-63106663D01*
X183678254Y-63407017D01*
X183388000Y-63841412D01*
X183097746Y-63407017D01*
X182648235Y-63106663D01*
X182118000Y-63001193D01*
X181587765Y-63106663D01*
X181151781Y-63397979D01*
X179367154Y-61613352D01*
X179427743Y-61588317D01*
X179690992Y-61325527D01*
X179833638Y-60981999D01*
X179833962Y-60610033D01*
X179691917Y-60266257D01*
X179429127Y-60003008D01*
X179085599Y-59860362D01*
X179038723Y-59860321D01*
X178848501Y-59670099D01*
X178601939Y-59505352D01*
X178311100Y-59447500D01*
X165806876Y-59447500D01*
X165554399Y-59342662D01*
X165182433Y-59342338D01*
X164838657Y-59484383D01*
X164575408Y-59747173D01*
X164432762Y-60090701D01*
X164432643Y-60227500D01*
X144290500Y-60227500D01*
X143999661Y-60285352D01*
X143753099Y-60450099D01*
X142004558Y-62198640D01*
X141665285Y-61971946D01*
X141097000Y-61858907D01*
X140528715Y-61971946D01*
X140046946Y-62293853D01*
X139725039Y-62775622D01*
X139612000Y-63343907D01*
X139612000Y-63402093D01*
X139725039Y-63970378D01*
X140046946Y-64452147D01*
X140528715Y-64774054D01*
X141097000Y-64887093D01*
X141665285Y-64774054D01*
X142147054Y-64452147D01*
X142373790Y-64112812D01*
X142375211Y-64112530D01*
X142441817Y-64254358D01*
X142870076Y-64644645D01*
X143280110Y-64814476D01*
X143510000Y-64693155D01*
X143510000Y-63500000D01*
X143490000Y-63500000D01*
X143490000Y-63246000D01*
X143510000Y-63246000D01*
X143510000Y-63226000D01*
X143764000Y-63226000D01*
X143764000Y-63246000D01*
X143784000Y-63246000D01*
X143784000Y-63500000D01*
X143764000Y-63500000D01*
X143764000Y-64693155D01*
X143993890Y-64814476D01*
X144241600Y-64711878D01*
X144241600Y-65313598D01*
X143147099Y-66408099D01*
X142982352Y-66654661D01*
X142924500Y-66945500D01*
X142924500Y-69328830D01*
X142774609Y-69228676D01*
X142240000Y-69122336D01*
X141705391Y-69228676D01*
X141252172Y-69531508D01*
X140970000Y-69953807D01*
X140687828Y-69531508D01*
X140234609Y-69228676D01*
X139700000Y-69122336D01*
X139165391Y-69228676D01*
X138712172Y-69531508D01*
X138409340Y-69984727D01*
X138303000Y-70519336D01*
X138303000Y-71593664D01*
X138409340Y-72128273D01*
X138414503Y-72136000D01*
X132080000Y-72136000D01*
X132030590Y-72146006D01*
X131988965Y-72174447D01*
X131961685Y-72216841D01*
X131953000Y-72263000D01*
X131953000Y-74251000D01*
X127774200Y-74251000D01*
X127483361Y-74308852D01*
X127236799Y-74473599D01*
X126681249Y-75029149D01*
X126657363Y-75005222D01*
X126379400Y-74889802D01*
X127812402Y-73456800D01*
X128143000Y-73456800D01*
X128433839Y-73398948D01*
X128680401Y-73234201D01*
X128832546Y-73006500D01*
X129554418Y-73006500D01*
X130237508Y-72870625D01*
X130816604Y-72483686D01*
X131203543Y-71904590D01*
X131307158Y-71383683D01*
X131433301Y-71509827D01*
X131666690Y-71606500D01*
X132657250Y-71606500D01*
X132816000Y-71447750D01*
X132816000Y-68848500D01*
X133070000Y-68848500D01*
X133070000Y-71447750D01*
X133228750Y-71606500D01*
X134219310Y-71606500D01*
X134452699Y-71509827D01*
X134631327Y-71331198D01*
X134728000Y-71097809D01*
X134728000Y-69007250D01*
X134569250Y-68848500D01*
X133070000Y-68848500D01*
X132816000Y-68848500D01*
X131316750Y-68848500D01*
X131158000Y-69007250D01*
X131158000Y-70470250D01*
X130816604Y-69959314D01*
X130237508Y-69572375D01*
X129554418Y-69436500D01*
X126731582Y-69436500D01*
X126048492Y-69572375D01*
X125469396Y-69959314D01*
X125082457Y-70538410D01*
X124946582Y-71221500D01*
X125082457Y-71904590D01*
X125469396Y-72483686D01*
X126048492Y-72870625D01*
X126215711Y-72903887D01*
X123821299Y-75298299D01*
X123656552Y-75544861D01*
X123598700Y-75835700D01*
X123598700Y-81623200D01*
X123656552Y-81914039D01*
X123821299Y-82160601D01*
X124163725Y-82503027D01*
X124095284Y-82667852D01*
X124094716Y-83318295D01*
X124271560Y-83746289D01*
X124271560Y-84009500D01*
X124315838Y-84244817D01*
X124454910Y-84460941D01*
X124667110Y-84605931D01*
X124919000Y-84656940D01*
X127569000Y-84656940D01*
X127804317Y-84612662D01*
X128020441Y-84473590D01*
X128056954Y-84420152D01*
X128071452Y-84493039D01*
X128236199Y-84739601D01*
X128371899Y-84875301D01*
X128618461Y-85040048D01*
X128909300Y-85097900D01*
X130185400Y-85097900D01*
X130185400Y-95377000D01*
X122503000Y-95377000D01*
X122503000Y-92644619D01*
X123494613Y-92644619D01*
X123834155Y-93466372D01*
X124462321Y-94095636D01*
X125283481Y-94436611D01*
X126172619Y-94437387D01*
X126994372Y-94097845D01*
X127623636Y-93469679D01*
X127964611Y-92648519D01*
X127965387Y-91759381D01*
X127625845Y-90937628D01*
X126997679Y-90308364D01*
X126176519Y-89967389D01*
X125287381Y-89966613D01*
X124465628Y-90306155D01*
X123836364Y-90934321D01*
X123495389Y-91755481D01*
X123494613Y-92644619D01*
X122503000Y-92644619D01*
X122503000Y-65625464D01*
X125304312Y-65625464D01*
X125345274Y-65787257D01*
X125691012Y-66393883D01*
X126242577Y-66822024D01*
X126916000Y-67006500D01*
X128016000Y-67006500D01*
X128016000Y-65348500D01*
X128270000Y-65348500D01*
X128270000Y-67006500D01*
X129370000Y-67006500D01*
X130043423Y-66822024D01*
X130594988Y-66393883D01*
X130622739Y-66345191D01*
X131158000Y-66345191D01*
X131158000Y-68435750D01*
X131316750Y-68594500D01*
X132816000Y-68594500D01*
X132816000Y-65995250D01*
X133070000Y-65995250D01*
X133070000Y-68594500D01*
X134569250Y-68594500D01*
X134728000Y-68435750D01*
X134728000Y-66345191D01*
X134631327Y-66111802D01*
X134452699Y-65933173D01*
X134219310Y-65836500D01*
X133228750Y-65836500D01*
X133070000Y-65995250D01*
X132816000Y-65995250D01*
X132657250Y-65836500D01*
X131666690Y-65836500D01*
X131433301Y-65933173D01*
X131254673Y-66111802D01*
X131158000Y-66345191D01*
X130622739Y-66345191D01*
X130940726Y-65787257D01*
X130981688Y-65625464D01*
X130864283Y-65348500D01*
X128270000Y-65348500D01*
X128016000Y-65348500D01*
X125421717Y-65348500D01*
X125304312Y-65625464D01*
X122503000Y-65625464D01*
X122503000Y-64817536D01*
X125304312Y-64817536D01*
X125421717Y-65094500D01*
X128016000Y-65094500D01*
X128016000Y-63436500D01*
X128270000Y-63436500D01*
X128270000Y-65094500D01*
X130864283Y-65094500D01*
X130981688Y-64817536D01*
X130940726Y-64655743D01*
X130594988Y-64049117D01*
X130043423Y-63620976D01*
X129370000Y-63436500D01*
X128270000Y-63436500D01*
X128016000Y-63436500D01*
X126916000Y-63436500D01*
X126242577Y-63620976D01*
X125691012Y-64049117D01*
X125345274Y-64655743D01*
X125304312Y-64817536D01*
X122503000Y-64817536D01*
X122503000Y-60513619D01*
X134416613Y-60513619D01*
X134756155Y-61335372D01*
X135384321Y-61964636D01*
X136205481Y-62305611D01*
X137094619Y-62306387D01*
X137916372Y-61966845D01*
X138545636Y-61338679D01*
X138886611Y-60517519D01*
X138887387Y-59628381D01*
X138547845Y-58806628D01*
X137919679Y-58177364D01*
X137098519Y-57836389D01*
X136209381Y-57835613D01*
X135387628Y-58175155D01*
X134758364Y-58803321D01*
X134417389Y-59624481D01*
X134416613Y-60513619D01*
X122503000Y-60513619D01*
X122503000Y-57669500D01*
X185497341Y-57669500D01*
X185257057Y-57768783D01*
X185257057Y-57768783D01*
G37*
X185257057Y-57768783D02*
X184993808Y-58031573D01*
X184982219Y-58059483D01*
X184934327Y-58011508D01*
X184590799Y-57868862D01*
X184218833Y-57868538D01*
X183875057Y-58010583D01*
X183611808Y-58273373D01*
X183469162Y-58616901D01*
X183468838Y-58988867D01*
X183610883Y-59332643D01*
X183873673Y-59595892D01*
X184217201Y-59738538D01*
X184264077Y-59738579D01*
X184281899Y-59756401D01*
X184528461Y-59921148D01*
X184819300Y-59979000D01*
X187071035Y-59979000D01*
X187070938Y-60089967D01*
X187212983Y-60433743D01*
X187475773Y-60696992D01*
X187520500Y-60715564D01*
X187520500Y-63065342D01*
X187198000Y-63001193D01*
X186667765Y-63106663D01*
X186218254Y-63407017D01*
X185928000Y-63841412D01*
X185637746Y-63407017D01*
X185188235Y-63106663D01*
X184658000Y-63001193D01*
X184127765Y-63106663D01*
X183678254Y-63407017D01*
X183388000Y-63841412D01*
X183097746Y-63407017D01*
X182648235Y-63106663D01*
X182118000Y-63001193D01*
X181587765Y-63106663D01*
X181151781Y-63397979D01*
X179367154Y-61613352D01*
X179427743Y-61588317D01*
X179690992Y-61325527D01*
X179833638Y-60981999D01*
X179833962Y-60610033D01*
X179691917Y-60266257D01*
X179429127Y-60003008D01*
X179085599Y-59860362D01*
X179038723Y-59860321D01*
X178848501Y-59670099D01*
X178601939Y-59505352D01*
X178311100Y-59447500D01*
X165806876Y-59447500D01*
X165554399Y-59342662D01*
X165182433Y-59342338D01*
X164838657Y-59484383D01*
X164575408Y-59747173D01*
X164432762Y-60090701D01*
X164432643Y-60227500D01*
X144290500Y-60227500D01*
X143999661Y-60285352D01*
X143753099Y-60450099D01*
X142004558Y-62198640D01*
X141665285Y-61971946D01*
X141097000Y-61858907D01*
X140528715Y-61971946D01*
X140046946Y-62293853D01*
X139725039Y-62775622D01*
X139612000Y-63343907D01*
X139612000Y-63402093D01*
X139725039Y-63970378D01*
X140046946Y-64452147D01*
X140528715Y-64774054D01*
X141097000Y-64887093D01*
X141665285Y-64774054D01*
X142147054Y-64452147D01*
X142373790Y-64112812D01*
X142375211Y-64112530D01*
X142441817Y-64254358D01*
X142870076Y-64644645D01*
X143280110Y-64814476D01*
X143510000Y-64693155D01*
X143510000Y-63500000D01*
X143490000Y-63500000D01*
X143490000Y-63246000D01*
X143510000Y-63246000D01*
X143510000Y-63226000D01*
X143764000Y-63226000D01*
X143764000Y-63246000D01*
X143784000Y-63246000D01*
X143784000Y-63500000D01*
X143764000Y-63500000D01*
X143764000Y-64693155D01*
X143993890Y-64814476D01*
X144241600Y-64711878D01*
X144241600Y-65313598D01*
X143147099Y-66408099D01*
X142982352Y-66654661D01*
X142924500Y-66945500D01*
X142924500Y-69328830D01*
X142774609Y-69228676D01*
X142240000Y-69122336D01*
X141705391Y-69228676D01*
X141252172Y-69531508D01*
X140970000Y-69953807D01*
X140687828Y-69531508D01*
X140234609Y-69228676D01*
X139700000Y-69122336D01*
X139165391Y-69228676D01*
X138712172Y-69531508D01*
X138409340Y-69984727D01*
X138303000Y-70519336D01*
X138303000Y-71593664D01*
X138409340Y-72128273D01*
X138414503Y-72136000D01*
X132080000Y-72136000D01*
X132030590Y-72146006D01*
X131988965Y-72174447D01*
X131961685Y-72216841D01*
X131953000Y-72263000D01*
X131953000Y-74251000D01*
X127774200Y-74251000D01*
X127483361Y-74308852D01*
X127236799Y-74473599D01*
X126681249Y-75029149D01*
X126657363Y-75005222D01*
X126379400Y-74889802D01*
X127812402Y-73456800D01*
X128143000Y-73456800D01*
X128433839Y-73398948D01*
X128680401Y-73234201D01*
X128832546Y-73006500D01*
X129554418Y-73006500D01*
X130237508Y-72870625D01*
X130816604Y-72483686D01*
X131203543Y-71904590D01*
X131307158Y-71383683D01*
X131433301Y-71509827D01*
X131666690Y-71606500D01*
X132657250Y-71606500D01*
X132816000Y-71447750D01*
X132816000Y-68848500D01*
X133070000Y-68848500D01*
X133070000Y-71447750D01*
X133228750Y-71606500D01*
X134219310Y-71606500D01*
X134452699Y-71509827D01*
X134631327Y-71331198D01*
X134728000Y-71097809D01*
X134728000Y-69007250D01*
X134569250Y-68848500D01*
X133070000Y-68848500D01*
X132816000Y-68848500D01*
X131316750Y-68848500D01*
X131158000Y-69007250D01*
X131158000Y-70470250D01*
X130816604Y-69959314D01*
X130237508Y-69572375D01*
X129554418Y-69436500D01*
X126731582Y-69436500D01*
X126048492Y-69572375D01*
X125469396Y-69959314D01*
X125082457Y-70538410D01*
X124946582Y-71221500D01*
X125082457Y-71904590D01*
X125469396Y-72483686D01*
X126048492Y-72870625D01*
X126215711Y-72903887D01*
X123821299Y-75298299D01*
X123656552Y-75544861D01*
X123598700Y-75835700D01*
X123598700Y-81623200D01*
X123656552Y-81914039D01*
X123821299Y-82160601D01*
X124163725Y-82503027D01*
X124095284Y-82667852D01*
X124094716Y-83318295D01*
X124271560Y-83746289D01*
X124271560Y-84009500D01*
X124315838Y-84244817D01*
X124454910Y-84460941D01*
X124667110Y-84605931D01*
X124919000Y-84656940D01*
X127569000Y-84656940D01*
X127804317Y-84612662D01*
X128020441Y-84473590D01*
X128056954Y-84420152D01*
X128071452Y-84493039D01*
X128236199Y-84739601D01*
X128371899Y-84875301D01*
X128618461Y-85040048D01*
X128909300Y-85097900D01*
X130185400Y-85097900D01*
X130185400Y-95377000D01*
X122503000Y-95377000D01*
X122503000Y-92644619D01*
X123494613Y-92644619D01*
X123834155Y-93466372D01*
X124462321Y-94095636D01*
X125283481Y-94436611D01*
X126172619Y-94437387D01*
X126994372Y-94097845D01*
X127623636Y-93469679D01*
X127964611Y-92648519D01*
X127965387Y-91759381D01*
X127625845Y-90937628D01*
X126997679Y-90308364D01*
X126176519Y-89967389D01*
X125287381Y-89966613D01*
X124465628Y-90306155D01*
X123836364Y-90934321D01*
X123495389Y-91755481D01*
X123494613Y-92644619D01*
X122503000Y-92644619D01*
X122503000Y-65625464D01*
X125304312Y-65625464D01*
X125345274Y-65787257D01*
X125691012Y-66393883D01*
X126242577Y-66822024D01*
X126916000Y-67006500D01*
X128016000Y-67006500D01*
X128016000Y-65348500D01*
X128270000Y-65348500D01*
X128270000Y-67006500D01*
X129370000Y-67006500D01*
X130043423Y-66822024D01*
X130594988Y-66393883D01*
X130622739Y-66345191D01*
X131158000Y-66345191D01*
X131158000Y-68435750D01*
X131316750Y-68594500D01*
X132816000Y-68594500D01*
X132816000Y-65995250D01*
X133070000Y-65995250D01*
X133070000Y-68594500D01*
X134569250Y-68594500D01*
X134728000Y-68435750D01*
X134728000Y-66345191D01*
X134631327Y-66111802D01*
X134452699Y-65933173D01*
X134219310Y-65836500D01*
X133228750Y-65836500D01*
X133070000Y-65995250D01*
X132816000Y-65995250D01*
X132657250Y-65836500D01*
X131666690Y-65836500D01*
X131433301Y-65933173D01*
X131254673Y-66111802D01*
X131158000Y-66345191D01*
X130622739Y-66345191D01*
X130940726Y-65787257D01*
X130981688Y-65625464D01*
X130864283Y-65348500D01*
X128270000Y-65348500D01*
X128016000Y-65348500D01*
X125421717Y-65348500D01*
X125304312Y-65625464D01*
X122503000Y-65625464D01*
X122503000Y-64817536D01*
X125304312Y-64817536D01*
X125421717Y-65094500D01*
X128016000Y-65094500D01*
X128016000Y-63436500D01*
X128270000Y-63436500D01*
X128270000Y-65094500D01*
X130864283Y-65094500D01*
X130981688Y-64817536D01*
X130940726Y-64655743D01*
X130594988Y-64049117D01*
X130043423Y-63620976D01*
X129370000Y-63436500D01*
X128270000Y-63436500D01*
X128016000Y-63436500D01*
X126916000Y-63436500D01*
X126242577Y-63620976D01*
X125691012Y-64049117D01*
X125345274Y-64655743D01*
X125304312Y-64817536D01*
X122503000Y-64817536D01*
X122503000Y-60513619D01*
X134416613Y-60513619D01*
X134756155Y-61335372D01*
X135384321Y-61964636D01*
X136205481Y-62305611D01*
X137094619Y-62306387D01*
X137916372Y-61966845D01*
X138545636Y-61338679D01*
X138886611Y-60517519D01*
X138887387Y-59628381D01*
X138547845Y-58806628D01*
X137919679Y-58177364D01*
X137098519Y-57836389D01*
X136209381Y-57835613D01*
X135387628Y-58175155D01*
X134758364Y-58803321D01*
X134417389Y-59624481D01*
X134416613Y-60513619D01*
X122503000Y-60513619D01*
X122503000Y-57669500D01*
X185497341Y-57669500D01*
X185257057Y-57768783D01*
G36*
X149640560Y-91796500D02*
X149640560Y-93061800D01*
X148923000Y-93061800D01*
X148923000Y-92932250D01*
X148764250Y-92773500D01*
X147415000Y-92773500D01*
X147415000Y-92793500D01*
X147161000Y-92793500D01*
X147161000Y-92773500D01*
X147141000Y-92773500D01*
X147141000Y-92519500D01*
X147161000Y-92519500D01*
X147161000Y-92499500D01*
X147415000Y-92499500D01*
X147415000Y-92519500D01*
X148764250Y-92519500D01*
X148923000Y-92360750D01*
X148923000Y-91670190D01*
X148894962Y-91602500D01*
X149679846Y-91602500D01*
X149640560Y-91796500D01*
X149640560Y-91796500D01*
G37*
X149640560Y-91796500D02*
X149640560Y-93061800D01*
X148923000Y-93061800D01*
X148923000Y-92932250D01*
X148764250Y-92773500D01*
X147415000Y-92773500D01*
X147415000Y-92793500D01*
X147161000Y-92793500D01*
X147161000Y-92773500D01*
X147141000Y-92773500D01*
X147141000Y-92519500D01*
X147161000Y-92519500D01*
X147161000Y-92499500D01*
X147415000Y-92499500D01*
X147415000Y-92519500D01*
X148764250Y-92519500D01*
X148923000Y-92360750D01*
X148923000Y-91670190D01*
X148894962Y-91602500D01*
X149679846Y-91602500D01*
X149640560Y-91796500D01*
G36*
X144835699Y-89523101D02*
X145082261Y-89687848D01*
X145373100Y-89745700D01*
X153281610Y-89745700D01*
X153268862Y-89776401D01*
X153268595Y-90082500D01*
X145049402Y-90082500D01*
X142964407Y-87997505D01*
X143171636Y-87859038D01*
X144835699Y-89523101D01*
X144835699Y-89523101D01*
G37*
X144835699Y-89523101D02*
X145082261Y-89687848D01*
X145373100Y-89745700D01*
X153281610Y-89745700D01*
X153268862Y-89776401D01*
X153268595Y-90082500D01*
X145049402Y-90082500D01*
X142964407Y-87997505D01*
X143171636Y-87859038D01*
X144835699Y-89523101D01*
G36*
X177777765Y-79133337D02*
X178308000Y-79238807D01*
X178645000Y-79171774D01*
X178645000Y-80249398D01*
X174722599Y-84171799D01*
X174557852Y-84418361D01*
X174520629Y-84605494D01*
X174272172Y-84771508D01*
X173990000Y-85193807D01*
X173707828Y-84771508D01*
X173254609Y-84468676D01*
X172720000Y-84362336D01*
X172185391Y-84468676D01*
X171732172Y-84771508D01*
X171450000Y-85193807D01*
X171177708Y-84786294D01*
X171503301Y-84460701D01*
X171668048Y-84214140D01*
X171677646Y-84165886D01*
X171725900Y-83923300D01*
X171725900Y-79374697D01*
X171753899Y-79416601D01*
X172884699Y-80547401D01*
X173131261Y-80712148D01*
X173177703Y-80721386D01*
X173217900Y-80923472D01*
X173518254Y-81372983D01*
X173967765Y-81673337D01*
X174498000Y-81778807D01*
X175028235Y-81673337D01*
X175477746Y-81372983D01*
X175778100Y-80923472D01*
X175883570Y-80393237D01*
X175883570Y-79655500D01*
X176344500Y-79655500D01*
X176635339Y-79597648D01*
X176881901Y-79432901D01*
X177420309Y-78894493D01*
X177777765Y-79133337D01*
X177777765Y-79133337D01*
G37*
X177777765Y-79133337D02*
X178308000Y-79238807D01*
X178645000Y-79171774D01*
X178645000Y-80249398D01*
X174722599Y-84171799D01*
X174557852Y-84418361D01*
X174520629Y-84605494D01*
X174272172Y-84771508D01*
X173990000Y-85193807D01*
X173707828Y-84771508D01*
X173254609Y-84468676D01*
X172720000Y-84362336D01*
X172185391Y-84468676D01*
X171732172Y-84771508D01*
X171450000Y-85193807D01*
X171177708Y-84786294D01*
X171503301Y-84460701D01*
X171668048Y-84214140D01*
X171677646Y-84165886D01*
X171725900Y-83923300D01*
X171725900Y-79374697D01*
X171753899Y-79416601D01*
X172884699Y-80547401D01*
X173131261Y-80712148D01*
X173177703Y-80721386D01*
X173217900Y-80923472D01*
X173518254Y-81372983D01*
X173967765Y-81673337D01*
X174498000Y-81778807D01*
X175028235Y-81673337D01*
X175477746Y-81372983D01*
X175778100Y-80923472D01*
X175883570Y-80393237D01*
X175883570Y-79655500D01*
X176344500Y-79655500D01*
X176635339Y-79597648D01*
X176881901Y-79432901D01*
X177420309Y-78894493D01*
X177777765Y-79133337D01*
G36*
X170205900Y-83608498D02*
X169642599Y-84171799D01*
X169477852Y-84418361D01*
X169440629Y-84605494D01*
X169192172Y-84771508D01*
X168910000Y-85193807D01*
X168627828Y-84771508D01*
X168174609Y-84468676D01*
X168031160Y-84440142D01*
X170205900Y-82265402D01*
X170205900Y-83608498D01*
X170205900Y-83608498D01*
G37*
X170205900Y-83608498D02*
X169642599Y-84171799D01*
X169477852Y-84418361D01*
X169440629Y-84605494D01*
X169192172Y-84771508D01*
X168910000Y-85193807D01*
X168627828Y-84771508D01*
X168174609Y-84468676D01*
X168031160Y-84440142D01*
X170205900Y-82265402D01*
X170205900Y-83608498D01*
G36*
X158925000Y-80861690D02*
X158925000Y-81502250D01*
X159083750Y-81661000D01*
X160433000Y-81661000D01*
X160433000Y-81641000D01*
X160687000Y-81641000D01*
X160687000Y-81661000D01*
X162036250Y-81661000D01*
X162195000Y-81502250D01*
X162195000Y-80861690D01*
X162157021Y-80770000D01*
X165567373Y-80770000D01*
X165597900Y-80923472D01*
X165898254Y-81372983D01*
X166347765Y-81673337D01*
X166878000Y-81778807D01*
X167408235Y-81673337D01*
X167857746Y-81372983D01*
X168158100Y-80923472D01*
X168159601Y-80915928D01*
X168186501Y-81006817D01*
X168528056Y-81428798D01*
X168764469Y-81557229D01*
X166372498Y-83949200D01*
X165100000Y-83949200D01*
X164809161Y-84007052D01*
X164562599Y-84171799D01*
X164397852Y-84418361D01*
X164360629Y-84605494D01*
X164112172Y-84771508D01*
X163830000Y-85193807D01*
X163547828Y-84771508D01*
X163094609Y-84468676D01*
X162560000Y-84362336D01*
X162025391Y-84468676D01*
X161572172Y-84771508D01*
X161290000Y-85193807D01*
X161007828Y-84771508D01*
X160554609Y-84468676D01*
X160020000Y-84362336D01*
X159485391Y-84468676D01*
X159032172Y-84771508D01*
X158750000Y-85193807D01*
X158467828Y-84771508D01*
X158219371Y-84605494D01*
X158182148Y-84418361D01*
X158017401Y-84171799D01*
X157770839Y-84007052D01*
X157501473Y-83953471D01*
X156783442Y-83235440D01*
X157560000Y-83235440D01*
X157795317Y-83191162D01*
X158011441Y-83052090D01*
X158156431Y-82839890D01*
X158207440Y-82588000D01*
X158207440Y-82073750D01*
X158925000Y-82073750D01*
X158925000Y-82714310D01*
X159021673Y-82947699D01*
X159200302Y-83126327D01*
X159433691Y-83223000D01*
X160274250Y-83223000D01*
X160433000Y-83064250D01*
X160433000Y-81915000D01*
X160687000Y-81915000D01*
X160687000Y-83064250D01*
X160845750Y-83223000D01*
X161686309Y-83223000D01*
X161919698Y-83126327D01*
X162098327Y-82947699D01*
X162195000Y-82714310D01*
X162195000Y-82073750D01*
X162036250Y-81915000D01*
X160687000Y-81915000D01*
X160433000Y-81915000D01*
X159083750Y-81915000D01*
X158925000Y-82073750D01*
X158207440Y-82073750D01*
X158207440Y-80988000D01*
X158166420Y-80770000D01*
X158962979Y-80770000D01*
X158925000Y-80861690D01*
X158925000Y-80861690D01*
G37*
X158925000Y-80861690D02*
X158925000Y-81502250D01*
X159083750Y-81661000D01*
X160433000Y-81661000D01*
X160433000Y-81641000D01*
X160687000Y-81641000D01*
X160687000Y-81661000D01*
X162036250Y-81661000D01*
X162195000Y-81502250D01*
X162195000Y-80861690D01*
X162157021Y-80770000D01*
X165567373Y-80770000D01*
X165597900Y-80923472D01*
X165898254Y-81372983D01*
X166347765Y-81673337D01*
X166878000Y-81778807D01*
X167408235Y-81673337D01*
X167857746Y-81372983D01*
X168158100Y-80923472D01*
X168159601Y-80915928D01*
X168186501Y-81006817D01*
X168528056Y-81428798D01*
X168764469Y-81557229D01*
X166372498Y-83949200D01*
X165100000Y-83949200D01*
X164809161Y-84007052D01*
X164562599Y-84171799D01*
X164397852Y-84418361D01*
X164360629Y-84605494D01*
X164112172Y-84771508D01*
X163830000Y-85193807D01*
X163547828Y-84771508D01*
X163094609Y-84468676D01*
X162560000Y-84362336D01*
X162025391Y-84468676D01*
X161572172Y-84771508D01*
X161290000Y-85193807D01*
X161007828Y-84771508D01*
X160554609Y-84468676D01*
X160020000Y-84362336D01*
X159485391Y-84468676D01*
X159032172Y-84771508D01*
X158750000Y-85193807D01*
X158467828Y-84771508D01*
X158219371Y-84605494D01*
X158182148Y-84418361D01*
X158017401Y-84171799D01*
X157770839Y-84007052D01*
X157501473Y-83953471D01*
X156783442Y-83235440D01*
X157560000Y-83235440D01*
X157795317Y-83191162D01*
X158011441Y-83052090D01*
X158156431Y-82839890D01*
X158207440Y-82588000D01*
X158207440Y-82073750D01*
X158925000Y-82073750D01*
X158925000Y-82714310D01*
X159021673Y-82947699D01*
X159200302Y-83126327D01*
X159433691Y-83223000D01*
X160274250Y-83223000D01*
X160433000Y-83064250D01*
X160433000Y-81915000D01*
X160687000Y-81915000D01*
X160687000Y-83064250D01*
X160845750Y-83223000D01*
X161686309Y-83223000D01*
X161919698Y-83126327D01*
X162098327Y-82947699D01*
X162195000Y-82714310D01*
X162195000Y-82073750D01*
X162036250Y-81915000D01*
X160687000Y-81915000D01*
X160433000Y-81915000D01*
X159083750Y-81915000D01*
X158925000Y-82073750D01*
X158207440Y-82073750D01*
X158207440Y-80988000D01*
X158166420Y-80770000D01*
X158962979Y-80770000D01*
X158925000Y-80861690D01*
G36*
X179961000Y-81661000D02*
X180018852Y-81951839D01*
X180183599Y-82198401D01*
X180584233Y-82599035D01*
X180584138Y-82707967D01*
X180726183Y-83051743D01*
X180988973Y-83314992D01*
X181219888Y-83410877D01*
X181219638Y-83698167D01*
X181361683Y-84041943D01*
X181624473Y-84305192D01*
X181968001Y-84447838D01*
X182120000Y-84447970D01*
X182120000Y-84619278D01*
X181892172Y-84771508D01*
X181610000Y-85193807D01*
X181327828Y-84771508D01*
X180874609Y-84468676D01*
X180340000Y-84362336D01*
X179805391Y-84468676D01*
X179352172Y-84771508D01*
X179070000Y-85193807D01*
X178787828Y-84771508D01*
X178334609Y-84468676D01*
X177800000Y-84362336D01*
X177265391Y-84468676D01*
X176812172Y-84771508D01*
X176530000Y-85193807D01*
X176257708Y-84786294D01*
X179942401Y-81101601D01*
X179961000Y-81073766D01*
X179961000Y-81661000D01*
X179961000Y-81661000D01*
G37*
X179961000Y-81661000D02*
X180018852Y-81951839D01*
X180183599Y-82198401D01*
X180584233Y-82599035D01*
X180584138Y-82707967D01*
X180726183Y-83051743D01*
X180988973Y-83314992D01*
X181219888Y-83410877D01*
X181219638Y-83698167D01*
X181361683Y-84041943D01*
X181624473Y-84305192D01*
X181968001Y-84447838D01*
X182120000Y-84447970D01*
X182120000Y-84619278D01*
X181892172Y-84771508D01*
X181610000Y-85193807D01*
X181327828Y-84771508D01*
X180874609Y-84468676D01*
X180340000Y-84362336D01*
X179805391Y-84468676D01*
X179352172Y-84771508D01*
X179070000Y-85193807D01*
X178787828Y-84771508D01*
X178334609Y-84468676D01*
X177800000Y-84362336D01*
X177265391Y-84468676D01*
X176812172Y-84771508D01*
X176530000Y-85193807D01*
X176257708Y-84786294D01*
X179942401Y-81101601D01*
X179961000Y-81073766D01*
X179961000Y-81661000D01*
G36*
X184885391Y-72884324D02*
X185305000Y-72967789D01*
X185305000Y-80896037D01*
X185272808Y-80928173D01*
X185130162Y-81271701D01*
X185129838Y-81643667D01*
X185271883Y-81987443D01*
X185534673Y-82250692D01*
X185878201Y-82393338D01*
X186108200Y-82393538D01*
X186108200Y-83942539D01*
X185986357Y-83992883D01*
X185723108Y-84255673D01*
X185659071Y-84409890D01*
X185420000Y-84362336D01*
X184885391Y-84468676D01*
X184730700Y-84572037D01*
X184730700Y-72780963D01*
X184885391Y-72884324D01*
X184885391Y-72884324D01*
G37*
X184885391Y-72884324D02*
X185305000Y-72967789D01*
X185305000Y-80896037D01*
X185272808Y-80928173D01*
X185130162Y-81271701D01*
X185129838Y-81643667D01*
X185271883Y-81987443D01*
X185534673Y-82250692D01*
X185878201Y-82393338D01*
X186108200Y-82393538D01*
X186108200Y-83942539D01*
X185986357Y-83992883D01*
X185723108Y-84255673D01*
X185659071Y-84409890D01*
X185420000Y-84362336D01*
X184885391Y-84468676D01*
X184730700Y-84572037D01*
X184730700Y-72780963D01*
X184885391Y-72884324D01*
G36*
X144876000Y-80343700D02*
X144878248Y-80355002D01*
X144719683Y-80384838D01*
X144503559Y-80523910D01*
X144358569Y-80736110D01*
X144307560Y-80988000D01*
X144307560Y-82588000D01*
X144351838Y-82823317D01*
X144490910Y-83039441D01*
X144601021Y-83114677D01*
X143954500Y-83761198D01*
X143954500Y-78409440D01*
X144876000Y-78409440D01*
X144876000Y-80343700D01*
X144876000Y-80343700D01*
G37*
X144876000Y-80343700D02*
X144878248Y-80355002D01*
X144719683Y-80384838D01*
X144503559Y-80523910D01*
X144358569Y-80736110D01*
X144307560Y-80988000D01*
X144307560Y-82588000D01*
X144351838Y-82823317D01*
X144490910Y-83039441D01*
X144601021Y-83114677D01*
X143954500Y-83761198D01*
X143954500Y-78409440D01*
X144876000Y-78409440D01*
X144876000Y-80343700D01*
G36*
X148872172Y-72581492D02*
X149325391Y-72884324D01*
X149860000Y-72990664D01*
X150394609Y-72884324D01*
X150552600Y-72778758D01*
X150552600Y-73967000D01*
X150610452Y-74257839D01*
X150775199Y-74504401D01*
X151797798Y-75527000D01*
X151321750Y-75527000D01*
X151163000Y-75685750D01*
X151163000Y-76835000D01*
X151183000Y-76835000D01*
X151183000Y-77089000D01*
X151163000Y-77089000D01*
X151163000Y-78238250D01*
X151321750Y-78397000D01*
X152360400Y-78397000D01*
X152360400Y-81764500D01*
X151590000Y-81764500D01*
X151590000Y-81660998D01*
X151431252Y-81660998D01*
X151590000Y-81502250D01*
X151590000Y-80861690D01*
X151493327Y-80628301D01*
X151314698Y-80449673D01*
X151081309Y-80353000D01*
X150240750Y-80353000D01*
X150082000Y-80511750D01*
X150082000Y-81661000D01*
X150102000Y-81661000D01*
X150102000Y-81915000D01*
X150082000Y-81915000D01*
X150082000Y-81935000D01*
X149828000Y-81935000D01*
X149828000Y-81915000D01*
X149808000Y-81915000D01*
X149808000Y-81661000D01*
X149828000Y-81661000D01*
X149828000Y-80511750D01*
X149669250Y-80353000D01*
X149375200Y-80353000D01*
X149375200Y-78397000D01*
X150750250Y-78397000D01*
X150909000Y-78238250D01*
X150909000Y-77089000D01*
X150889000Y-77089000D01*
X150889000Y-76835000D01*
X150909000Y-76835000D01*
X150909000Y-75685750D01*
X150750250Y-75527000D01*
X149375200Y-75527000D01*
X149375200Y-75205300D01*
X149317348Y-74914461D01*
X149298700Y-74886552D01*
X149152602Y-74667899D01*
X147449589Y-72964887D01*
X147854609Y-72884324D01*
X148307828Y-72581492D01*
X148590000Y-72159193D01*
X148872172Y-72581492D01*
X148872172Y-72581492D01*
G37*
X148872172Y-72581492D02*
X149325391Y-72884324D01*
X149860000Y-72990664D01*
X150394609Y-72884324D01*
X150552600Y-72778758D01*
X150552600Y-73967000D01*
X150610452Y-74257839D01*
X150775199Y-74504401D01*
X151797798Y-75527000D01*
X151321750Y-75527000D01*
X151163000Y-75685750D01*
X151163000Y-76835000D01*
X151183000Y-76835000D01*
X151183000Y-77089000D01*
X151163000Y-77089000D01*
X151163000Y-78238250D01*
X151321750Y-78397000D01*
X152360400Y-78397000D01*
X152360400Y-81764500D01*
X151590000Y-81764500D01*
X151590000Y-81660998D01*
X151431252Y-81660998D01*
X151590000Y-81502250D01*
X151590000Y-80861690D01*
X151493327Y-80628301D01*
X151314698Y-80449673D01*
X151081309Y-80353000D01*
X150240750Y-80353000D01*
X150082000Y-80511750D01*
X150082000Y-81661000D01*
X150102000Y-81661000D01*
X150102000Y-81915000D01*
X150082000Y-81915000D01*
X150082000Y-81935000D01*
X149828000Y-81935000D01*
X149828000Y-81915000D01*
X149808000Y-81915000D01*
X149808000Y-81661000D01*
X149828000Y-81661000D01*
X149828000Y-80511750D01*
X149669250Y-80353000D01*
X149375200Y-80353000D01*
X149375200Y-78397000D01*
X150750250Y-78397000D01*
X150909000Y-78238250D01*
X150909000Y-77089000D01*
X150889000Y-77089000D01*
X150889000Y-76835000D01*
X150909000Y-76835000D01*
X150909000Y-75685750D01*
X150750250Y-75527000D01*
X149375200Y-75527000D01*
X149375200Y-75205300D01*
X149317348Y-74914461D01*
X149298700Y-74886552D01*
X149152602Y-74667899D01*
X147449589Y-72964887D01*
X147854609Y-72884324D01*
X148307828Y-72581492D01*
X148590000Y-72159193D01*
X148872172Y-72581492D01*
G36*
X199632500Y-81723470D02*
X199426839Y-81586052D01*
X199186933Y-81538331D01*
X198923222Y-81274620D01*
X198923262Y-81229133D01*
X198781217Y-80885357D01*
X198518427Y-80622108D01*
X198174899Y-80479462D01*
X197802933Y-80479138D01*
X197459157Y-80621183D01*
X197195908Y-80883973D01*
X197124249Y-81056547D01*
X195336022Y-79268320D01*
X195336062Y-79222833D01*
X195194017Y-78879057D01*
X195170571Y-78855570D01*
X195201237Y-78855570D01*
X195731472Y-78750100D01*
X196180983Y-78449746D01*
X196481337Y-78000235D01*
X196586807Y-77470000D01*
X196481337Y-76939765D01*
X196180983Y-76490254D01*
X195746588Y-76200000D01*
X196180983Y-75909746D01*
X196481337Y-75460235D01*
X196586807Y-74930000D01*
X196481337Y-74399765D01*
X196180983Y-73950254D01*
X195731472Y-73649900D01*
X195723928Y-73648399D01*
X195814817Y-73621499D01*
X196236798Y-73279944D01*
X196372833Y-73029535D01*
X197854378Y-74511080D01*
X197735362Y-74797701D01*
X197735038Y-75169667D01*
X197877083Y-75513443D01*
X198139873Y-75776692D01*
X198483401Y-75919338D01*
X198855367Y-75919662D01*
X199199143Y-75777617D01*
X199462392Y-75514827D01*
X199605038Y-75171299D01*
X199605362Y-74799333D01*
X199463317Y-74455557D01*
X199430200Y-74422382D01*
X199430200Y-74252100D01*
X199372348Y-73961261D01*
X199372348Y-73961260D01*
X199207601Y-73714699D01*
X195289704Y-69796802D01*
X195523943Y-69700017D01*
X195787192Y-69437227D01*
X195929838Y-69093699D01*
X195930162Y-68721733D01*
X195788117Y-68377957D01*
X195755000Y-68344782D01*
X195755000Y-65628000D01*
X195697148Y-65337161D01*
X195532401Y-65090599D01*
X195532100Y-65090398D01*
X195164022Y-64722320D01*
X195164062Y-64676833D01*
X195022017Y-64333057D01*
X194759227Y-64069808D01*
X194415699Y-63927162D01*
X194043733Y-63926838D01*
X193778600Y-64036388D01*
X193778600Y-61352200D01*
X193730517Y-61110472D01*
X193730662Y-60943933D01*
X193588617Y-60600157D01*
X193502230Y-60513619D01*
X194487613Y-60513619D01*
X194827155Y-61335372D01*
X195455321Y-61964636D01*
X196276481Y-62305611D01*
X197165619Y-62306387D01*
X197987372Y-61966845D01*
X198616636Y-61338679D01*
X198957611Y-60517519D01*
X198958387Y-59628381D01*
X198618845Y-58806628D01*
X197990679Y-58177364D01*
X197169519Y-57836389D01*
X196280381Y-57835613D01*
X195458628Y-58175155D01*
X194829364Y-58803321D01*
X194488389Y-59624481D01*
X194487613Y-60513619D01*
X193502230Y-60513619D01*
X193325827Y-60336908D01*
X192982299Y-60194262D01*
X192610333Y-60193938D01*
X192266557Y-60335983D01*
X192003308Y-60598773D01*
X191860662Y-60942301D01*
X191860484Y-61146382D01*
X188738601Y-58024499D01*
X188492039Y-57859752D01*
X188201200Y-57801900D01*
X186348463Y-57801900D01*
X186316327Y-57769708D01*
X186075001Y-57669500D01*
X199632500Y-57669500D01*
X199632500Y-81723470D01*
X199632500Y-81723470D01*
G37*
X199632500Y-81723470D02*
X199426839Y-81586052D01*
X199186933Y-81538331D01*
X198923222Y-81274620D01*
X198923262Y-81229133D01*
X198781217Y-80885357D01*
X198518427Y-80622108D01*
X198174899Y-80479462D01*
X197802933Y-80479138D01*
X197459157Y-80621183D01*
X197195908Y-80883973D01*
X197124249Y-81056547D01*
X195336022Y-79268320D01*
X195336062Y-79222833D01*
X195194017Y-78879057D01*
X195170571Y-78855570D01*
X195201237Y-78855570D01*
X195731472Y-78750100D01*
X196180983Y-78449746D01*
X196481337Y-78000235D01*
X196586807Y-77470000D01*
X196481337Y-76939765D01*
X196180983Y-76490254D01*
X195746588Y-76200000D01*
X196180983Y-75909746D01*
X196481337Y-75460235D01*
X196586807Y-74930000D01*
X196481337Y-74399765D01*
X196180983Y-73950254D01*
X195731472Y-73649900D01*
X195723928Y-73648399D01*
X195814817Y-73621499D01*
X196236798Y-73279944D01*
X196372833Y-73029535D01*
X197854378Y-74511080D01*
X197735362Y-74797701D01*
X197735038Y-75169667D01*
X197877083Y-75513443D01*
X198139873Y-75776692D01*
X198483401Y-75919338D01*
X198855367Y-75919662D01*
X199199143Y-75777617D01*
X199462392Y-75514827D01*
X199605038Y-75171299D01*
X199605362Y-74799333D01*
X199463317Y-74455557D01*
X199430200Y-74422382D01*
X199430200Y-74252100D01*
X199372348Y-73961261D01*
X199372348Y-73961260D01*
X199207601Y-73714699D01*
X195289704Y-69796802D01*
X195523943Y-69700017D01*
X195787192Y-69437227D01*
X195929838Y-69093699D01*
X195930162Y-68721733D01*
X195788117Y-68377957D01*
X195755000Y-68344782D01*
X195755000Y-65628000D01*
X195697148Y-65337161D01*
X195532401Y-65090599D01*
X195532100Y-65090398D01*
X195164022Y-64722320D01*
X195164062Y-64676833D01*
X195022017Y-64333057D01*
X194759227Y-64069808D01*
X194415699Y-63927162D01*
X194043733Y-63926838D01*
X193778600Y-64036388D01*
X193778600Y-61352200D01*
X193730517Y-61110472D01*
X193730662Y-60943933D01*
X193588617Y-60600157D01*
X193502230Y-60513619D01*
X194487613Y-60513619D01*
X194827155Y-61335372D01*
X195455321Y-61964636D01*
X196276481Y-62305611D01*
X197165619Y-62306387D01*
X197987372Y-61966845D01*
X198616636Y-61338679D01*
X198957611Y-60517519D01*
X198958387Y-59628381D01*
X198618845Y-58806628D01*
X197990679Y-58177364D01*
X197169519Y-57836389D01*
X196280381Y-57835613D01*
X195458628Y-58175155D01*
X194829364Y-58803321D01*
X194488389Y-59624481D01*
X194487613Y-60513619D01*
X193502230Y-60513619D01*
X193325827Y-60336908D01*
X192982299Y-60194262D01*
X192610333Y-60193938D01*
X192266557Y-60335983D01*
X192003308Y-60598773D01*
X191860662Y-60942301D01*
X191860484Y-61146382D01*
X188738601Y-58024499D01*
X188492039Y-57859752D01*
X188201200Y-57801900D01*
X186348463Y-57801900D01*
X186316327Y-57769708D01*
X186075001Y-57669500D01*
X199632500Y-57669500D01*
X199632500Y-81723470D01*
G36*
X128071452Y-77471361D02*
X128013600Y-77762200D01*
X128013600Y-81514742D01*
X127820890Y-81383069D01*
X127569000Y-81332060D01*
X125142362Y-81332060D01*
X125118700Y-81308398D01*
X125118700Y-77907018D01*
X125403352Y-78025216D01*
X126053795Y-78025784D01*
X126654943Y-77777394D01*
X126944903Y-77487940D01*
X127770000Y-77487940D01*
X128005317Y-77443662D01*
X128153803Y-77348114D01*
X128071452Y-77471361D01*
X128071452Y-77471361D01*
G37*
X128071452Y-77471361D02*
X128013600Y-77762200D01*
X128013600Y-81514742D01*
X127820890Y-81383069D01*
X127569000Y-81332060D01*
X125142362Y-81332060D01*
X125118700Y-81308398D01*
X125118700Y-77907018D01*
X125403352Y-78025216D01*
X126053795Y-78025784D01*
X126654943Y-77777394D01*
X126944903Y-77487940D01*
X127770000Y-77487940D01*
X128005317Y-77443662D01*
X128153803Y-77348114D01*
X128071452Y-77471361D01*
G36*
X155512599Y-78624701D02*
X156452700Y-79564802D01*
X156452700Y-79695198D01*
X156022599Y-80125299D01*
X155878767Y-80340560D01*
X155560000Y-80340560D01*
X155324683Y-80384838D01*
X155108559Y-80523910D01*
X154963569Y-80736110D01*
X154912560Y-80988000D01*
X154912560Y-81364558D01*
X154734600Y-81186598D01*
X154734600Y-78409440D01*
X155368767Y-78409440D01*
X155512599Y-78624701D01*
X155512599Y-78624701D01*
G37*
X155512599Y-78624701D02*
X156452700Y-79564802D01*
X156452700Y-79695198D01*
X156022599Y-80125299D01*
X155878767Y-80340560D01*
X155560000Y-80340560D01*
X155324683Y-80384838D01*
X155108559Y-80523910D01*
X154963569Y-80736110D01*
X154912560Y-80988000D01*
X154912560Y-81364558D01*
X154734600Y-81186598D01*
X154734600Y-78409440D01*
X155368767Y-78409440D01*
X155512599Y-78624701D01*
G36*
X131953000Y-78755698D02*
X130272599Y-80436099D01*
X130107852Y-80682661D01*
X130050000Y-80973500D01*
X130050000Y-81332060D01*
X129533600Y-81332060D01*
X129533600Y-78077002D01*
X129863747Y-77746855D01*
X129882637Y-77765778D01*
X130483352Y-78015216D01*
X131133795Y-78015784D01*
X131734943Y-77767394D01*
X131953000Y-77549718D01*
X131953000Y-78755698D01*
X131953000Y-78755698D01*
G37*
X131953000Y-78755698D02*
X130272599Y-80436099D01*
X130107852Y-80682661D01*
X130050000Y-80973500D01*
X130050000Y-81332060D01*
X129533600Y-81332060D01*
X129533600Y-78077002D01*
X129863747Y-77746855D01*
X129882637Y-77765778D01*
X130483352Y-78015216D01*
X131133795Y-78015784D01*
X131734943Y-77767394D01*
X131953000Y-77549718D01*
X131953000Y-78755698D01*
G36*
X146954600Y-80340560D02*
X146636233Y-80340560D01*
X146492401Y-80125299D01*
X146396000Y-80028898D01*
X146396000Y-78409440D01*
X146954600Y-78409440D01*
X146954600Y-80340560D01*
X146954600Y-80340560D01*
G37*
X146954600Y-80340560D02*
X146636233Y-80340560D01*
X146492401Y-80125299D01*
X146396000Y-80028898D01*
X146396000Y-78409440D01*
X146954600Y-78409440D01*
X146954600Y-80340560D01*
G36*
X169545000Y-79883000D02*
X169565000Y-79883000D01*
X169565000Y-80137000D01*
X169545000Y-80137000D01*
X169545000Y-80157000D01*
X169291000Y-80157000D01*
X169291000Y-80137000D01*
X169271000Y-80137000D01*
X169271000Y-79883000D01*
X169291000Y-79883000D01*
X169291000Y-79863000D01*
X169545000Y-79863000D01*
X169545000Y-79883000D01*
X169545000Y-79883000D01*
G37*
X169545000Y-79883000D02*
X169565000Y-79883000D01*
X169565000Y-80137000D01*
X169545000Y-80137000D01*
X169545000Y-80157000D01*
X169291000Y-80157000D01*
X169291000Y-80137000D01*
X169271000Y-80137000D01*
X169271000Y-79883000D01*
X169291000Y-79883000D01*
X169291000Y-79863000D01*
X169545000Y-79863000D01*
X169545000Y-79883000D01*
G36*
X180215000Y-76514802D02*
X180215000Y-79568198D01*
X180183599Y-79599599D01*
X180165000Y-79627434D01*
X180165000Y-76681900D01*
X180111093Y-76410895D01*
X180215000Y-76514802D01*
X180215000Y-76514802D01*
G37*
X180215000Y-76514802D02*
X180215000Y-79568198D01*
X180183599Y-79599599D01*
X180165000Y-79627434D01*
X180165000Y-76681900D01*
X180111093Y-76410895D01*
X180215000Y-76514802D01*
G36*
X159032172Y-72581492D02*
X159280629Y-72747506D01*
X159317852Y-72934639D01*
X159482599Y-73181201D01*
X159932899Y-73631501D01*
X160179460Y-73796248D01*
X160470300Y-73854100D01*
X165124600Y-73854100D01*
X165415439Y-73796248D01*
X165662001Y-73631501D01*
X166688042Y-72605460D01*
X167105391Y-72884324D01*
X167640000Y-72990664D01*
X168123300Y-72894530D01*
X168123300Y-77583100D01*
X168181152Y-77873939D01*
X168345899Y-78120501D01*
X168715028Y-78489630D01*
X168528056Y-78591202D01*
X168186501Y-79013183D01*
X168159601Y-79104072D01*
X168158100Y-79096528D01*
X167857746Y-78647017D01*
X167408235Y-78346663D01*
X166878000Y-78241193D01*
X166347765Y-78346663D01*
X165898254Y-78647017D01*
X165597900Y-79096528D01*
X165567373Y-79250000D01*
X157972700Y-79250000D01*
X157914848Y-78959161D01*
X157750101Y-78712599D01*
X157446942Y-78409440D01*
X157800000Y-78409440D01*
X158035317Y-78365162D01*
X158251441Y-78226090D01*
X158396431Y-78013890D01*
X158447440Y-77762000D01*
X158447440Y-77247750D01*
X159065000Y-77247750D01*
X159065000Y-77888310D01*
X159161673Y-78121699D01*
X159340302Y-78300327D01*
X159573691Y-78397000D01*
X161164250Y-78397000D01*
X161323000Y-78238250D01*
X161323000Y-77089000D01*
X161577000Y-77089000D01*
X161577000Y-78238250D01*
X161735750Y-78397000D01*
X163326309Y-78397000D01*
X163559698Y-78300327D01*
X163738327Y-78121699D01*
X163835000Y-77888310D01*
X163835000Y-77247750D01*
X163676250Y-77089000D01*
X161577000Y-77089000D01*
X161323000Y-77089000D01*
X159223750Y-77089000D01*
X159065000Y-77247750D01*
X158447440Y-77247750D01*
X158447440Y-76162000D01*
X158423674Y-76035690D01*
X159065000Y-76035690D01*
X159065000Y-76676250D01*
X159223750Y-76835000D01*
X161323000Y-76835000D01*
X161323000Y-75685750D01*
X161577000Y-75685750D01*
X161577000Y-76835000D01*
X163676250Y-76835000D01*
X163835000Y-76676250D01*
X163835000Y-76035690D01*
X163738327Y-75802301D01*
X163559698Y-75623673D01*
X163326309Y-75527000D01*
X161735750Y-75527000D01*
X161577000Y-75685750D01*
X161323000Y-75685750D01*
X161164250Y-75527000D01*
X159573691Y-75527000D01*
X159340302Y-75623673D01*
X159161673Y-75802301D01*
X159065000Y-76035690D01*
X158423674Y-76035690D01*
X158403162Y-75926683D01*
X158264090Y-75710559D01*
X158051890Y-75565569D01*
X157800000Y-75514560D01*
X155557442Y-75514560D01*
X157714934Y-73357068D01*
X157770839Y-73345948D01*
X158017401Y-73181201D01*
X158182148Y-72934639D01*
X158219371Y-72747506D01*
X158467828Y-72581492D01*
X158750000Y-72159193D01*
X159032172Y-72581492D01*
X159032172Y-72581492D01*
G37*
X159032172Y-72581492D02*
X159280629Y-72747506D01*
X159317852Y-72934639D01*
X159482599Y-73181201D01*
X159932899Y-73631501D01*
X160179460Y-73796248D01*
X160470300Y-73854100D01*
X165124600Y-73854100D01*
X165415439Y-73796248D01*
X165662001Y-73631501D01*
X166688042Y-72605460D01*
X167105391Y-72884324D01*
X167640000Y-72990664D01*
X168123300Y-72894530D01*
X168123300Y-77583100D01*
X168181152Y-77873939D01*
X168345899Y-78120501D01*
X168715028Y-78489630D01*
X168528056Y-78591202D01*
X168186501Y-79013183D01*
X168159601Y-79104072D01*
X168158100Y-79096528D01*
X167857746Y-78647017D01*
X167408235Y-78346663D01*
X166878000Y-78241193D01*
X166347765Y-78346663D01*
X165898254Y-78647017D01*
X165597900Y-79096528D01*
X165567373Y-79250000D01*
X157972700Y-79250000D01*
X157914848Y-78959161D01*
X157750101Y-78712599D01*
X157446942Y-78409440D01*
X157800000Y-78409440D01*
X158035317Y-78365162D01*
X158251441Y-78226090D01*
X158396431Y-78013890D01*
X158447440Y-77762000D01*
X158447440Y-77247750D01*
X159065000Y-77247750D01*
X159065000Y-77888310D01*
X159161673Y-78121699D01*
X159340302Y-78300327D01*
X159573691Y-78397000D01*
X161164250Y-78397000D01*
X161323000Y-78238250D01*
X161323000Y-77089000D01*
X161577000Y-77089000D01*
X161577000Y-78238250D01*
X161735750Y-78397000D01*
X163326309Y-78397000D01*
X163559698Y-78300327D01*
X163738327Y-78121699D01*
X163835000Y-77888310D01*
X163835000Y-77247750D01*
X163676250Y-77089000D01*
X161577000Y-77089000D01*
X161323000Y-77089000D01*
X159223750Y-77089000D01*
X159065000Y-77247750D01*
X158447440Y-77247750D01*
X158447440Y-76162000D01*
X158423674Y-76035690D01*
X159065000Y-76035690D01*
X159065000Y-76676250D01*
X159223750Y-76835000D01*
X161323000Y-76835000D01*
X161323000Y-75685750D01*
X161577000Y-75685750D01*
X161577000Y-76835000D01*
X163676250Y-76835000D01*
X163835000Y-76676250D01*
X163835000Y-76035690D01*
X163738327Y-75802301D01*
X163559698Y-75623673D01*
X163326309Y-75527000D01*
X161735750Y-75527000D01*
X161577000Y-75685750D01*
X161323000Y-75685750D01*
X161164250Y-75527000D01*
X159573691Y-75527000D01*
X159340302Y-75623673D01*
X159161673Y-75802301D01*
X159065000Y-76035690D01*
X158423674Y-76035690D01*
X158403162Y-75926683D01*
X158264090Y-75710559D01*
X158051890Y-75565569D01*
X157800000Y-75514560D01*
X155557442Y-75514560D01*
X157714934Y-73357068D01*
X157770839Y-73345948D01*
X158017401Y-73181201D01*
X158182148Y-72934639D01*
X158219371Y-72747506D01*
X158467828Y-72581492D01*
X158750000Y-72159193D01*
X159032172Y-72581492D01*
G36*
X189361796Y-70981098D02*
X189852287Y-71184768D01*
X190383383Y-71185231D01*
X190404700Y-71176423D01*
X190404700Y-74688098D01*
X186825000Y-78267798D01*
X186825000Y-72958602D01*
X187092501Y-72691101D01*
X187105993Y-72670909D01*
X187425391Y-72884324D01*
X187960000Y-72990664D01*
X188494609Y-72884324D01*
X188947828Y-72581492D01*
X189250660Y-72128273D01*
X189357000Y-71593664D01*
X189357000Y-70976294D01*
X189361796Y-70981098D01*
X189361796Y-70981098D01*
G37*
X189361796Y-70981098D02*
X189852287Y-71184768D01*
X190383383Y-71185231D01*
X190404700Y-71176423D01*
X190404700Y-74688098D01*
X186825000Y-78267798D01*
X186825000Y-72958602D01*
X187092501Y-72691101D01*
X187105993Y-72670909D01*
X187425391Y-72884324D01*
X187960000Y-72990664D01*
X188494609Y-72884324D01*
X188947828Y-72581492D01*
X189250660Y-72128273D01*
X189357000Y-71593664D01*
X189357000Y-70976294D01*
X189361796Y-70981098D01*
G36*
X171732172Y-72581492D02*
X172185391Y-72884324D01*
X172720000Y-72990664D01*
X173254609Y-72884324D01*
X173673936Y-72604138D01*
X177267596Y-76197798D01*
X177038000Y-76541412D01*
X176747746Y-76107017D01*
X176508589Y-75947218D01*
X176470148Y-75753961D01*
X176305401Y-75507399D01*
X176058839Y-75342652D01*
X175768000Y-75284800D01*
X175323902Y-75284800D01*
X174628701Y-74589599D01*
X174382139Y-74424852D01*
X174166187Y-74381896D01*
X174017890Y-74280569D01*
X173766000Y-74229560D01*
X172966000Y-74229560D01*
X172730683Y-74273838D01*
X172516340Y-74411764D01*
X172366187Y-74381896D01*
X172217890Y-74280569D01*
X171966000Y-74229560D01*
X171166000Y-74229560D01*
X170940000Y-74272085D01*
X170940000Y-72733722D01*
X171167828Y-72581492D01*
X171450000Y-72159193D01*
X171732172Y-72581492D01*
X171732172Y-72581492D01*
G37*
X171732172Y-72581492D02*
X172185391Y-72884324D01*
X172720000Y-72990664D01*
X173254609Y-72884324D01*
X173673936Y-72604138D01*
X177267596Y-76197798D01*
X177038000Y-76541412D01*
X176747746Y-76107017D01*
X176508589Y-75947218D01*
X176470148Y-75753961D01*
X176305401Y-75507399D01*
X176058839Y-75342652D01*
X175768000Y-75284800D01*
X175323902Y-75284800D01*
X174628701Y-74589599D01*
X174382139Y-74424852D01*
X174166187Y-74381896D01*
X174017890Y-74280569D01*
X173766000Y-74229560D01*
X172966000Y-74229560D01*
X172730683Y-74273838D01*
X172516340Y-74411764D01*
X172366187Y-74381896D01*
X172217890Y-74280569D01*
X171966000Y-74229560D01*
X171166000Y-74229560D01*
X170940000Y-74272085D01*
X170940000Y-72733722D01*
X171167828Y-72581492D01*
X171450000Y-72159193D01*
X171732172Y-72581492D01*
G36*
X145923858Y-75514560D02*
X143954500Y-75514560D01*
X143954500Y-73545202D01*
X145923858Y-75514560D01*
X145923858Y-75514560D01*
G37*
X145923858Y-75514560D02*
X143954500Y-75514560D01*
X143954500Y-73545202D01*
X145923858Y-75514560D01*
G36*
X156431583Y-72490815D02*
X153668695Y-75253703D01*
X153657801Y-75237399D01*
X152072600Y-73652198D01*
X152072600Y-72925540D01*
X152400000Y-72990664D01*
X152934609Y-72884324D01*
X153387828Y-72581492D01*
X153670000Y-72159193D01*
X153952172Y-72581492D01*
X154405391Y-72884324D01*
X154940000Y-72990664D01*
X155474609Y-72884324D01*
X155927828Y-72581492D01*
X156210000Y-72159193D01*
X156431583Y-72490815D01*
X156431583Y-72490815D01*
G37*
X156431583Y-72490815D02*
X153668695Y-75253703D01*
X153657801Y-75237399D01*
X152072600Y-73652198D01*
X152072600Y-72925540D01*
X152400000Y-72990664D01*
X152934609Y-72884324D01*
X153387828Y-72581492D01*
X153670000Y-72159193D01*
X153952172Y-72581492D01*
X154405391Y-72884324D01*
X154940000Y-72990664D01*
X155474609Y-72884324D01*
X155927828Y-72581492D01*
X156210000Y-72159193D01*
X156431583Y-72490815D01*
G36*
X180679800Y-74521602D02*
X180679800Y-74853425D01*
X180513829Y-74742527D01*
X178527044Y-72755742D01*
X178758971Y-72600773D01*
X180679800Y-74521602D01*
X180679800Y-74521602D01*
G37*
X180679800Y-74521602D02*
X180679800Y-74853425D01*
X180513829Y-74742527D01*
X178527044Y-72755742D01*
X178758971Y-72600773D01*
X180679800Y-74521602D01*
G36*
X194945000Y-72263000D02*
X194965000Y-72263000D01*
X194965000Y-72517000D01*
X194945000Y-72517000D01*
X194945000Y-72537000D01*
X194691000Y-72537000D01*
X194691000Y-72517000D01*
X194671000Y-72517000D01*
X194671000Y-72263000D01*
X194691000Y-72263000D01*
X194691000Y-72243000D01*
X194945000Y-72243000D01*
X194945000Y-72263000D01*
X194945000Y-72263000D01*
G37*
X194945000Y-72263000D02*
X194965000Y-72263000D01*
X194965000Y-72517000D01*
X194945000Y-72517000D01*
X194945000Y-72537000D01*
X194691000Y-72537000D01*
X194691000Y-72517000D01*
X194671000Y-72517000D01*
X194671000Y-72263000D01*
X194691000Y-72263000D01*
X194691000Y-72243000D01*
X194945000Y-72243000D01*
X194945000Y-72263000D01*
G36*
X165732452Y-61975161D02*
X165674600Y-62266000D01*
X165674600Y-65600637D01*
X165642408Y-65632773D01*
X165499762Y-65976301D01*
X165499438Y-66348267D01*
X165641483Y-66692043D01*
X165777200Y-66827998D01*
X164562599Y-68042599D01*
X164397852Y-68289161D01*
X164340000Y-68580000D01*
X164340000Y-69379278D01*
X164112172Y-69531508D01*
X163830000Y-69953807D01*
X163547828Y-69531508D01*
X163320000Y-69379278D01*
X163320000Y-67651900D01*
X163262148Y-67361061D01*
X163097401Y-67114499D01*
X161684901Y-65701999D01*
X161438339Y-65537252D01*
X161147500Y-65479400D01*
X160582800Y-65479400D01*
X160291961Y-65537252D01*
X160045399Y-65701999D01*
X159993440Y-65753958D01*
X159993440Y-65063000D01*
X159949162Y-64827683D01*
X159810090Y-64611559D01*
X159597890Y-64466569D01*
X159489893Y-64444699D01*
X159767645Y-64139924D01*
X159937476Y-63729890D01*
X159816155Y-63500000D01*
X158623000Y-63500000D01*
X158623000Y-63520000D01*
X158369000Y-63520000D01*
X158369000Y-63500000D01*
X157175845Y-63500000D01*
X157054524Y-63729890D01*
X157224355Y-64139924D01*
X157500501Y-64442937D01*
X157410683Y-64459838D01*
X157194559Y-64598910D01*
X157049569Y-64811110D01*
X156998560Y-65063000D01*
X156998560Y-66530300D01*
X153260200Y-66530300D01*
X152969361Y-66588152D01*
X152722799Y-66752899D01*
X150766498Y-68709200D01*
X149860000Y-68709200D01*
X149569161Y-68767052D01*
X149322599Y-68931799D01*
X149157852Y-69178361D01*
X149120629Y-69365494D01*
X148872172Y-69531508D01*
X148590000Y-69953807D01*
X148307828Y-69531508D01*
X147854609Y-69228676D01*
X147320000Y-69122336D01*
X146937000Y-69198519D01*
X146937000Y-64870440D01*
X147027000Y-64870440D01*
X147262317Y-64826162D01*
X147478441Y-64687090D01*
X147623431Y-64474890D01*
X147674440Y-64223000D01*
X147674440Y-63781942D01*
X149124560Y-65232062D01*
X149124560Y-66763000D01*
X149168838Y-66998317D01*
X149307910Y-67214441D01*
X149520110Y-67359431D01*
X149772000Y-67410440D01*
X151472000Y-67410440D01*
X151707317Y-67366162D01*
X151923441Y-67227090D01*
X152068431Y-67014890D01*
X152119440Y-66763000D01*
X152119440Y-65063000D01*
X152075162Y-64827683D01*
X151936090Y-64611559D01*
X151723890Y-64466569D01*
X151615893Y-64444699D01*
X151893645Y-64139924D01*
X152063476Y-63729890D01*
X151942155Y-63500000D01*
X150749000Y-63500000D01*
X150749000Y-63520000D01*
X150495000Y-63520000D01*
X150495000Y-63500000D01*
X150475000Y-63500000D01*
X150475000Y-63246000D01*
X150495000Y-63246000D01*
X150495000Y-62052181D01*
X150749000Y-62052181D01*
X150749000Y-63246000D01*
X151942155Y-63246000D01*
X152063476Y-63016110D01*
X157054524Y-63016110D01*
X157175845Y-63246000D01*
X158369000Y-63246000D01*
X158369000Y-62052181D01*
X158623000Y-62052181D01*
X158623000Y-63246000D01*
X159816155Y-63246000D01*
X159937476Y-63016110D01*
X159767645Y-62606076D01*
X159377358Y-62177817D01*
X158852892Y-61931514D01*
X158623000Y-62052181D01*
X158369000Y-62052181D01*
X158139108Y-61931514D01*
X157614642Y-62177817D01*
X157224355Y-62606076D01*
X157054524Y-63016110D01*
X152063476Y-63016110D01*
X151893645Y-62606076D01*
X151503358Y-62177817D01*
X150978892Y-61931514D01*
X150749000Y-62052181D01*
X150495000Y-62052181D01*
X150265108Y-61931514D01*
X149740642Y-62177817D01*
X149350355Y-62606076D01*
X149180524Y-63016110D01*
X149301844Y-63245998D01*
X149288100Y-63245998D01*
X147789602Y-61747500D01*
X165884570Y-61747500D01*
X165732452Y-61975161D01*
X165732452Y-61975161D01*
G37*
X165732452Y-61975161D02*
X165674600Y-62266000D01*
X165674600Y-65600637D01*
X165642408Y-65632773D01*
X165499762Y-65976301D01*
X165499438Y-66348267D01*
X165641483Y-66692043D01*
X165777200Y-66827998D01*
X164562599Y-68042599D01*
X164397852Y-68289161D01*
X164340000Y-68580000D01*
X164340000Y-69379278D01*
X164112172Y-69531508D01*
X163830000Y-69953807D01*
X163547828Y-69531508D01*
X163320000Y-69379278D01*
X163320000Y-67651900D01*
X163262148Y-67361061D01*
X163097401Y-67114499D01*
X161684901Y-65701999D01*
X161438339Y-65537252D01*
X161147500Y-65479400D01*
X160582800Y-65479400D01*
X160291961Y-65537252D01*
X160045399Y-65701999D01*
X159993440Y-65753958D01*
X159993440Y-65063000D01*
X159949162Y-64827683D01*
X159810090Y-64611559D01*
X159597890Y-64466569D01*
X159489893Y-64444699D01*
X159767645Y-64139924D01*
X159937476Y-63729890D01*
X159816155Y-63500000D01*
X158623000Y-63500000D01*
X158623000Y-63520000D01*
X158369000Y-63520000D01*
X158369000Y-63500000D01*
X157175845Y-63500000D01*
X157054524Y-63729890D01*
X157224355Y-64139924D01*
X157500501Y-64442937D01*
X157410683Y-64459838D01*
X157194559Y-64598910D01*
X157049569Y-64811110D01*
X156998560Y-65063000D01*
X156998560Y-66530300D01*
X153260200Y-66530300D01*
X152969361Y-66588152D01*
X152722799Y-66752899D01*
X150766498Y-68709200D01*
X149860000Y-68709200D01*
X149569161Y-68767052D01*
X149322599Y-68931799D01*
X149157852Y-69178361D01*
X149120629Y-69365494D01*
X148872172Y-69531508D01*
X148590000Y-69953807D01*
X148307828Y-69531508D01*
X147854609Y-69228676D01*
X147320000Y-69122336D01*
X146937000Y-69198519D01*
X146937000Y-64870440D01*
X147027000Y-64870440D01*
X147262317Y-64826162D01*
X147478441Y-64687090D01*
X147623431Y-64474890D01*
X147674440Y-64223000D01*
X147674440Y-63781942D01*
X149124560Y-65232062D01*
X149124560Y-66763000D01*
X149168838Y-66998317D01*
X149307910Y-67214441D01*
X149520110Y-67359431D01*
X149772000Y-67410440D01*
X151472000Y-67410440D01*
X151707317Y-67366162D01*
X151923441Y-67227090D01*
X152068431Y-67014890D01*
X152119440Y-66763000D01*
X152119440Y-65063000D01*
X152075162Y-64827683D01*
X151936090Y-64611559D01*
X151723890Y-64466569D01*
X151615893Y-64444699D01*
X151893645Y-64139924D01*
X152063476Y-63729890D01*
X151942155Y-63500000D01*
X150749000Y-63500000D01*
X150749000Y-63520000D01*
X150495000Y-63520000D01*
X150495000Y-63500000D01*
X150475000Y-63500000D01*
X150475000Y-63246000D01*
X150495000Y-63246000D01*
X150495000Y-62052181D01*
X150749000Y-62052181D01*
X150749000Y-63246000D01*
X151942155Y-63246000D01*
X152063476Y-63016110D01*
X157054524Y-63016110D01*
X157175845Y-63246000D01*
X158369000Y-63246000D01*
X158369000Y-62052181D01*
X158623000Y-62052181D01*
X158623000Y-63246000D01*
X159816155Y-63246000D01*
X159937476Y-63016110D01*
X159767645Y-62606076D01*
X159377358Y-62177817D01*
X158852892Y-61931514D01*
X158623000Y-62052181D01*
X158369000Y-62052181D01*
X158139108Y-61931514D01*
X157614642Y-62177817D01*
X157224355Y-62606076D01*
X157054524Y-63016110D01*
X152063476Y-63016110D01*
X151893645Y-62606076D01*
X151503358Y-62177817D01*
X150978892Y-61931514D01*
X150749000Y-62052181D01*
X150495000Y-62052181D01*
X150265108Y-61931514D01*
X149740642Y-62177817D01*
X149350355Y-62606076D01*
X149180524Y-63016110D01*
X149301844Y-63245998D01*
X149288100Y-63245998D01*
X147789602Y-61747500D01*
X165884570Y-61747500D01*
X165732452Y-61975161D01*
G36*
X184245699Y-67434601D02*
X184492260Y-67599348D01*
X184783100Y-67657200D01*
X186851398Y-67657200D01*
X188405062Y-69210864D01*
X187960000Y-69122336D01*
X187425391Y-69228676D01*
X187005045Y-69509543D01*
X185618901Y-68123399D01*
X185372339Y-67958652D01*
X185081500Y-67900800D01*
X184420602Y-67900800D01*
X182831012Y-66311210D01*
X183005631Y-66194533D01*
X184245699Y-67434601D01*
X184245699Y-67434601D01*
G37*
X184245699Y-67434601D02*
X184492260Y-67599348D01*
X184783100Y-67657200D01*
X186851398Y-67657200D01*
X188405062Y-69210864D01*
X187960000Y-69122336D01*
X187425391Y-69228676D01*
X187005045Y-69509543D01*
X185618901Y-68123399D01*
X185372339Y-67958652D01*
X185081500Y-67900800D01*
X184420602Y-67900800D01*
X182831012Y-66311210D01*
X183005631Y-66194533D01*
X184245699Y-67434601D01*
G36*
X182859593Y-69126395D02*
X182345391Y-69228676D01*
X181953579Y-69490477D01*
X179068000Y-66604898D01*
X179068000Y-66437362D01*
X179578000Y-66538807D01*
X180108235Y-66433337D01*
X180143183Y-66409985D01*
X182859593Y-69126395D01*
X182859593Y-69126395D01*
G37*
X182859593Y-69126395D02*
X182345391Y-69228676D01*
X181953579Y-69490477D01*
X179068000Y-66604898D01*
X179068000Y-66437362D01*
X179578000Y-66538807D01*
X180108235Y-66433337D01*
X180143183Y-66409985D01*
X182859593Y-69126395D01*
G36*
X175757900Y-65683472D02*
X176058254Y-66132983D01*
X176507765Y-66433337D01*
X177038000Y-66538807D01*
X177548000Y-66437362D01*
X177548000Y-66919700D01*
X177605852Y-67210539D01*
X177770599Y-67457101D01*
X179647604Y-69334106D01*
X179415258Y-69489356D01*
X177927701Y-68001799D01*
X177681139Y-67837052D01*
X177390300Y-67779200D01*
X176697202Y-67779200D01*
X175205767Y-66287765D01*
X175387944Y-66188798D01*
X175729499Y-65766817D01*
X175756399Y-65675928D01*
X175757900Y-65683472D01*
X175757900Y-65683472D01*
G37*
X175757900Y-65683472D02*
X176058254Y-66132983D01*
X176507765Y-66433337D01*
X177038000Y-66538807D01*
X177548000Y-66437362D01*
X177548000Y-66919700D01*
X177605852Y-67210539D01*
X177770599Y-67457101D01*
X179647604Y-69334106D01*
X179415258Y-69489356D01*
X177927701Y-68001799D01*
X177681139Y-67837052D01*
X177390300Y-67779200D01*
X176697202Y-67779200D01*
X175205767Y-66287765D01*
X175387944Y-66188798D01*
X175729499Y-65766817D01*
X175756399Y-65675928D01*
X175757900Y-65683472D01*
G36*
X145417000Y-69297092D02*
X145314609Y-69228676D01*
X144780000Y-69122336D01*
X144444500Y-69189071D01*
X144444500Y-67260302D01*
X145417000Y-66287802D01*
X145417000Y-69297092D01*
X145417000Y-69297092D01*
G37*
X145417000Y-69297092D02*
X145314609Y-69228676D01*
X144780000Y-69122336D01*
X144444500Y-69189071D01*
X144444500Y-67260302D01*
X145417000Y-66287802D01*
X145417000Y-69297092D01*
G36*
X191357200Y-63441402D02*
X191357200Y-66810784D01*
X191251418Y-66554771D01*
X190876204Y-66178902D01*
X190728144Y-66117422D01*
X191018100Y-65683472D01*
X191123570Y-65153237D01*
X191123570Y-64386763D01*
X191018100Y-63856528D01*
X190717746Y-63407017D01*
X190268235Y-63106663D01*
X189738000Y-63001193D01*
X189207765Y-63106663D01*
X189040500Y-63218426D01*
X189040500Y-61124702D01*
X191357200Y-63441402D01*
X191357200Y-63441402D01*
G37*
X191357200Y-63441402D02*
X191357200Y-66810784D01*
X191251418Y-66554771D01*
X190876204Y-66178902D01*
X190728144Y-66117422D01*
X191018100Y-65683472D01*
X191123570Y-65153237D01*
X191123570Y-64386763D01*
X191018100Y-63856528D01*
X190717746Y-63407017D01*
X190268235Y-63106663D01*
X189738000Y-63001193D01*
X189207765Y-63106663D01*
X189040500Y-63218426D01*
X189040500Y-61124702D01*
X191357200Y-63441402D01*
G36*
X174625000Y-64643000D02*
X174645000Y-64643000D01*
X174645000Y-64897000D01*
X174625000Y-64897000D01*
X174625000Y-64917000D01*
X174371000Y-64917000D01*
X174371000Y-64897000D01*
X174351000Y-64897000D01*
X174351000Y-64643000D01*
X174371000Y-64643000D01*
X174371000Y-64623000D01*
X174625000Y-64623000D01*
X174625000Y-64643000D01*
X174625000Y-64643000D01*
G37*
X174625000Y-64643000D02*
X174645000Y-64643000D01*
X174645000Y-64897000D01*
X174625000Y-64897000D01*
X174625000Y-64917000D01*
X174371000Y-64917000D01*
X174371000Y-64897000D01*
X174351000Y-64897000D01*
X174351000Y-64643000D01*
X174371000Y-64643000D01*
X174371000Y-64623000D01*
X174625000Y-64623000D01*
X174625000Y-64643000D01*
M02*
